<?xml version="1.0" encoding="utf-8"?>
<!-- Generator: Adobe Illustrator 18.1.1, SVG Export Plug-In . SVG Version: 6.00 Build 0)  -->
<svg version="1.1" id="Capa_1" xmlns="http://www.w3.org/2000/svg" xmlns:xlink="http://www.w3.org/1999/xlink" x="0px" y="0px"
	 width="256px" height="256px" viewBox="15 709 256 256" enable-background="new 15 709 256 256" xml:space="preserve">
<g>
	<path fill="#fff"  d="M105.4,788.5c0-2.7,2.2-4.9,4.9-4.9s4.9,2.2,4.9,4.9v87.3c0,2.7-2.2,4.9-4.9,4.9s-4.9-2.2-4.9-4.9V788.5z"
		/>
	<path fill="#fff" d="M70.7,917c-2.7,0-4.9-2.2-4.9-4.9s2.2-4.9,4.9-4.9h128.5c2.7,0,4.9,2.2,4.9,4.9s-2.2,4.9-4.9,4.9H70.7z"/>
	<path fill="#fff" d="M80.6,837.9c-2.7,0-4.9-2.2-4.9-4.9s2.2-4.9,4.9-4.9h79.2c2.7,0,4.9,2.2,4.9,4.9s-2.2,4.9-4.9,4.9H80.6z"/>
	<path fill="#fff" d="M73.4,917c-2.7,0-4.9-2.2-4.9-4.9s2.2-4.9,4.9-4.9h0.3h0.4c8.5-0.2,16.3-3.7,22-9.4
		c5.7-5.7,9.3-13.6,9.3-22.3v-0.3c0-2.7,2.2-4.9,4.9-4.9c2.7,0,4.9,2.2,4.9,4.9v0.3c0,11.4-4.7,21.8-12.2,29.3
		c-7.4,7.4-17.6,12-28.8,12.2h-0.5L73.4,917L73.4,917z"/>
	<path fill="#fff" d="M115.2,788.5c0,2.7-2.2,4.9-4.9,4.9c-2.7,0-4.9-2.2-4.9-4.9c0-10.9,4.4-20.8,11.6-28l0.3-0.3
		c7.1-7,16.9-11.3,27.6-11.3c10.9,0,20.8,4.4,28,11.6c7.2,7.2,11.6,17.1,11.6,28c0,2.7-2.2,4.9-4.9,4.9c-2.7,0-4.9-2.2-4.9-4.9
		c0-8.2-3.3-15.6-8.7-21c-5.4-5.4-12.8-8.7-21-8.7c-8.1,0-15.4,3.2-20.7,8.4l-0.3,0.3C118.6,772.9,115.2,780.3,115.2,788.5z"/>
</g>
</svg>
