<?xml version="1.0" encoding="utf-8"?>
<!-- Generator: Adobe Illustrator 16.0.4, SVG Export Plug-In . SVG Version: 6.00 Build 0)  -->
<!DOCTYPE svg PUBLIC "-//W3C//DTD SVG 1.1//EN" "http://www.w3.org/Graphics/SVG/1.1/DTD/svg11.dtd">
<svg version="1.1" id="Layer_1" xmlns="http://www.w3.org/2000/svg" xmlns:xlink="http://www.w3.org/1999/xlink" x="0px" y="0px"
	 width="256.496px" height="256px" viewBox="0 0 256.496 256" enable-background="new 0 0 256.496 256" xml:space="preserve">
<g>
	<path fill="#7144b7" d="M166.902,84.767c15.424,14.015,31.033,27.84,46.09,42.249c0.941,0.9,1.953,1.692,3.021,2.373l8.616,7.879
		l4.896,5.002c11.68,11.929,6.877,29.488-5.653,34.92c5.123,13.647-5.863,26.824-19.61,26.028
		c-1.48,11.433-12.43,19.035-24.086,16.263c-3.132,14.285-20.123,19.479-33.361,11.483l-1.998-1.206
		c2.75-3.517,4.479-7.552,5.226-11.724c3.681,2.223,6.497,4.302,10.894,3.95c3.043-0.242,5.86-1.797,6.713-4.836
		c0.361-1.301,0.375-2.885-0.069-4.729l-16.521-13.214c-2.738-2.188-3.186-6.18-0.998-8.917c2.187-2.736,6.181-3.183,8.918-0.996
		l18.09,14.469c4.395,3.515,8.869,5.05,12.392,1.964c0.819-0.721,1.453-1.644,1.83-2.681c0.634-1.731,1.272-4.459-0.603-5.922
		l-21.476-16.785c-2.765-2.159-3.257-6.151-1.096-8.916c2.157-2.765,6.151-3.256,8.916-1.097l22.409,17.516
		c0.172,0.135,0.336,0.276,0.49,0.424c7.42,6.788,19.27-2.924,7.411-12.602l-23.618-17.689c-2.808-2.104-3.375-6.084-1.271-8.891
		s6.085-3.374,8.893-1.27l23.492,17.592c2.344,1.406,5.363-0.086,7.027-2.422c2.539-3.564,2.164-8.153-1.405-11.801l-4.915-5.02
		l-62.636-56.911c-1.476-1.342-0.452-3.798,1.54-3.695c3.882,0.2,7.771-0.044,11.438-0.689
		C166.238,84.806,166.577,84.772,166.902,84.767L166.902,84.767z M28.672,137.969c-6.548-8.388-7.368-19.909-9.016-30.918
		l-7.954-7.645C5.566,92.616-0.08,87.975-0.005,78.347c0.04-4.985,1.857-9.97,5.492-13.907l33.194-35.982
		c7.297-7.91,19.436-9.125,27.994-2.545c5.044,3.879,7.3,6.215,14.072,8.799c2.032,0.775,3.77,1.327,4.328,1.251
		c9.927-1.355,20.651-5.846,32.038-5.602c-4.513,2.943-21.636,16.386-22.034,16.574c-2.858,0.672-5.637,1.264-8.311,1.63
		c-6.121,0.836-17.196-4.386-21.428-7.641l-6.437-4.949c-3.298-2.535-7.986-2.013-10.859,1.101L14.851,73.058
		c-2.828,3.065-2.872,7.723-0.128,10.758c2.986,3.302,5.131,5.913,8.438,9.047c3.51,3.327,8.452,8.007,9.098,12.296
		c1.173,7.796,1.972,18.812,6.154,24.612C33.936,132.025,31.817,134.324,28.672,137.969L28.672,137.969z"/>
	<path fill="#7144b7" d="M134.262,200.918c-5.418-4.672-13.109-5.111-18.952-1.624c-0.365,0.22-0.802,0.203-1.152-0.043
		c-0.351-0.244-0.515-0.647-0.436-1.067c1.048-5.521-0.784-11.447-5.324-15.361l0,0c-5.415-4.672-13.106-5.111-18.949-1.625
		c-0.367,0.219-0.804,0.203-1.152-0.042c-0.351-0.244-0.517-0.648-0.436-1.068c1.048-5.521-0.786-11.448-5.324-15.362l0,0
		c-4.482-3.865-10.522-4.834-15.782-3.076c-0.406,0.136-0.83,0.025-1.12-0.291c-0.291-0.316-0.361-0.75-0.189-1.143
		c2.773-6.354,1.25-14.068-4.257-18.818l0,0c-6.762-5.83-17.065-5.067-22.896,1.69l-4.67,5.413
		c-5.83,6.759-5.07,17.064,1.689,22.896l0,0c4.139,3.567,9.602,4.668,14.554,3.434c0.448-0.11,0.896,0.064,1.148,0.452
		c0.251,0.386,0.232,0.866-0.053,1.229c-5.234,6.756-4.312,16.59,2.231,22.234l0,0c6.428,5.544,16.057,5.131,22.001-0.734
		c0.324-0.32,0.793-0.398,1.204-0.201c0.41,0.196,0.644,0.609,0.598,1.064c-0.511,5.098,1.378,10.364,5.529,13.945l0,0
		c6.428,5.544,16.056,5.13,22.001-0.734c0.323-0.32,0.792-0.398,1.203-0.202c0.411,0.197,0.646,0.61,0.6,1.065
		c-0.51,5.097,1.377,10.365,5.527,13.945c6.761,5.83,17.063,5.069,22.896-1.689l1.199-1.391
		C141.782,217.052,141.023,206.749,134.262,200.918L134.262,200.918z M177.829,78.584c13.588,13.003,28.883,27.711,42.511,40.754
		c1.959,1.874,4.434,2.664,7.117,2.269s4.825-1.865,6.16-4.226c3.324-5.879,5.615-12.447,6.855-19.716
		c0.551-3.25,1.875-5.896,4.145-8.29l7.488-7.901c5.756-6.07,5.891-15.535,0.225-21.689l-30.646-33.296
		c-5.723-6.216-15.227-6.986-21.803-1.681l-7.203,5.811c-3.482,2.809-7.504,3.959-11.945,3.415
		c-7.555-0.924-15.109-1.849-22.664-2.771c-14.293-1.749-27.205,1.75-38.658,10.477c-15.105,11.512-30.24,22.988-45.062,34.862
		c-14.786,11.847,3.74,27.944,21.293,17.093l32.868-20.321c4.612-2.851,9.87-3.212,14.828-1.021
		c6.243,2.761,14.157,3.205,20.706,2.051C169.205,73.493,174.042,74.961,177.829,78.584L177.829,78.584z"/>
</g>
</svg>
