<?xml version="1.0" encoding="UTF-8" standalone="no"?>
<svg
   xmlns:dc="http://purl.org/dc/elements/1.1/"
   xmlns:cc="http://creativecommons.org/ns#"
   xmlns:rdf="http://www.w3.org/1999/02/22-rdf-syntax-ns#"
   xmlns:svg="http://www.w3.org/2000/svg"
   xmlns="http://www.w3.org/2000/svg"
   xml:space="preserve"
   style="enable-background:new 0 0 1402 1692.914;"
   viewBox="0 0 1402 1692.914"
   y="0px"
   x="0px"
   id="Layer_1"
   version="1.1"><metadata
     id="metadata3947"></metadata><defs
     id="defs3945" /><style
     id="style3824"
     type="text/css" /><g
     fill="grey"
     id="g3940"><path
       id="path3826"
       d="m 909.699,48.532 c 8.329,-2.601 19.998,-3.681 27.149,1.404 9.693,6.839 20.064,22.384 9.346,36.259 -1.224,1.51 -2.318,3.134 -3.012,4.955 5.363,0.065 10.914,-1.249 16.154,0.359 4.514,2.457 9.232,5.159 12.097,9.575 18.243,24.835 -9.228,43.842 -16.856,50.6 -5.777,12.878 9.179,30.268 1.673,58.877 -7.241,9.14 -5.191,6.9 -16.244,10.987 -4.996,1.812 -11.093,1.771 -14.938,5.91 -3.089,6.071 9.883,18.138 3.591,34.61 -5.476,14.554 -20.819,20.279 -35.973,26.969 -1.2,0.784 -3.298,1.38 -3.208,3.126 2.786,2.977 15.987,8.854 20.823,20.162 5.287,9.982 3.639,20.578 -7.714,26.888 -13.363,7.246 -26.018,1.719 -29.508,12.611 -2.841,7.861 -2.432,16.791 -6.914,24.096 -1.445,2.808 -4.147,4.579 -6.057,7.004 23.881,28.007 7.707,32.465 43.262,56.233 8.775,5.71 16.426,5.558 19.901,26.765 1.437,8.889 2.465,18.023 6.253,26.308 9.845,23.596 32.076,32.218 46.764,45.507 1.339,1.029 2.579,2.579 4.449,2.547 3.779,0.196 7.632,0.261 11.395,-0.318 6.804,-1.602 4.044,-14.279 23.043,-7.787 13.182,4.239 11.559,6.365 26.839,1.102 1.543,0.204 2.873,1.126 4.302,1.755 -0.498,1.298 -0.939,2.743 -2.188,3.534 -18.731,13.537 -26.661,-0.112 -37.989,-1.126 -3.388,-0.375 -4.392,3.624 -6.653,5.314 -4.024,3.787 -9.852,2.539 -14.831,2.751 0,0 9.183,12.624 16.562,27.745 3.502,6.906 6.946,14.236 13.183,19.133 2.824,4.432 9.51,4.008 11.705,8.979 10.888,6.909 11.77,12.54 8.505,35.548 -0.726,2.922 -1.616,5.828 -1.535,8.881 0.024,1.633 -1.902,2.514 -1.845,4.212 -2.022,16.923 -6.987,46.07 -6.987,46.07 101.959,47.031 28.843,22.939 151.711,19.754 9.314,-2.127 8.674,0.875 26.578,-5.077 1.543,-1.298 3.812,-2.269 4.22,-4.449 1.28,-10.732 -13.751,-16.64 -14.97,-21.639 -8.009,-26.071 -20.785,-15.084 -24.047,-26.749 1.208,1.175 2.139,2.759 3.73,3.485 4.769,1.412 17.807,2.241 23.402,17.721 2.912,8.315 14.538,10.185 18.121,22.243 8.948,25.114 -52.702,21.264 -68.983,23.982 -8.646,0.875 -34.598,5.556 -41.532,5.371 0,0.563 0.016,1.69 0.016,2.245 194.865,83.542 115.363,30.794 213.38,82.157 1.812,0.441 3.306,1.51 4.465,2.971 -1.347,0.718 -3.135,1.331 -3.151,3.159 -3.547,10.764 -0.144,39.62 -2.441,73.456 0,0 0.114,14.705 -13.232,122.611 -0.876,7.896 -3.216,34.098 -2.979,41.817 5.534,-1.412 8.106,-6.963 12.211,-10.383 13.821,-11.729 47.122,-9.995 52.78,-9.069 -0.22,0.661 -0.424,1.339 -0.612,2.032 -4.523,0.823 -25.237,1.45 -31.949,3.502 -21.754,4.444 -17.624,12.646 -29.99,18.57 -10.154,39.295 -22.826,25.764 -32.251,36.365 -5.706,5.461 -6.032,14.081 -10.922,20.08 -9.328,11.336 -16.435,8.481 -21.794,12.62 -6.336,0.617 -7.916,9.672 -8.089,16.04 -0.473,0.147 -1.42,0.441 -1.894,0.588 -0.457,1.722 -0.939,3.437 -1.461,5.151 -0.514,-1.633 -0.963,-3.281 -1.396,-4.906 -31.32,1.487 -47.969,-6.953 -72.566,-9.248 -10.141,-0.81 -21.663,8.327 -38.879,3.657 -13.796,-2.511 -21.221,-13.476 -36.348,-7.795 -23.728,5.513 -29.217,2.503 -43.156,2.392 -5.404,-0.163 -10.791,-1.934 -16.154,-0.882 -4.473,-0.939 -10.285,0.237 -12.285,4.849 4.391,2.988 8.097,8.195 6.432,13.738 5.534,2.604 10.726,7.836 10.889,14.268 0.22,2.073 -1.486,3.453 -2.579,4.971 3.041,3.938 23.919,12.23 10.114,28.806 -3.045,3.632 -7.461,6.008 -12.179,6.457 0,4.702 -0.514,10.505 -5.428,12.693 -4.849,0.139 -7.436,-4.53 -11.705,-5.795 -0.8,2 -1.975,4.71 -4.628,4.359 -3.094,0.751 -5.151,-1.665 -7.248,-3.437 -2.851,4.814 -5.527,13.563 -23.353,-0.71 -0.986,1.416 -7.233,15.163 -14.44,0.474 -10.954,6.174 -8.846,7.189 -14.121,4.759 -3.675,-1.871 -2.141,-8.405 -5.755,-6.726 -1.331,1.058 -8.901,10.55 -15.305,4.791 -2.245,-1.992 -2.906,-5.036 -3.853,-7.738 -8.048,3.85 -11.714,2.122 -15.86,-3.624 -8.123,3.349 -20.837,1.775 -21.305,-9.142 -6.285,2.522 -13.305,0.449 -19.631,2.498 -0.277,3.551 -1.641,6.873 -2.432,10.326 -1.241,0.971 -2.441,-0.318 -3.592,-0.751 -47.956,2.355 -21.105,-39.626 -109.927,-11.616 -69.055,20.639 -64.319,-27.318 -149.54,6.261 0,0 0,0 -53.896,13.038 -11.852,-1.575 -22.635,-7.183 -34.283,-9.558 -0.441,0.22 -1.331,0.661 -1.771,0.882 -0.139,-0.424 -0.408,-1.273 -0.539,-1.698 -19.82,-7.362 -67.879,-12.502 -109.004,2.816 -47.78,15.064 -63.083,25.106 -127.795,-14.766 -7.507,-4.897 -3.576,-3.998 -29.492,-7.159 -11.715,-0.084 -113.602,-1.883 -125.656,9.02 -9.74,7.936 -15.278,8.574 -19.207,11.216 -1,0.127 -30.761,7.451 -48.217,3.118 6.742,-4.286 32.111,-2.835 42.421,-7.493 13.407,-3.523 17.537,-9.613 26.831,-15.174 30.283,-6.39 51.506,-7.534 51.506,-7.534 -3.975,-2.514 -8.603,-4.375 -11.273,-8.473 -5.443,-7.167 -4.088,-23.75 4.408,-30.438 1.894,-1.657 4.318,-2.465 6.604,-3.404 -0.378,-5.664 -10.503,-10.761 5.061,-27.255 -10.021,-1.93 -17.211,-7.09 -15.631,-17.199 2.872,-10.721 17.081,-12.83 12.138,-14.089 -16.431,-6.6 -18.296,-35.392 5.796,-37.14 -7.914,-19.013 -0.373,-27.16 9.216,-26.912 -1.641,-1.935 -3.992,-3.11 -5.526,-5.126 -5.822,-8.169 -3.377,-19.038 7.975,-21.484 2.539,0.653 5.567,0.465 7.436,2.637 -3.804,1.077 -8.685,1.453 -10.636,5.493 -1.469,5.229 -0.539,9.559 10.13,13.052 -0.607,-26.032 4.272,-25.705 0.18,-30.545 -1.135,-5.632 -1.551,-12.644 3.143,-16.831 13.093,-9.602 26.859,-7.323 31.255,-2.359 1.207,-9.007 5.935,-12.362 15.036,-13.909 -1.106,-17.062 18.686,-20.38 35.752,-18.488 2.126,-4.125 1.074,-28.53 0.775,-32.3 -0.842,0.306 -14.732,10.893 -15.354,11.485 -4.751,1.347 -9.395,3.273 -14.374,3.592 -41.883,1.555 -33.489,-2.276 -38.013,1.828 -3.995,4.167 -18.13,16.735 -27.41,18.301 -13.454,0.518 -6.464,-18.71 -5.608,-25.402 -16.064,6.391 -41.616,15.561 -58.551,13.166 -14.492,-7.216 4.753,-26.884 7.322,-32.626 -36.877,-0.34 6.051,-31.983 9.754,-39.826 -3.918,-0.498 -8.285,-0.049 -11.656,-2.465 -8.035,-5.546 4.489,-12.48 17.035,-20.978 0.016,-0.441 0.033,-1.314 0.041,-1.747 -6.077,-1.327 -45.335,0.343 3.159,-29.965 0.049,-0.563 0.147,-1.69 0.196,-2.253 -10.726,3.141 -26.888,3.365 -28.969,-7.763 -3.579,-15.856 20.477,-40.563 36.659,-40.324 -1.003,0.65 -25.103,7.689 -32.7,32.096 -0.351,3.502 -1.11,8.016 1.992,10.554 5.681,4.729 19.36,2.26 23.394,-0.033 3.404,0.098 6.824,-2.914 10.04,-0.931 1.926,0.759 0.947,3.11 1.159,4.702 -10.726,11.38 -24.962,18.315 -28.814,25.974 6.497,1.135 13.134,1.094 19.574,2.628 11.061,10.32 -12.536,16.653 -14.832,22.602 3.853,1.102 7.869,1.233 11.852,1.102 9.794,7.724 -19.823,25.556 -24.529,38.16 0.645,0.661 1.412,0.931 2.294,0.816 15.939,-2.175 13.224,-2.102 16.799,0.996 0.698,15.412 -56.076,51.424 40.511,16.676 3.183,-1.543 7.542,0.857 7.265,4.563 0.024,7.608 -4.065,14.668 -3.436,22.358 8.876,-3.032 20.624,-12.82 26.904,-20.211 2.416,-1.6 4.816,1.077 7.224,1.494 10.873,1.763 21.966,1.322 32.92,0.555 7.033,0.672 22.276,-7.893 27.729,-13.509 -1.518,-25.948 -11.113,-62.793 -6.816,-98.507 -4.488,1.507 -8.616,10.394 -23.337,13.224 -11.161,1.129 -12.829,-5.687 -21.656,-10.089 -15.916,-8.816 -25.736,0.857 -41.719,-3.053 -21.11,-10.399 -21.601,-19.076 -20.594,-33.304 1.461,-5.673 3.094,-11.428 6.065,-16.521 6.382,-13.245 3.068,-15.282 10.293,-23.549 2.212,-1.126 4.555,-2 7.069,-2.106 0.824,-3.33 0.082,-6.75 -0.024,-10.105 -8.277,-0.229 -17.035,1.004 -24.741,-2.775 -8.218,-4.339 -1.416,-12.966 -0.22,-15.183 -13.533,1.51 -17.442,3.168 -27.851,-2.481 -1.2,-2.318 -2.89,-4.612 -2.661,-7.355 -0.043,-18.951 42.069,-47.394 56.975,-47.605 -1.012,1.331 -2.686,1.763 -4.098,2.506 -35.845,17.755 -76.826,66.961 -9.093,43.001 2.22,-0.914 4.661,-0.612 7.004,-0.579 1.135,2.318 1.763,4.873 1.045,7.436 -6.758,4.919 -15.322,8.74 -17.55,14.309 6.906,2.661 14.342,3.42 21.647,4.277 0.941,-22.103 15.128,-25.465 34.781,-33.41 2.068,-9.679 -2.672,-23.23 10.783,-38.797 5.934,-6.677 14.644,-9.518 22.358,-13.517 3.355,-1.461 3.265,-5.502 3.412,-8.579 -0.146,-17.595 23.105,-21.412 30.332,-24.766 6.534,-3.09 1.642,-16.824 10.783,-30.528 8.636,-11.837 26.542,-2.83 36.577,-34.512 3.321,-12.184 6.798,-30.814 19.803,-32.243 8.469,-1.245 29.19,-1.842 35.271,-22.17 3.74,-10.071 3.321,-28.63 18.366,-28.512 5.493,-0.335 10.995,-0.58 16.456,-1.38 -0.669,-2.849 -2.065,-6.628 0.694,-8.832 5.926,-5.175 13.542,-9.281 16.685,-16.913 2.277,-5.657 -3.281,-10.791 -2.049,-16.44 1.143,-3.69 4.873,-5.232 7.763,-7.273 14.995,-3.93 22.722,-6.288 24.863,-12.244 1.506,-11.389 -5.926,-21.796 15.166,-38.928 3.861,-3.355 8.416,-5.853 12.122,-9.395 -5.116,-15.568 -18.179,-24.089 -15.917,-33.434 2.204,-1.559 4.84,-2.106 7.51,-1.714 -1.094,1.012 -2.237,1.992 -3.388,2.939 7.996,14.065 13.879,10.249 17.476,28.422 4.638,-1.528 21.265,-10.66 29.941,-11.999 2.139,-1.2 4.612,-1.388 7.004,-1.698 -0.808,-0.759 -1.641,-1.494 -2.457,-2.212 0.743,-1.273 2.873,-2.71 1.428,-4.228 -6.774,-10.743 -24.207,-27.012 -14.489,-37.679 2.073,-2.4 6,-3.298 6.759,-6.726 -6.883,-13.849 -41.885,-33.066 -24.333,-58.257 11.715,-17.518 15.377,-36.801 -2.139,-48.454 -6.987,-4.334 -15.24,-5.436 -23.157,-6.889 -6.742,1.69 -13.958,1.682 -20.129,5.265 -4.429,10.661 10.183,19.331 16.627,32.659 5.177,10.251 -6.302,11.345 -11.591,16.309 -0.343,0.775 -0.694,1.551 -1.037,2.326 3.281,6.416 10.922,8.546 14.979,14.317 -0.286,1.845 -0.612,3.689 -1.045,5.518 -6.915,4.481 -19.511,1.709 -28.863,4.179 -10.399,3.023 -21.5,9.761 -18.293,13.73 6.324,7.305 19.597,4.763 15.534,13.06 -1.257,2.098 -3.918,2.441 -6,3.273 -31.254,9.845 -27.678,18.781 -27.973,27.353 -0.09,2.71 -1.918,4.816 -3.094,7.118 3.044,4.149 13.064,5.472 2.4,18.048 -12.966,10.77 -0.693,13.017 3.037,19.174 2.85,7.071 -10.041,13.622 -21.247,21.125 0.705,-5.405 5.658,-8.687 14.815,-16.929 0,-0.498 0.008,-1.477 0.016,-1.975 -4.334,-3.673 -9.918,-7.665 -9.746,-14.015 -0.367,-6.449 5.24,-10.432 8.889,-14.872 -0.008,-0.335 -0.016,-1.02 -0.024,-1.355 -2.792,-1.877 -5.812,-3.461 -8.073,-6.016 -1.069,-9.041 2.212,-6.605 4.473,-10.505 -0.039,-23.392 13.812,-25.845 21.182,-30.732 2.179,-0.661 4.791,-0.784 6.4,-2.604 -2.22,-1.886 -5.044,-3.159 -6.644,-5.689 -3.126,-3.983 -2.237,-10.073 1.241,-13.558 13.841,-14.344 40.102,-12.811 43.368,-13.011 0.008,-0.4 0.033,-1.2 0.049,-1.592 -17.689,-13.688 -11.578,-18.109 -2.106,-24.88 0.522,-0.049 1.575,-0.163 2.106,-0.22 1.486,-1.2 3.641,-2.588 2.539,-4.832 -3.771,-10.163 -12.979,-17.435 -15.909,-27.998 -2.741,-9.225 4.735,-10.783 10.309,-12.611 7.211,-4.604 42.191,-5.793 52.323,16.921 8.164,18.195 -5.083,37.646 -8.816,44.421 -13.933,25.372 49.706,45.579 21.566,63.228 -3.731,2.347 -4.608,2.414 -1.91,9.297 5.016,12.056 15.37,18.432 11.958,29.255 6.538,0.098 13.134,-2.637 19.631,-0.677 -5.322,1.796 -10.881,2.228 -16.44,2.473 -3.722,1.51 -7.844,1.396 -11.469,3.183 -21.861,6.762 -38.336,18.205 -41.042,21.721 -2.214,1.043 -20.296,12.536 -19.337,28.006 -0.345,13.848 5.362,18.861 -18.554,26.431 -33.274,10.338 12.17,11.415 -28.602,42.185 -0.847,4.11 8.034,10.892 -13.974,12.154 -12.186,0.645 -13.021,-1.072 -17.027,13.175 -3.124,14.174 -6.623,32.55 -34.43,37.467 -9.978,1.892 -11.5,-0.518 -16.366,8.097 -8.807,19.165 -4.099,39.525 -32.438,51.719 -9.612,4.142 -14.111,1.742 -17.28,29.173 -0.7,11.175 -16.014,12.113 -25.998,17.386 -9.038,5.646 -6.784,11.909 -7.608,18.268 -3.63,10.769 -18.578,9.681 -28.022,21.035 -11.518,13.091 -3.381,29.484 -9.909,37.475 -9.1,9.231 -31.015,5.183 -32.512,28.088 -1.216,6.644 0.906,13.24 0.392,19.917 -2.645,3.094 -6.783,3.151 -10.489,3.641 -4.612,2.963 -3.559,9.24 -5.453,13.738 -3.224,7.355 -7.983,14.244 -9.11,22.366 -1.831,15.251 10.78,22.349 20.847,24.341 35.191,-4.551 37.257,5.111 47.123,11.02 4.313,7.175 26.609,-0.402 32.104,-15.681 1.143,-3.698 -2.588,-5.836 -4.514,-8.318 2.286,0.89 4.506,1.943 6.824,2.759 2.302,-9.167 4.114,-18.603 8.032,-27.239 -0.22,2.073 -0.514,4.138 -0.62,6.236 1.982,-3.199 3.193,-16.049 6.889,-22.055 19.531,-31.757 -5.476,-8.261 17.468,-56.012 5.739,-11.29 8.681,-5.112 12.122,5.771 7.089,19.583 12.188,19.078 13.852,60.657 0.735,-0.424 1.755,-0.669 1.796,-1.706 2.335,-7.542 5.004,-15.019 6.391,-22.806 1.945,-16.783 -1.093,-50.817 1.143,-65.481 1.191,-10 12.087,-38.683 20.578,-43.156 12.847,-3.671 12.33,33.172 15.085,59.212 0.416,0.082 1.257,0.245 1.673,0.327 2.522,-11.036 8.228,-21.109 10.097,-32.324 2.694,-13.281 1.102,-26.929 3.045,-40.283 2.956,-23.645 9.999,-22.301 16.08,-25.027 1.739,-0.792 1.812,-2.857 2.024,-4.473 1.9,-20.658 41.845,-42.64 59.024,-57.734 13.38,-9.599 12.827,-13.489 17.076,-17.378 5.983,5.668 3.343,19.379 6.457,43.303 1.445,5.42 2.906,10.905 3.518,16.521 2.694,-0.882 2.963,-4.024 4.179,-6.195 0.702,2.645 -0.327,5.183 -1.371,7.567 -2.677,5.534 -0.947,11.828 -1.616,17.721 -1.322,-0.49 -2.906,-1.184 -2.588,-2.89 -0.873,-4.114 1.73,-8.171 0.163,-12.162 -1.29,-7.183 -3.053,-14.26 -4.792,-21.354 -1.577,-5.895 -1.267,-28.93 -4.106,-36.185 l -0.686,-0.008 c -3.004,2.906 -5.093,6.702 -8.612,9.085 -25.853,22.11 -63.364,41.926 -63.424,62.24 -0.514,5.306 -6.293,6.342 -10.473,7.501 -13.973,14.979 -2.109,44.378 -14.636,76.713 -3.29,8.31 -6.114,16.946 -6.628,25.941 -0.196,1.943 -0.163,4.808 -2.432,5.534 -10.69,1.394 -4.181,-53.244 -14.881,-71.227 -6.264,2.94 -17.952,31.158 -18.627,46.119 -0.525,68.437 4.862,43.457 -9.101,89.651 -0.865,3.494 -2.498,6.767 -5.004,9.379 -1.682,-0.971 -3.861,-2.073 -3.845,-4.318 -1.432,-47.932 -3.638,-44.308 -16.08,-77.864 -2.488,2.576 -10.522,22.076 -11.575,24.912 -1.649,3.755 1.322,7.453 0.971,11.297 -0.498,7.942 -5.289,14.636 -9.159,21.305 -5.636,10.521 -6.378,27.396 -14.105,42.16 -5.128,9.548 -2.177,46.645 -2.13,47.654 16.486,137.813 6.546,35.745 8.048,225.191 0.444,32.052 4.609,57.687 4.71,58.69 1.107,14.903 -5.494,55.479 -4.718,83.953 45.38,28.636 76.636,20.217 80.794,16.742 -1.69,-5.347 -0.906,-11.036 -1.543,-16.529 -6.289,-273.233 -0.141,-147.591 4.008,-258.209 l 1.543,0.735 c 1.393,18.944 -0.926,63.48 -2.081,72.68 -2.717,41.699 1.837,45.856 3.714,84.394 0.083,109.176 0.438,109.823 -2.155,116.734 25.126,-6.948 71.901,-30.009 139.312,-10.644 -1.223,-23.64 2.711,-91.651 2.457,-114.171 -11.419,3.788 -22.731,-8.154 -32.324,-3.877 -0.645,0.694 -1.29,1.388 -1.926,2.09 -0.041,-0.776 -0.106,-2.326 -0.147,-3.102 9.613,-10.624 22.111,5.193 34.259,-1.273 1.697,-10.977 0.117,-106.554 2.09,-131.884 -21.869,0.072 -51.77,-9.297 -59.71,-10.326 -4.481,5.093 -5.129,16.002 -31.23,15.207 -9.256,-1.094 -17.435,-6.669 -22.986,-13.991 -0.131,0.555 -0.376,1.665 -0.498,2.22 -0.971,0.62 -1.918,1.29 -2.865,1.959 -7.681,0.531 -15.321,-1.077 -22.529,-3.657 -2.766,-4.4 18.459,-4.984 23.696,-3.934 -1.58,-5.116 2.492,0.018 -16.448,-13.55 0,0 -38.471,3.873 -51.433,4.22 -0.004,1.014 17.001,260.191 1.126,284.183 -5.522,-16.194 0.368,-161.741 -2.743,-201.063 0,-1.001 -2.974,-63.867 -0.4,-82.949 -4.751,-0.482 -9.534,0.098 -14.285,-0.351 -44.914,-9.377 10.359,-31.786 14.987,-35.728 25.46,-6.735 28.068,-26.686 47.058,-24.521 14.753,1.533 28.09,14.508 33.312,15.199 13.782,1.3 36.481,-6.111 62.224,-3.004 6.857,0.865 13.387,3.812 20.39,3.543 18.268,0.468 39.09,-20.405 55.963,6.579 -2.098,-0.327 -3.853,-1.494 -5.314,-2.963 -2.383,-2.367 -5.567,-3.583 -8.301,-5.445 -4.661,-0.759 -9.542,-1.102 -14.081,0.482 -28.065,9.113 -22.891,9.044 -45.433,5.069 -14.472,-3.276 -44.621,2.15 -52.127,2.971 -24.007,2.968 -19.9,-3.386 -37.614,-11.24 -17.843,-9.085 -22.856,4.439 -33.491,11.591 -8.256,6.871 -28.477,11.354 -45.776,26.023 0.58,0.767 1.167,1.543 1.763,2.334 6.685,0.253 13.297,2.49 20.023,1.412 1.69,-1.633 0.816,-4.408 1.396,-6.506 0.612,1.959 1.061,3.967 1.437,5.991 57.889,0.531 41.569,-11.435 69.832,8.318 3.126,2.057 3.951,5.934 5.91,8.906 9.523,15.887 35.145,14.727 40.985,3.322 6.633,-13.208 17.686,-7.928 24.48,-11.55 3.404,-1.575 3.902,-5.853 6.098,-8.473 2.751,-1.379 5.404,1.592 8.122,2.081 13.857,2.827 24.996,-7.522 35.165,-4.196 6.489,8.158 35.534,13.98 47.458,5.534 3.077,-5.289 2.498,-11.705 1.453,-17.476 -5.228,-13.483 -18.56,-9.513 -30.161,-10.464 -0.22,-0.269 -0.653,-0.808 -0.865,-1.078 10.405,-0.677 27.54,-4.348 33.042,8.922 2.457,4.424 1.755,9.64 1.853,14.497 1.058,14.631 -22.265,13.921 -23.59,14.195 -1.829,1.174 -0.282,-0.845 -0.171,38.862 0,0 -2.62,73.168 -3.249,115.151 -0.121,37.995 2.258,47.218 2.261,47.327 0.021,1.004 0.708,57.883 -2.465,70.305 -6.184,5.689 -2.998,-39.714 -7.24,-79.088 -1.336,-82.143 7.752,-165.198 8.065,-191.643 -4.413,-2.407 -15.608,-0.494 -29.598,-10.66 -4.38,-1.109 -17.615,5.753 -28.316,5.657 -3.004,0.008 -5.828,-1.069 -8.685,-1.804 -2.13,3.371 -4.628,6.946 -8.652,8.146 -1.633,0.808 -4.024,0.343 -5.044,2.098 10.726,0.979 21.288,3.33 32.063,3.918 1.173,0.055 17.351,1.434 19.215,6.171 -1.029,1.771 -3.02,3.322 -2.473,5.616 3.509,32.252 6.194,177.531 2.294,208.989 -0.261,14.228 -4.375,28.178 -3.339,42.462 50.43497,25.8154 86.49284,-14.0295 133.802,-15.468 31.443,-0.428 38.494,12.241 76.737,11.958 20.72,-0.594 56.301,-20.855 89.357,-9.836 12.39,5.443 18.494,21.226 44.699,21.141 -0.098,-1.265 -0.18,-2.514 -0.245,-3.747 -0.433,0.367 -1.298,1.094 -1.73,1.453 -0.31,-3.657 2.057,-6.702 2.196,-10.252 1.024,-30.835 -2.601,-21.563 -5.698,-82.484 -2.005,-35.547 -3.332,-102.353 -3.363,-102.89 -11.252,-178.598 -14.211,-219.515 -9.289,-254.079 -2.294,1.045 -4.343,2.547 -6.62,3.583 -6.779,-0.324 -5.678,-4.415 -22.978,-29.345 -7.069,-9.632 -9.436,-21.623 -11.664,-33.1 -9.105,6.91 -26.939,78.331 -27.786,79.872 -0.841,1.755 -3.02,1.159 -4.563,1.437 -5.318,-7.747 -6.173,-42.936 -3.804,-52.282 12.864,-56.191 17.595,-44.036 11.003,-57.22 -0.302,-0.024 -0.914,-0.073 -1.216,-0.098 -2.547,9.003 -2.898,18.505 -5.208,27.582 -1.892,9.179 -18.092,31.215 -21.786,34.03 -8.963,2.912 2.299,-29.281 3.665,-57.441 3.139,-55.278 -37.767,-23.271 -36.961,-77.766 1.812,7.738 1.665,16.007 5.355,23.239 7.851,14.728 24.738,13.286 31.01,28.684 9.037,23.323 -2.047,59.316 -2.522,76.745 3.477,-3.053 15.685,-21.673 16.938,-26.561 4.376,-16.514 2.959,-34.387 10.22,-33.557 3.903,-0.674 7.305,10.243 8.146,12.391 -14.747,51.577 -18.195,53.008 -13.689,89.748 0.49,-0.016 1.477,-0.049 1.967,-0.065 2.262,-16.839 17.864,-64.219 26.055,-73.668 2.057,-2.449 6.498,-1.984 7.379,1.314 1.926,6.71 2.473,13.779 4.955,20.358 3.668,12.994 12.668,20.008 21.101,36.895 0.922,1.518 1.714,3.51 3.518,4.171 7.264,-2.962 14.243,-16.793 32.789,-16.056 19.624,-6.624 36.025,-27.211 37.026,-28.194 0.343,-2.212 0.457,-4.44 0.482,-6.661 -1.077,0.286 -2.139,0.596 -3.192,0.906 -0.057,0.424 -0.155,1.265 -0.212,1.69 -1.739,-0.033 -3.445,0.286 -5.118,0.669 1.167,-1.175 2.392,-2.294 3.681,-3.33 -1.714,-1.82 -4.032,-3.681 -3.894,-6.44 0.173,-26.542 -10.762,-21.925 -44.911,-39.45 -2.152,-3.089 -9.081,-9.548 -9.183,-20.219 -1.348,-29.648 -14.927,-27.271 -28.488,-34.324 -31.209,-17.155 -20.883,-61.137 -41.719,-72.452 -7.298,-4.492 -17.936,-2.28 -24.137,-16.758 -25.518,-52.195 -35.626,-33.97 -48.78,-48.331 -11.434,-12.846 -6.724,-33.684 -28.463,-55.8 -13.715,-13.298 -32.881,-15.408 -40.038,-29.418 -5.541,-12.595 1.085,-43.358 -14.17,-49.294 -5.534,-5.798 -29.064,-3.567 -31.573,-25.508 3.314,2.767 4.032,7.338 6.759,10.571 5.676,8 20.217,7.023 28.545,12.807 12.529,7.984 11.522,28.82 12.57,40.821 1.906,18.085 19.047,19.351 33.32,29.051 31.461,20.541 27.668,53.392 38.977,63.171 6.98,6.098 20.346,3.115 35.41,24.284 15.319,22.629 13.831,29.203 21.247,32.561 7.646,3.248 17.459,2.423 25.859,18.195 11.727,22.07 9.453,38.458 19.803,50.404 12.937,18.118 40.934,4.871 42.593,50.021 0.601,15.534 14.452,19.19 26.553,24.325 35.133,14.743 19.554,32.274 25.386,40.103 3.552,-1.535 11.023,-10.77 17.86,-9.983 8.318,-0.22 16.701,0.612 24.978,-0.139 3.992,-2.449 6.13,-6.922 9.567,-10.016 12.867,-13.233 29.037,-10.909 33.426,-12.897 6.843,-3.2 44.015,-28.979 51.784,-29.484 1.069,-10.775 3.526,-21.949 -0.139,-32.504 -1.673,-1.298 -3.322,-2.653 -5.216,-3.592 -2.392,-1.02 -3.592,-3.6 -5.959,-4.645 -22.144,-9.321 -23.483,-43.667 -50.911,-65.04 -12.432,-9.603 -30.632,-18.503 -41.344,-41.279 -12.18,-26.188 -0.074,-39.75 -20.799,-51.702 -37.813,-22.826 -23.413,-34.475 -44.535,-62.028 -4.326,2.588 -9.64,2.694 -13.819,5.469 1.012,-2.604 3.837,-3.216 6.122,-4.253 18.68,-7.858 12.743,-26.022 18.815,-37.711 5.939,-11.793 21.981,-5.352 32.675,-15.289 10.199,-8.499 -0.693,-22.894 -8.93,-28.52 -33.086,-21.073 12.199,-19.809 25.459,-39.85 8.645,-12.264 -3.127,-24.716 -2.849,-34.871 4.209,-27.78 46.693,7.314 29.402,-60.249 -7.17,-32.361 18.456,-23.43 23.051,-49.229 0.129,-1.285 -0.465,-14.907 -14.399,-20.268 -8.333,1.422 -24.325,2.586 -22.831,-5.706 -0.081,-6.517 10.248,-8.558 11.224,-21.141 -2.343,-7.004 -6.359,-14.35 -13.738,-16.954 -11.937,-3.407 -26.486,3.732 -30.316,6.906 -13.021,5.476 -43.195,36.097 -48.976,32.283 -1.894,-0.955 -1.665,-3.387 -2.057,-5.142 -0.19,-9.351 -15.902,-12.745 -28.7,-7.861 -17.232,5.924 -22.409,20.811 -25.296,34.683 -4.247,16.209 -2.316,24.577 -5.624,24.904 -3.526,-0.082 -7.191,-0.678 -10.53,0.808 -51.293,23.609 7.063,52.007 -1.094,63.138 -1.02,0.339 -17.23,6.015 -14.848,10.269 0.641,1.681 7.259,16.647 1.053,21.819 -7.412,1.363 -15.174,2.106 -21.9,5.82 -22.483,10.482 -11.427,38.278 -9.803,54.535 1.498,11.495 -9.49,6.226 -15.631,13.142 -8.588,7.169 -3.024,22.672 4.824,26.953 4.437,3.656 8.122,-0.685 17.06,1.82 1.078,3.706 -1.543,8.856 2.228,11.485 17.38,12.357 26.22,-1.564 21.762,32.234 4.905,1.525 19.485,9.718 33.459,11.615 0.898,0.677 1.796,1.363 2.702,2.057 1.984,-0.547 4.596,-0.016 5.91,-1.918 3.278,0.367 17.018,-1.72 28.341,-7.338 3.134,-1.779 6.832,-1.339 10.277,-1.053 0.082,1.543 0.172,3.094 0.253,4.653 -8.519,6.927 -28.6,7.84 -36.699,7.583 2.528,17.039 1.888,85.075 -0.147,94.679 -0.465,2.22 -0.849,4.465 -0.98,6.742 0,0 31.19,-18.666 35.14,-20.774 -3.419,-19.948 4.277,-81.508 10.032,-86.639 2.64,9.176 -4.17,82.803 -4.253,83.806 1.437,-0.033 2.881,-0.049 4.343,-0.057 2.036,7.636 -0.63,6.981 -17.46,15.95 -21.552,11.17 -32.128,16.501 -49.286,7.004 -24.586,-12.093 -29.713,-37.135 -31.891,-42.168 -0.531,1.265 -1.045,2.547 -1.543,3.828 -10.433,-7.577 -1.944,-51.446 2.008,-79.782 2.726,0.139 5.445,0.335 8.171,0.62 0.588,-7.102 2.482,-15.085 -1.755,-21.451 -7.787,-1.828 -15.868,-3.779 -22.031,-9.207 -1.428,-2.971 -1.575,-6.269 -1.11,-9.477 -8.868,-1.123 -13.307,4.757 -23.182,-7.852 -8.127,-12.994 -5.718,-27.921 14.407,-32.618 2.098,-6.408 -1.755,-12.873 -1.657,-19.354 -11.023,4.953 -45.85,14.552 -48.911,14.799 -16.657,1.843 -24.217,-4.524 -35.042,-4.155 -6.351,0.093 -19.764,11.896 -35.214,10.563 -5.11,-0.473 -9.338,-4.628 -14.636,-3.845 -9.991,1.322 -17.876,8.122 -26.365,12.93 1.411,-3.455 16.942,-17.086 27.28,-18.121 13.081,-1.688 6.446,11.912 40.715,-6.644 12.668,-6.729 24.024,3.329 41.793,1.273 3.89,-0.376 41.05,-10.907 49.425,-9.795 -7.815,-40.743 22.666,-43.471 36.071,-47.237 0.785,-17.75 -13.783,-18.983 10.758,-30.267 -1.025,-5.256 -15.447,-16.775 -19.084,-30.585 -4.515,-20.119 9.814,-27.102 23.443,-34.969 3.061,-0.775 6.13,-1.567 9.273,-1.967 4.077,-26.212 7.214,-47.868 31.5,-58.404 12.91,-5.159 32.205,-4.784 37.769,7.599 2.934,3.809 -1.667,4.116 21.517,-13.468 10.872,-8.15 21.965,-16.492 34.993,-20.884 M 754.878,384.385 c 0.975,16.112 -2.983,63.12 -2.841,66.673 18.525,34.785 22.38,33.823 45.458,46.854 -0.444,-6.31 3.843,-84.967 4.996,-99.895 -1.38,-0.139 -2.751,-0.269 -4.114,-0.375 -10.098,11.05 -34.836,-7.401 -43.499,-13.257 m 260.291,274.42 c -28.895,19.5 -35.552,23.759 -43.327,23.713 -22.606,1.018 -25.579,12.602 -34.193,18.978 -3.004,2.261 -6.979,1.379 -10.456,1.51 0.123,8.564 -4.912,39.859 -9.265,50.486 -0.694,2.743 -5.102,2.816 -5.689,0.016 -2.374,-8.425 0.874,-32.816 -0.743,-41.997 -6.706,10.006 -9.922,55.419 -10.669,68.166 -0.49,2.081 0.261,6.228 -2.547,6.326 -2.525,-6.168 -4.934,-62.259 -4.922,-66.191 -93.94,93.344 -59.207,-107.076 -39.613,446.775 0.882,10.546 2.457,21.272 0.677,31.81 5.902,-0.857 12.219,-0.01 17.713,-2.751 2.098,-1.029 3.632,-2.841 5.502,-4.188 3.665,-1.331 7.371,-2.579 11.012,-4 -3.587,-3.697 -10.138,-7.248 -4.53,-12.317 4.612,-3.828 10.84,-4.391 16.138,-6.824 -5.395,-3.963 -14.851,-6.162 -0.122,-21.664 -2.237,-0.898 -4.318,-2.13 -6.008,-3.845 -0.073,-6.318 6.359,-9.412 10.187,-13.387 2.775,-3.828 6.53,-6.702 10.342,-9.411 1.763,-1.11 0.057,-3.257 -0.204,-4.767 -1.543,-3.828 -0.229,-7.926 1.526,-11.42 -1.249,-1.11 -2.677,-2.049 -3.649,-3.404 -1.094,-4.906 1.477,-10.84 6.726,-11.901 6.016,-0.947 9.975,-6.375 12.122,-11.664 -5.362,-2.217 -8.805,-3.487 -7.469,-6.587 3.758,-4.682 12.237,-6.006 16.921,-14.758 1.992,-3.616 0.906,-8.171 3.2,-11.664 4.828,-8.593 18.994,-13.42 21.198,1.771 0.816,4.49 -0.204,9.003 -0.229,13.501 1.69,2.245 4.073,3.902 5.575,6.318 0.155,2.424 -1.853,4.44 -2.702,6.661 12.275,4.243 18.182,12.181 13.134,18.652 6.457,10.409 14.842,19.92 12.872,26.553 -1.739,2.53 -4.163,5.265 -2.596,8.579 2.685,5.959 6.897,11.24 11.762,15.591 5.579,-7.198 8.081,-5.624 17.223,-6.155 -0.966,-3.635 -2.863,-31.881 0.269,-48.666 2.748,-17.148 2.855,-40.063 3.526,-44.984 0.626,-25.444 5.139,-47.681 8.432,-72.631 1.126,-6.759 0.743,-13.664 1.682,-20.439 l 0.857,-0.808 0.931,0.245 c 3.107,19.814 -2.944,39.931 -4.579,100.172 -2.461,64.139 -3.102,18.339 -6.375,75.962 -0.302,3.861 -2.147,7.404 -2.4,11.281 13.11,-0.392 30.841,3.258 51.204,-2.938 -1.112,-6.332 -2.88,-36 7.077,-67.391 -6.114,-1.314 -12.317,-2.171 -18.456,-3.396 0.492,10.846 0.728,62.616 -3.992,72.566 -5.189,-7.126 1.169,-57.88 0.833,-73.537 -4.196,-0.023 -21.962,-4.465 -24.815,-5.714 -0.751,-1.29 1.306,-0.857 2.008,-1.102 13.91,-0.932 27.467,3.577 85.741,7.036 4.849,0.931 10.048,0.784 14.325,3.608 5.068,-35.57 6.018,-96.691 6.016,-97.699 -37.232,-0.324 -101.515,-7.768 -104.923,-17.533 0,0 36.989,7.214 106.4,10.122 1.877,0.98 3.657,2.147 5.11,3.73 -0.245,0.563 -0.726,1.698 -0.971,2.261 -0.979,0.18 -1.943,0.375 -2.898,0.579 5.15,64.747 0.9,93.405 -9.673,153.319 -1.265,6.938 -2.204,14.203 -6.122,20.26 14.836,-1.294 7.694,-6.696 35.899,-2.188 20.798,4.32 37.154,8.131 58.069,9.567 -1.116,-95.901 6.07,-209.315 9.591,-225.657 0.294,-0.335 0.865,-1.004 1.159,-1.347 0,10e-4 -7.159,218.228 -7.159,218.229 2.171,-2.237 3.575,-5.085 5.804,-7.281 9.759,-4.703 20.635,-4.922 26.023,-20.366 8.293,-23.979 19.218,-16.04 27.696,-24.651 6.897,-7.395 8.057,-17.811 10.987,-27.043 0.457,-6.269 -0.498,-12.571 -0.188,-18.856 2.562,-53.045 12.953,-105.267 14.211,-197.781 -0.474,0.204 -1.412,0.604 -1.877,0.808 -3.296,9.741 -5.17,12.4 -6.914,52.404 -0.196,2.971 0.441,6.293 -1.747,8.726 -4.475,-5.13 -5.814,-15.896 -6.024,-22.496 -0.596,0.327 -1.184,0.669 -1.747,1.02 -11.874,25.64 -10.98,26.042 -19.999,23.925 -0.817,18.25 3.531,26.957 -0.906,43.564 -3.88,15.813 -4.354,35.882 -7.134,43.523 -1.126,-0.065 -2.228,-0.131 -3.322,-0.18 -1.04,-4.119 -1.448,-61.247 -1.437,-62.248 2.122,10.081 2.677,20.415 4.049,30.61 0.245,-0.188 0.743,-0.555 0.988,-0.743 1.078,-4.898 1.657,-9.934 3.183,-14.742 3.98,-12.649 -4.427,-41.472 2.114,-45.899 2.424,-0.767 4.245,1.347 6.367,2.098 3.486,-0.978 5.482,-12.002 12.53,-23.157 7.645,-10.839 2.153,-9.956 10.252,-9.314 3.299,-30.283 9.422,-32.074 12.162,-36.928 1.004,-5.24 1.853,-10.538 3.412,-15.656 -3.575,-0.424 -6.922,-1.755 -10.285,-2.889 -32.216,-11.119 -25.53,-10.067 -35.263,-13.624 -9.273,-3.208 -18.823,-5.559 -28.431,-7.518 -71.647,-19.213 -161.811,-62.708 -218.31,-96.05 -3.57,-0.187 -5.667,0.972 -4.669,-16.676 0.629,-9.616 4.604,-18.529 6.71,-27.826 -3.711,1.176 -6.576,3.927 -9.898,5.828 m -119.183,47.507 c -0.645,13.191 1.331,26.308 1.779,39.458 0.302,0.171 0.906,0.498 1.208,0.661 1.693,-11.498 4.525,-34.407 10.922,-44.152 -5.086,-0.913 -9.787,1.34 -13.909,4.033 m 20.594,3.992 c 0.302,7.583 0.392,15.199 -0.204,22.774 0.555,0 1.673,0.008 2.228,0.008 0.223,-1.999 4.577,-24.715 6.473,-30.047 -3.436,-0.057 -6.873,-0.171 -10.277,-0.571 0.858,2.538 1.764,5.109 1.78,7.836 m -0.408,29.442 c 1.91,-1.061 1.526,-3.445 1.804,-5.273 -2.743,0.229 -1.421,3.486 -1.804,5.273 M 252.735,939.683 c -3.551,0.147 -6.832,1.706 -9.967,3.257 -2.645,1.453 -3.869,4.441 -4.906,7.118 25.226,0 20.282,1.373 30.961,1.583 0.588,-4.245 1.151,-8.489 1.608,-12.742 -5.909,0.041 -11.802,0.4 -17.696,0.784 m -24.757,19.149 c -2.865,1.641 -4.473,4.775 -5.208,7.893 -0.482,1.779 0.914,3.322 1.518,4.914 5.444,-1.543 10.693,-4.016 16.448,-4.236 9.036,-0.131 18.137,-0.743 27.125,0.563 0.22,-3.192 0.384,-6.375 0.375,-9.567 -15.255,1.919 -33.83,-3.712 -40.258,0.433 m -36.961,15.289 c -0.931,3.061 -1.363,6.245 -1.028,9.452 2.672,0.233 22.774,0.979 26.61,-1.739 4.025,-16.327 -13.766,-17.441 -25.582,-7.713 m 36.096,2.171 c -0.482,0.033 -1.445,0.098 -1.926,0.131 0.188,3.657 -1.616,6.857 -3.379,9.918 -0.539,2.612 0.049,5.33 -0.09,7.999 8.756,-8.42 36.585,-9.873 45.703,-8.636 0,-3.396 -0.008,-6.783 0,-10.162 -9.687,0.488 -36.919,-4.386 -40.308,0.75 m -37.94,11.599 c -0.188,9.387 -0.441,18.823 0.971,28.145 0.555,0.098 1.657,0.294 2.212,0.392 -0.008,0.963 -0.008,1.935 -0.016,2.93 -1.135,1.078 -1.943,2.359 -1.118,3.918 3.536,10.917 6.62,119.26 2.294,145.655 -1.902,2.906 -3.085,6.228 -5.208,9.003 -0.311,-1.828 -1.724,-31.291 -1.518,-36.642 -12.952,7.895 -32.197,-1.482 -34.34,18.668 -1.612,25.25 27.733,14.275 33.826,20.219 -0.841,0.824 -1.682,1.682 -2.481,2.571 11.395,0.253 22.798,0.041 34.193,0.114 -3.398,-43.396 1.302,-90.89 0.163,-114.318 -3.634,-41.219 2.168,-67.023 1.861,-80.761 -1.763,0.996 -3.567,2.188 -5.698,2.008 -8.392,-0.326 -16.848,-0.4 -25.141,-1.902 m 61.881,5.788 c -9.526,-0.016 -19.035,0.808 -28.398,2.547 -1.428,4.076 -0.123,5.686 0.041,24.268 21.417,-6.801 17.958,-2.831 30.373,-4.775 4.84,0.629 9.82,0.514 14.334,2.669 0.024,-8.489 0.024,-16.978 -0.008,-25.467 -5.388,1.06 -10.898,0.35 -16.342,0.758 m -69.024,28.757 c -12.146,1.429 -12.782,4.469 -10.856,13.485 1.469,8.792 11.994,10.255 14.334,13.974 -1.657,3.779 -6.661,2.441 -9.852,1.91 -6.857,-3.526 -15.925,0.065 -19.256,6.824 -2.514,6.089 0.678,13.436 6.326,16.497 11.326,5.067 13.784,1.266 24.276,5.559 -0.768,-57.63 0.976,-33.338 -1.42,-59.506 -0.571,0.016 -1.714,0.057 -2.294,0.082 -0.311,0.293 -0.948,0.881 -1.258,1.175 m 40.487,2.089 c -0.188,7.893 0.759,15.738 0.922,23.615 2.033,-0.4 4.081,-0.8 6.024,-1.543 7.204,0.081 32.798,-2.493 38.495,-0.506 -0.253,-7.191 -0.106,-14.399 -0.547,-21.582 -33.72,-0.517 3.526,-1.5 -44.894,0.016 m 722.249,20.334 c -4.326,8.376 5.183,9.849 -18.529,25.622 0.033,0.49 0.106,1.461 0.139,1.951 2.155,0.865 4.424,1.584 6.359,2.93 1.935,2.893 -3.757,14.241 -15.387,16.366 -1.975,2.286 -2.612,5.208 -2.285,8.171 8.966,2.65 0.766,5.216 1.437,12.024 0.18,2.612 1.91,4.759 2.441,7.273 -0.261,2.367 -2.963,3.216 -4.514,4.653 -4.906,3.208 -7.673,8.702 -12.579,11.893 -2.106,1.494 -4.473,4.13 -3.02,6.865 1.837,1.184 4.147,0.955 6.253,1.094 0.596,1.094 2.645,2.392 1.004,3.534 -1.006,0.673 -11.889,6.752 -10.065,13.534 2.87,4.256 9.02,3.513 7.24,9.616 -1.91,1.714 -4.547,2.261 -6.816,3.347 -4.09,0.71 -7.934,2.473 -11.175,5.061 4.253,5.13 9.891,7.66 5.836,11.428 -3.365,2.805 -15.7,2.956 -13.509,12.668 0.563,2.196 2.775,3.143 4.44,4.391 2.751,0.098 5.51,0.171 8.269,0.073 1.045,-2.457 2.31,-4.914 4.734,-6.253 0.865,0.465 1.739,0.939 2.628,1.428 0.588,2.016 0.931,4.106 1.086,6.228 1.331,1.249 2.612,2.783 4.473,3.265 3.2,-0.465 5.502,-2.947 8.277,-4.334 4.196,-0.268 2.236,11.333 7.91,11.526 6.045,-1.403 9.924,-12.09 14.75,-8.375 2.975,3.399 0.739,11.854 6.596,8.579 3.126,-1.673 5.624,-4.457 9.02,-5.608 3.934,0.539 3.673,5.73 6.783,7.306 4.369,-1.47 1.935,-8.052 9.444,-7.363 3.159,3.82 7.379,7.053 12.318,8.097 5.815,1.302 4.797,-9.536 5.085,-12.881 1.2,-0.033 2.416,-0.041 3.657,-0.033 1.445,3.126 3.314,6.049 5.485,8.742 0.433,0.024 1.298,0.073 1.739,0.098 0.947,-2.326 1.69,-4.775 3.069,-6.889 4.623,-2.422 7.871,10.035 14.497,6.326 -0.033,-3.787 -0.269,-7.64 0.735,-11.322 0.784,-0.408 1.583,-0.808 2.392,-1.2 1.673,0.775 3.714,1.559 5.502,0.612 20.642,-13.644 -3.102,-21.401 -7.942,-29.753 0.71,-2.139 1.828,-4.228 4.294,-4.571 -0.465,-3.624 -2.596,-6.644 -5.265,-9.02 -2.547,-0.759 -4.971,-2.024 -7.673,-2.049 -0.302,-1.02 -0.596,-2.024 -0.882,-3.004 1.526,-1.167 2.987,-2.424 4.114,-3.983 -1.396,-2.514 -2.89,-5.02 -5.102,-6.889 -6.419,-5.289 -17.082,-18.065 -14.587,-26.014 0.955,-2.008 3.657,-3.257 3.175,-5.804 -2.13,-8.897 -9.224,-15.403 -12.856,-23.606 -0.023,-1.73 9.258,-8.877 -11.926,-17.199 -0.073,-2.963 2.498,-4.759 3.543,-7.273 -0.849,-2.49 -3.061,-4.285 -4.481,-6.465 -0.563,1.29 -1.11,2.604 -1.649,3.918 0.091,-1.068 5.738,-29.423 -7.771,-26.782 -4.549,0.818 -8.597,3.953 -10.711,8.051 m -720.6,6.636 c 0.849,11.044 1.2,22.121 1.379,33.189 8.025,-2.536 36.787,-2.4 43.507,-0.792 0,0 -0.569,-11.355 -0.865,-30.52 -9.775,0.69 -41.627,-1.214 -44.021,-1.877 m 858.026,13.746 c -0.276,11.907 -4.371,20.194 -4.236,48.241 -0.188,5.934 -1.053,11.852 -0.767,17.811 5.869,-1.486 12.073,-0.841 17.64,1.494 1.828,-5.792 1.386,-17.958 4.702,-29.573 3.793,-9.535 3.69,-34.309 3.681,-35.312 -7.021,-0.8 -14.024,-1.698 -21.02,-2.661 m 45.017,3.436 c 0.693,20.75 -4.809,31.633 -6.506,48.494 -1.518,7.289 -0.563,15.093 -3.592,22.031 -8.405,-12.029 8.047,-55.196 7.436,-70.746 -6.579,0.253 -13.175,0.22 -19.737,-0.196 0.111,1 4.016,21.145 0.09,33.785 -2.118,6.361 -5.113,28.071 -4.775,33.206 8.032,3.934 16.962,6.228 25.949,5.077 2.079,-12.179 3.463,-29.215 3.502,-33.459 0.882,-13.721 4.71,-26.986 6.359,-40.593 -2.873,0.932 -5.771,1.797 -8.726,2.401 m -954.46,18.113 c -6.636,1.649 -13.844,4.832 -16.889,11.395 -1.159,2.432 0.865,4.424 2.4,6.049 11.339,4.814 22.303,2.707 28.733,4.245 -0.016,-8.122 -0.073,-16.244 0.024,-24.357 -4.538,1.958 -9.427,2.186 -14.268,2.668 m 53.041,1.445 c 0.302,7.624 0.204,15.264 0.098,22.896 6.176,-2.051 31.084,-4.386 38.944,-1.518 0.8,0.775 1.6,1.518 2.416,2.31 -3.34,6.092 -8.848,3.923 -26.496,3.983 -4.971,-0.073 -9.918,-1.502 -14.881,-0.727 0.31,8.677 -0.775,17.313 -0.824,25.99 4.117,-0.349 52.081,-1.848 42.968,7.012 -9.836,4.081 -20.309,0 -30.398,-0.522 -4.049,-1.714 -8.612,-0.751 -12.644,-2.375 0.465,11.175 -1.869,22.203 -1.739,33.361 1.91,-0.408 3.836,-0.759 5.787,-0.71 30.177,0.164 34.813,-1.149 41.556,4.392 2.257,-59.272 3.682,-56.696 -1.241,-92.605 -7.135,3.078 -42.538,-1.349 -43.546,-1.487 m -44.298,26.716 c -14.684,-1.118 -24.27,17.139 -14.546,19.664 4.285,1.069 8.301,3.208 12.775,3.526 2.392,0.465 4.816,0.955 6.922,2.277 -0.196,-9.412 0.335,-18.815 -0.008,-28.218 -1.797,0.751 -3.511,1.682 -5.143,2.751 m 85.046,70.411 c -2.751,0.735 -5.632,0.677 -8.44,0.996 11.336,7.657 10.955,6.763 13.607,7.248 -0.196,-3.33 -0.457,-6.653 -0.784,-9.958 -1.591,0.212 -2.987,0.988 -4.383,1.714 z"
       class="st0" /><path
       id="path3828"
       d="m 1009.479,138.648 c 4.669,-1.926 9.812,-1.11 14.66,-0.441 20.21,5.571 36.099,27.806 17.411,51.286 -6.92,8.101 0.99,14.677 6.44,21.786 7.704,9.366 21.004,23.256 7.958,41.05 -7.112,9.18 9.519,9.222 17.876,16.448 9.348,7.3 4.134,16.92 -3.281,25.99 -3.638,3.604 9.299,6.68 17.052,15.656 3.534,3.902 6.146,8.652 7.33,13.803 0.767,2.906 0.849,6.236 3.061,8.53 5.175,5.81 23.653,22.255 -0.433,28.602 1.229,12.521 31.236,38.982 27.843,51.686 -0.522,2.653 -3.077,4 -4.971,5.591 -2.177,11.918 1.746,36.75 6.497,47.719 1.599,4.505 5.259,2.291 17.925,12.219 6.759,11.388 -5.139,15.978 -2.294,24.308 3.599,8.332 33.504,26.502 16.236,40.201 -1.087,10.588 11.88,26.417 -4.914,31.247 -4.993,17.415 23.264,11.661 26.316,41.254 0.051,4.055 20.836,16.305 28.888,27.231 1.934,2.457 1.526,5.722 1.347,8.644 -11.391,8.772 -20.13,3.834 -37.197,3.502 3.24,-5.715 18.716,0.867 32.038,-6.302 -1.13,-7.334 -23.159,-18.611 -30.079,-27.598 -2.7,-3.649 -1.082,-9.183 -5.795,-16.358 -8.71,-11.608 -27.793,-10.827 -22.847,-34.879 1.086,-1.094 2.196,-2.163 3.339,-3.208 1.673,-0.318 5.02,0.155 4.783,-2.432 -0.544,-4.607 -8.111,-25.058 -1.551,-27.712 1.102,-0.824 3.673,-1.265 2.808,-3.183 -2.432,-6.375 -7.134,-11.656 -12.187,-16.129 -16.213,-15.082 -8.194,-23.061 -4.914,-30.773 1.95,-3.434 -11.248,-9.16 -13.215,-10.048 -9.559,-4.53 -12.669,-34.731 -13.321,-45.213 -0.331,-18.304 2.609,-17.754 6.342,-20.962 -6.051,-17.573 -37.844,-45.268 -25.206,-54.265 3.028,-1.42 6.375,-2.171 9.199,-4.065 -0.964,-7.438 -4.281,-7.724 -11.428,-17.158 -3.943,-4.813 0.957,-12.254 -12.383,-23.688 -5.007,-4.538 -21.163,-10.383 -13.322,-19.729 0.891,-1.204 11.026,-12.024 5.404,-17.231 -8.408,-7.098 -27.51,-9.366 -21.721,-21.019 2.269,-4.555 6.563,-8.326 6.791,-13.73 2.283,-15.015 -15.617,-25.767 -20.554,-38.462 -4.265,-12.445 9.025,-15.318 10.75,-29.271 3.909,-18.027 -17.754,-31.563 -23.729,-31.018 -10.993,1.463 -27.715,1.369 -29.892,8.155 -1.557,9.813 8.335,42.247 -4.065,67.832 -14.519,28.095 -26.433,36.114 -2.751,37.45 1.102,1.151 2.808,2.163 2.498,4.032 0.618,17.259 -11.306,11.587 -13.215,16.284 -6.218,13.829 2.957,23.782 -7.404,29.443 -2.628,0.335 -5.91,0.278 -7.583,2.71 -3.322,5.036 -2.824,11.403 -4.31,17.011 -6.061,9.91 -35.668,18.334 -42.478,29.353 -1.422,5.331 16.828,9.854 21.631,11.477 8.987,3.487 1.361,11.345 0.114,14.407 -2.887,5.4 8.868,14.081 10.66,15.778 2.816,2.775 2.171,8.114 -1.412,9.934 -10.163,5.52 -29.858,7.214 -32.251,13.681 0.531,4.008 4.465,6.212 6.922,9.052 1.268,5.591 -5.188,11.144 -11.248,11.403 2.449,-2.963 5.755,-5.273 7.297,-8.914 -2.922,-2.653 -6.587,-4.898 -7.967,-8.791 -4.934,-13.168 21.544,-16.738 32.161,-21.892 -8.36,-6.929 -17.613,-15.244 -9.754,-27.59 -61.911,-18.153 6.827,-41.815 19.158,-50.943 2.808,-22.915 9.313,-22.174 17.248,-24.088 0.447,-13.069 -1.407,-22.399 7.836,-30.12 8.676,-1.812 6.844,-0.733 8.008,-6.155 -32.577,-3.278 -4.528,-30.777 4.465,-51.074 1.668,-3.979 5.029,-20.136 2.979,-41.556 -0.612,-18.59 -1.14,-21.503 5.836,-25.329 4.705,-1.78 9.978,-1.274 14.565,-3.429 z"
       class="st0" /><path
       id="path3830"
       d="m 354.907,251.44 c 2,5.404 -0.008,11.011 -0.947,16.382 -0.8,3.975 3.249,6.089 6.065,7.828 9.698,5.115 12.522,15.691 11.909,27.361 -0.114,3.698 -2.098,6.93 -3.461,10.277 13.005,2.98 9.469,7.416 17.158,11.828 7.975,10.707 6.213,19.716 3.045,23.892 4.494,8.774 6.641,12.85 4.881,28.178 -0.887,3.129 4.734,1.405 11.705,9.265 5.44,7.901 7.37,21.642 0.653,31.834 2.588,2.13 5.289,4.122 7.689,6.473 0.131,2.751 0.057,5.559 0.816,8.236 1.339,0.457 2.628,1.069 3.681,2.049 -2.122,0.155 -4.245,0.171 -6.367,0.229 -2.563,-2.637 -2.024,-6.685 -4.408,-9.436 -3.143,-1.739 -6.228,-3.575 -9.216,-5.559 -0.261,-0.58 -0.767,-1.73 -1.029,-2.302 0.563,-2.114 2.024,-3.657 4.089,-4.326 3.126,-3.741 3.303,-23.195 -7.706,-25.125 -0.215,6.046 0.764,4.81 -5.461,13.15 -12.612,7.455 -21.39,4.185 -31.557,3.012 -24.281,-1.661 -49.166,15 -39.932,-7.73 3.428,-3.453 5.363,-8.252 9.542,-10.946 -1.461,5.975 -5.518,10.946 -6.84,16.987 2.245,-0.212 4.506,-0.375 6.71,-0.906 38.025,-10.329 35.815,-1.148 53.033,-4.857 18.388,-8.721 4.513,-11.538 5.942,-16.799 2.846,-27.695 -4.25,-23.18 -5.216,-32.602 -0.455,-3.751 9.948,-9.08 -2.563,-19.868 -2.433,-2.024 -3.853,-5.069 -6.497,-6.816 -3.298,-0.694 -6.742,0.22 -10.024,-0.547 -2.628,-1.004 -3.33,-4.596 -2.481,-7.012 1.943,-2.4 4.857,-4.065 5.877,-7.151 3.192,-7.95 1.494,-18.162 -5.045,-23.966 -3.951,-2.628 -8.767,-4.938 -10.456,-9.746 -1.918,-5.24 1.347,-10.334 1.608,-15.542 0.327,-5.02 -2.881,-9.216 -4.604,-13.705 -11.624,-21.527 -17.72,-28.444 -32.308,-21.827 -2.702,1.2 -3.934,4.089 -5.306,6.514 -5.573,11.147 -19.685,33.654 -21.558,37.295 -7.138,12.482 -3.933,29.275 -4.212,43.197 -0.264,18.853 1.216,19.474 6.767,20.921 10.875,3.052 28.229,-1.22 34.659,-10.595 0.629,-1.061 1.714,-1.616 2.914,-1.845 2.071,11.743 -16.214,21.75 -34.52,21.207 -20.773,-1.591 -16.85,-14.73 -18.137,-21.272 -44.896,20.006 -17.813,13.506 -41.932,54.461 5.22,8.853 20.697,10.18 22.88,16.236 -9.767,0.298 -14.764,0.517 -28.871,-9.142 -7.63,-13.236 2.808,-10.005 9.297,-33.557 1.845,-5.959 2.832,-12.603 7.346,-17.264 7.532,-8.227 26.569,-11.606 31.475,-13.738 -0.196,-8.791 0.008,-17.591 -0.049,-26.382 2.286,-32.233 25.024,-40.18 32.953,-62.803 3.201,-8.729 28.219,-24.368 48.009,26.554 z"
       class="st0" /><path
       id="path3832"
       d="m 434.705,279.348 c 0.147,2.041 0.106,4.114 0.449,6.147 2.659,4.602 27.239,1.436 29.5,12.587 0.743,1.861 -0.775,3.404 -1.992,4.579 -7.64,-4.849 -16.774,-5.893 -25.19,-8.742 -7.773,-2.846 -9.63,-8.48 -2.767,-14.571 z"
       class="st0" /><path
       id="path3834"
       d="m 1009.896,281.421 c 0.106,7.069 -2.008,14.881 2.204,21.207 7.583,5.216 17.493,5.298 24.757,11.093 3.224,2.318 5.714,6.375 10.089,6.489 4.612,1.303 5.099,-2.273 15.019,-2.677 0.025,1.698 0.702,4 -1.208,4.955 -18.773,13.63 -25.218,-0.816 -30.945,-4.106 -9.841,-5.755 -24.898,-6.497 -25.035,-20.382 0,-6.594 2.843,-15.415 5.119,-16.579 z"
       class="st0" /><path
       id="path3836"
       d="m 441.864,323.704 c 5.158,15.599 -10.023,15.075 20.676,18.456 2.277,0.122 4.547,2.049 4.204,4.489 -6.192,3.588 -23.912,2.999 -29.043,-3.404 -3.825,-5.826 2.617,-18.335 4.163,-19.541 z"
       class="st0" /><path
       id="path3838"
       d="m 974.119,324.724 c 0.588,6.302 -0.784,13.599 3.681,18.831 10.584,2.718 29.22,-3.125 39.377,2.286 3.943,1.796 6.824,5.2 10.652,7.183 7.009,4.019 10.443,3.502 29.745,7.673 0.212,0.759 0.433,1.518 0.661,2.286 -7.87,3.693 -26.837,3.197 -36.748,-4.359 -3.567,-2.53 -6.604,-6.114 -11.036,-7.118 -10.914,-3.102 -22.48,0.604 -33.467,-1.992 -2.286,-2.204 -5.061,-4.334 -5.722,-7.632 -0.845,-5.012 0.165,-13.861 2.857,-17.158 z"
       class="st0" /><path
       id="path3840"
       d="m 454.875,359.954 c 3.543,3.363 6.228,7.738 7.689,12.391 -0.278,0.596 -0.833,1.788 -1.11,2.383 -9.106,1.922 -10.703,-7.51 -6.579,-14.774 z"
       class="st0" /><path
       id="path3842"
       d="m 1010.287,385.691 c 2.669,2.359 2.816,7.355 6.881,8.105 5.001,0.434 11.855,-1.165 14.26,3.045 0.457,1.959 -1.804,2.979 -2.677,4.44 26.84,1.82 62.547,21.243 67.016,4.351 1.118,-3.151 -0.237,-6.408 -0.318,-9.599 0.522,0.204 1.551,0.612 2.073,0.808 13.046,32.458 -34.624,22.151 -67.766,10.767 -2.196,-0.678 -4.024,-2.408 -4.359,-4.734 1.143,-0.49 2.4,-0.963 3.192,-2.008 -15.545,1.735 -23.392,0.602 -18.302,-15.175 z"
       class="st0" /><path
       id="path3844"
       d="m 248.074,395.274 c -4.948,3.998 -27.582,14.133 -35.41,31.59 -10.049,21.279 11.107,40.799 29.72,35.108 14.454,-4.216 19.414,-14.855 26.912,-19.778 -21.33,-5.073 -12.484,-35.396 -7.746,-40.626 0.835,6.396 -7.486,28.759 7.926,33.851 9.844,3.624 20.896,4.808 29.369,11.509 2.881,2.114 4.889,5.861 8.718,6.375 13.892,1.677 30.359,-8.649 38.177,-9.885 1.633,-0.555 2.179,1.061 2.881,2.155 -13.759,11.578 -40.666,23.423 -51.539,10.489 -6.546,-7.689 -16.84,-10.016 -26.047,-12.93 -5.982,16.976 -17.56,21.375 -21.753,26.063 -3.494,1.657 -7.526,1.951 -10.75,4.253 -16.625,7.508 -48.469,41.93 -46.829,56.012 16.145,1.035 31.675,9.09 20.782,20.513 -2.49,3.453 -6.514,5.861 -7.934,9.999 1.933,3.598 10.507,6.07 14.374,6.783 6.773,3.675 14.586,0.392 16.325,9.265 4.555,-0.784 9.224,0 13.738,-1.077 1.975,-0.433 3.902,0.571 5.812,0.963 -2.55,2.635 -18.408,7.423 -25.394,5.959 -1.804,-1.069 -1.592,-3.461 -1.747,-5.265 -9.501,-1.918 -19.427,-3.192 -27.778,-8.522 -10.617,-13.946 5.579,-18.855 8.081,-26.284 -5.738,-3.339 -12.35,-4.326 -18.774,-5.526 -4.253,-2.016 -6.089,-7.085 -4.718,-11.493 8.06,-28.221 47.28,-50.911 48.992,-53.506 -41.775,-5.533 -43.475,-61.898 14.612,-75.995 z"
       class="st0" /><path
       id="path3846"
       d="m 990.044,401.78 c 2,-0.8 3.983,0.457 5.918,0.914 0,0.596 0,1.78 0,2.375 -4.261,3.061 -9.118,5.485 -14.317,6.359 -2.947,0.571 -5.077,-1.812 -6.84,-3.755 -2.677,-1.314 -6.253,-0.988 -8.318,-3.265 10.917,-4.575 6.926,1.164 23.557,-2.628 z"
       class="st0" /><path
       id="path3848"
       d="m 537.228,414.187 c 0.604,-1.388 1.869,-2.22 3.249,-2.743 -0.035,7.113 -24.314,51.016 -28.643,56.706 -13.816,36.857 -4.44,68.555 -18.472,81.512 0.98,-3.853 2.726,-7.461 3.567,-11.346 1.788,-8.963 1.42,-18.129 2.237,-27.19 -0.502,-42.078 18.005,-57.643 38.062,-96.939 z"
       class="st0" /><path
       id="path3850"
       d="m 541.596,411.779 c 0.335,0.237 1.012,0.702 1.347,0.931 8.858,48.897 53.15,40.724 58.91,44.201 -1.347,2.669 -4.416,3.902 -7.159,4.62 -6.927,26.662 -5.882,1.662 -6.473,39.752 -1.682,11.452 -0.041,23.076 -1.567,34.553 0.947,-0.433 2.13,-0.759 2.237,-1.992 17.785,-55.784 16.892,-57.141 20.529,-56.208 1.2,0.677 1.445,2.139 1.943,3.322 3.113,9.863 16.438,26.15 21.46,36.152 3.977,8.103 -8.466,43.444 -3.379,53.082 0.865,-3.241 1.592,-6.53 3.306,-9.452 5.492,-14.93 7.387,-27.783 15.044,-24.349 3.129,7 2.765,14.198 -4.775,64.779 0.882,-0.424 1.902,-0.8 2.147,-1.877 11.434,-26.332 8.893,-13.731 14.978,-50.045 1.624,-0.416 3.926,-0.58 4.498,1.477 15.842,37.419 10.778,41.328 35.344,51.604 -5.926,-0.457 -11.681,-1.967 -16.88,-4.889 -2.908,-4.487 -10.667,-12.584 -17.729,-34.014 -0.326,-1.388 -1.518,-2.163 -2.604,-2.898 -7.029,33.506 -10.193,27.819 -14.766,44.413 -1.208,3.788 -1.91,7.975 -4.579,11.069 -0.563,0.188 -1.682,0.547 -2.245,0.735 -3.697,-13.722 2.079,-49.647 3.755,-71.121 -0.457,-0.049 -1.363,-0.139 -1.82,-0.18 -3.273,6.865 -4.187,14.628 -7.95,21.256 -1.371,6.097 -2.024,12.562 -5.469,17.958 -1.869,0.18 -4.204,-0.131 -4.506,-2.367 -4.971,-80.697 22.151,-34.839 -16.595,-96.091 0,0 -19.262,56.603 -19.264,56.608 -1.143,2.375 -1.551,6.693 -5.126,6.098 -1.866,-8.065 1.75,-40.257 1.551,-55.106 1.837,-27.493 2.976,-17.759 8.065,-31.483 -4.857,-0.073 -9.787,0.596 -14.546,-0.62 -23.856,-4.489 -40.886,-24.072 -37.682,-49.918 z"
       class="st0" /><path
       id="path3852"
       d="m 1017.854,428.945 c 7.395,2.286 12.734,8.628 20.023,11.207 6.955,2.008 14.44,0.571 21.223,3.388 0.629,0.767 1.249,1.535 1.902,2.318 -6.215,4.326 -20.779,5.013 -28.333,-0.424 -3.987,-2.937 -12.961,-12.11 -14.815,-16.489 z"
       class="st0" /><path
       id="path3854"
       d="m 941.827,442.577 c -0.503,3.925 -7.491,23.032 0.694,27.378 9.854,1.971 12.116,-5.068 16.391,-6.938 2.613,-0.883 9.846,0.179 6.661,9.64 0.286,0.751 0.579,1.502 0.882,2.269 12.517,2.478 18.723,-0.514 25.867,1.984 7.632,2.041 14.881,5.567 22.831,6.351 6.367,1.828 13.085,0.049 19.517,1.371 1.053,0.188 1.126,1.453 1.641,2.228 -21.482,6.203 -23.331,4.747 -45.319,-2.065 -6.533,-2.186 -36.624,2.403 -33.704,-11.273 -4.514,1.322 -9.134,4.587 -13.958,2.841 -13.38,-2.404 -9.837,-24.567 -1.503,-33.786 z"
       class="st0" /><path
       id="path3856"
       d="m 1117.618,494.54 c -1.559,4.816 -5.787,7.714 -8.791,11.509 -13.108,9.484 -24.63,15.127 -30.234,0.196 -6.293,-0.327 -11.371,4.816 -17.705,4.114 -7.148,1.003 -9.235,-8.723 -7.224,-15.844 2.155,3.502 2.196,8.089 5.387,10.971 3.755,-0.163 7.281,-1.828 10.26,-4.049 3.877,-0.939 7.861,-3.706 11.917,-1.926 3.641,0.996 4.106,5.191 6.089,7.828 7.814,1.978 22.701,-15.82 30.301,-12.799 z"
       class="st0" /><path
       id="path3858"
       d="m 255.494,498.058 c 1.208,-0.114 2.416,-0.22 3.624,-0.318 -9.328,10.593 -10.17,12.061 -4.514,20.35 5.142,3.869 11.877,7.493 18.407,5.028 3.347,-1.404 3.6,-5.395 4.449,-8.424 0.571,-2.873 4.008,-4.465 6.644,-3.322 3.779,1.477 6.995,4.261 10.987,5.24 12.931,2.713 21.112,-3.928 32.128,-6.253 0.253,0.571 0.767,1.73 1.02,2.31 -3.371,2.547 -5.991,6.269 -10.138,7.632 -12.966,5.493 -17.368,7.637 -33.9,0.522 -7.728,14.737 -22.609,10.316 -30.602,4.073 -16.527,-14.828 0.795,-25.295 1.895,-26.838 z"
       class="st0" /><path
       id="path3860"
       d="m 1122.85,533.092 c 0.767,0 2.302,0 3.077,0 -0.416,7.159 -5.551,14.399 -12.701,16.203 -8.099,2.442 -44.284,14.755 -55.49,4.367 22.462,-2.187 10.359,2.441 51.229,-11.713 11.676,-4.027 6.514,-4.005 13.885,-8.857 z"
       class="st0" /><path
       id="path3862"
       d="m 194.111,570.934 c -4.841,3.679 -13.18,5.293 -28.757,12.872 0.09,0.424 0.261,1.273 0.351,1.698 5.926,1.6 12.979,2.775 16.733,8.163 2.669,4.294 0.596,9.534 -2.367,13.077 3.281,7.42 7.044,14.611 10.807,21.802 2.478,4.062 0.333,3.824 17.737,8.775 4.302,0.604 8.677,0.098 13.011,0.294 -0.531,0.996 -1.045,2.008 -1.608,2.996 -9.987,4.628 -7.842,4.042 -29.255,-0.833 -5.416,-0.714 -12.461,-17.343 -17.37,-28.414 -4.009,-10.634 2.136,-7.602 2.89,-12.97 1.682,-5.959 -21.924,-4.881 -22.455,-12.946 1.004,-2.824 4,-3.975 6.163,-5.746 0,-10e-4 22.51,-6.39 34.12,-8.768 z"
       class="st0" /><path
       id="path3864"
       d="m 1090.232,573.596 c -0.098,2.22 0.465,4.685 -0.767,6.701 -9.125,16.898 -61.176,24.423 -59.375,9.191 2.547,1.02 4.914,2.914 7.787,2.898 28.639,-0.429 48.337,-17.594 52.355,-18.79 z"
       class="st0" /><path
       id="path3866"
       d="m 1129.691,592.215 c 1.029,-0.506 2.065,-1.029 3.118,-1.535 0.857,0.628 1.91,1.086 2.596,1.975 -0.903,3.766 -0.521,17.429 -18.26,17.729 -13.175,-0.039 -15.889,-2.373 -22.888,-7.983 -0.269,-1.077 -0.539,-2.155 -0.775,-3.216 1.002,0.287 18.991,8.533 29.369,1.682 3.395,-1.812 5.199,-5.347 6.84,-8.652 z"
       class="st0" /><path
       id="path3868"
       d="m 1140.939,624.832 c 1.42,2.759 0.057,5.632 -1.943,7.64 -12.121,15.068 -31.222,10.054 -48.299,6.889 -6.403,21.594 -42.354,14.454 -44.821,6.457 7.755,2.204 16.04,4.481 24.055,2.171 5.844,-0.792 12.293,-4.098 13.844,-10.252 0.637,-2.326 1.094,-5.453 3.975,-5.942 8.489,0.18 16.766,3.036 25.312,2.62 13.888,1.199 19.96,-4.839 27.877,-9.583 z"
       class="st0" /><path
       id="path3870"
       d="m 444.664,631.803 c 8.062,-1.344 28.982,2.058 36.691,2.498 3.583,0.163 7.028,1.51 9.811,3.763 11.951,-1.017 17.454,1.148 67.62,2.432 2.473,0.131 4.922,-0.727 7.395,-0.351 5.624,1.29 11.444,0.498 17.158,0.694 2.579,0.326 4.522,-1.592 6.84,-2.31 1.001,-0.264 37.284,-5.782 46.911,-1.877 2.253,2.139 -0.816,4.334 -0.808,6.661 -3.056,38.359 5.946,59.643 1.559,82.01 -0.865,0.677 -1.796,1.38 -1.992,2.539 1.192,1.077 3.232,1.633 3.379,3.518 0.286,1.616 -0.351,3.657 -2.041,4.236 -4.342,2.35 -36.115,1.705 -42.854,0.914 -2.806,-0.092 -21.889,5.813 -34.708,4.979 -12.783,0.8 -25.533,-0.743 -38.283,-1.257 -1.002,-0.075 -27.333,-2.791 -31.443,-1.877 -13.452,2.109 -39.833,-4.033 -41.964,-4.816 -0.514,1.233 -1.029,2.473 -1.551,3.714 -0.62,-0.041 -1.869,-0.131 -2.498,-0.171 -0.082,-0.653 -0.237,-1.951 -0.318,-2.596 -4.318,0.857 -10.195,0.008 -12.619,4.596 -0.082,0.694 -0.237,2.082 -0.31,2.767 -2.558,-2.006 -0.737,-7.992 12.44,-7.934 -4.486,-25.993 -7.463,-73.761 1.143,-98.254 -0.449,-0.718 -0.89,-1.437 -1.314,-2.139 0.58,-0.588 1.168,-1.167 1.756,-1.739 m 1.706,4.939 c 0.114,3.551 -0.359,7.069 -0.767,10.595 -1.566,26.002 4.318,54.441 2.824,84.035 9.663,-2.169 12.275,-0.899 31.239,-0.678 3.885,-0.024 7.591,1.233 11.411,1.739 0.906,0.996 1.804,2.008 2.677,3.053 1.004,0.033 2.008,0.049 3.028,0.057 18.757,-2.731 86.658,-0.807 93.014,-4.171 -2.762,-9.615 -3.461,-31.204 -3.428,-38.381 -12.161,5.832 -30.202,4.358 -39.907,4.253 2.299,42.863 -9.353,35.092 -7.861,31.908 1.624,-6.775 -0.4,-13.664 -0.204,-20.496 -0.082,-3.73 0.31,-7.501 -0.367,-11.183 -1.337,-1.803 -4.426,-0.417 -13.493,-1.788 -9.852,-1.747 -19.843,-3.134 -29.222,-6.775 1.216,11.681 0.531,23.459 0.694,35.181 0.155,2.743 -0.547,5.542 -2.31,7.697 -8.885,3.713 -6.975,-79.654 -5.877,-89.226 -13.637,0.182 -27.883,-4.049 -41.451,-5.82 m 45.531,4.906 c 0.767,13.101 2.481,26.137 2.579,39.279 -0.147,1.763 0.898,3.159 1.967,4.44 9.066,0.671 16.208,3.481 41.034,4.147 0.294,-6.718 0.065,-13.436 -0.637,-20.113 -0.114,-32.719 2.192,-19.163 -24.455,-25.068 -6.946,0.049 -13.582,-2.285 -20.488,-2.685 m 98.124,3.926 c 9.635,75.341 3.915,82.766 3.273,87.349 30.379,-4.428 24.578,-2.94 41.099,-5.175 -5.943,-15.849 -7.535,-66.683 -1.241,-85.292 -1.812,0.033 -3.632,0.122 -5.396,0.547 -6.242,1.442 -28.315,-0.874 -33.908,-0.514 -1.028,1.322 -2.35,2.326 -3.827,3.085 m -49.131,1.812 c 2.579,16.832 4.073,38.367 5.216,42.389 3.947,-0.515 36.059,-2.361 40.307,0.327 -0.31,-27.3 1.069,-43.466 1.069,-43.466 -15.28,3.901 -31.092,1.411 -46.592,0.75 z"
       class="st0" /><path
       id="path3872"
       d="m 1165.215,660.022 c -0.095,10.064 -3.521,10.701 -6.718,15.827 -3.445,1.543 -6.579,3.869 -10.367,4.538 -15.229,4.214 -34.245,-3.968 -39.189,-15.64 5.762,1.914 21.045,14.371 37.916,7.591 11.617,-4.178 12.149,-12.877 18.358,-12.316 z"
       class="st0" /><path
       id="path3874"
       d="m 1036.938,684.795 c 12.397,8.814 8.841,6.07 23.941,3.453 20.595,-2.43 21.891,9.241 31.761,8.685 4.734,0.531 10.154,-1.502 14.334,1.502 2.62,1.832 -2.896,7.305 -20.129,5.934 -6.089,-0.718 -9.444,-6.538 -14.946,-8.465 -7.723,-3.509 -17.489,1.389 -23.231,0.261 -5.836,-0.758 -10.685,-5.639 -11.73,-11.37 z"
       class="st0" /><path
       id="path3876"
       d="m 1027.249,704.549 c -5.295,4.852 -9.752,2.228 -19.076,19.95 -4.489,8.587 -8.628,17.525 -15.036,24.921 -17.832,21.945 -32.461,18.107 -71.309,42.503 -11.069,7.469 -22.145,15.289 -30.634,25.729 -3.788,31.454 3.89,24.982 11.991,48.715 3.73,14.179 2.114,28.961 2.702,43.433 1.637,-2.374 11.217,-79.952 22.602,-83.847 11.249,4.393 10.349,22.587 18.643,34.961 11.188,10.723 18.179,2.257 28.871,-0.008 2.735,4.186 -0.052,8.971 0.784,21.86 3.061,-0.816 2,-4.947 4.057,-6.832 1.306,-2.179 4.375,-2.237 6.334,-0.922 6.763,9.631 7.505,38.853 10.383,41.336 0,0 11.289,-46.86 11.289,-46.862 18.349,-6.579 23.159,57.563 86.924,31.565 14.736,-5.795 22.955,-13.126 32.749,-9.583 10.489,4.47 8.982,21.59 9.191,24.815 2.62,-1.2 2.792,-4.465 4.041,-6.734 9.35,-19.228 20.355,-19.975 26.365,-14.374 15.91,14.599 5.12,53.741 4.743,58.322 -1.956,14.463 1.41,41.241 2.465,52.225 0.465,-0.049 1.396,-0.147 1.861,-0.196 4.981,-45.432 2.535,-34.584 4.791,-56.029 2.147,-13.966 7.836,-27.027 10.791,-40.805 0.392,-3.29 0.71,-6.604 1.665,-9.787 0.539,-0.204 1.6,-0.604 2.13,-0.808 4.628,1.233 9.534,0.245 14.154,1.673 7.395,1.102 14.791,3.657 22.333,2.261 1.837,-0.726 3.796,-0.979 5.763,-0.531 -1.523,1.153 -7.761,3.725 -14.219,3.363 -0.237,0.171 -0.694,0.506 -0.922,0.677 -3.722,-2.612 -8.407,-1.224 -12.456,-2.718 -3.477,-1.216 -7.224,-0.531 -10.799,-1.069 -1.273,0.016 -3.534,-0.702 -3.641,1.224 -1.234,20.892 -12.734,31.31 -11.852,65.375 -0.429,9.948 -1.828,45.349 -8.089,49.466 -1.053,-0.571 -2.065,-1.11 -3.094,-1.641 -4.397,-8.37 -8.801,-54.225 -4.628,-70.917 3.078,-12.324 4.651,-29.188 -0.857,-41.27 -1.437,-1.616 -2.416,-3.6 -3.983,-5.061 -15.659,-7.685 -22.172,28.882 -29.965,40.193 -1.575,-0.31 -3.951,-0.604 -3.755,-2.767 0.473,-7.91 2.465,-15.729 2.106,-23.696 0.824,-43.565 -37.983,12.657 -82.467,-3.959 -20.331,-7.948 -28.228,-28.513 -37.059,-34.716 -1.037,0.514 -0.979,1.747 -1.241,2.718 -2.914,14.521 -8.53,28.471 -9.828,43.303 -0.356,15.833 -0.615,20.667 -4.13,20.023 -3.87,0.191 -2.79,-14.678 -12.44,-59.955 -0.522,0.033 -1.559,0.098 -2.073,0.13 -6.526,18.072 -5.632,46.634 -11.33,43.744 -3.564,-2.863 1.67,-49.618 1.396,-58.159 -3.641,0.702 -6.938,2.481 -10.522,3.347 -26.533,4.429 -21.751,-25.542 -33.059,-38.822 -0.547,-0.024 -1.633,-0.073 -2.18,-0.098 -7.549,14.887 -14.838,56.323 -19.484,77.66 -0.767,1.257 -1.6,2.498 -2.13,3.885 -0.196,2.196 -0.204,4.481 -1.445,6.424 -0.735,-1.167 -1.445,-2.4 -1.396,-3.804 -0.299,-6.464 0.807,-26.035 -3.469,-46.658 -1.86,-9.119 -8.586,-26.891 -9.583,-24.79 -2.94,44.115 2.293,216.399 8.661,285.938 -0.857,-0.596 -1.714,-1.2 -2.555,-1.763 -21.378,-58.463 -10.161,-300.866 -10.244,-301.937 0.424,0.016 1.273,0.057 1.698,0.082 -0.016,-0.98 -0.016,-1.943 -0.008,-2.898 -0.547,-0.106 -1.649,-0.327 -2.196,-0.433 0.196,-3.73 2.449,-6.832 4.138,-10.007 16.988,-31.384 73.15,-48.46 76.027,-49.931 37.58,-16.191 36.39,-57.296 61.506,-57.434 z"
       class="st0" /><path
       id="path3878"
       d="m 156.857,711.022 c -1.404,1.249 -2.849,2.481 -4.032,3.959 -4.249,0.879 -19.855,10.693 -24.251,19.566 4.387,1.696 15.829,1.07 19.084,0.384 13.069,-1.774 11.331,-0.315 13.885,1.388 -4.257,3.696 -22.141,9.461 -34.308,6.644 -2.277,-1.322 -4.212,-3.118 -5.983,-5.044 -1.794,-16.141 29.312,-27.318 35.605,-26.897 z"
       class="st0" /><path
       id="path3880"
       d="m 1068.74,735.534 c 2.156,29.072 -72.486,42.014 -78.623,40.111 10.165,-12.412 62.259,-5.262 78.623,-40.111 z"
       class="st0" /><path
       id="path3882"
       d="m 657.881,737.232 c 4.88,5.461 1.405,27.371 -8.146,33.108 -7.225,5.01 -20.322,2.372 -28.839,1.355 -3.143,0.726 -7.412,0.408 -8.995,3.861 -2.93,4.081 -1.012,9.346 -2.155,13.926 -9.269,34.084 -3.82,48.188 -10.897,49.906 -4.385,-0.992 -3.807,-7.132 -5.567,-49.131 -0.713,-6.02 5.668,-8.525 5.551,-19.623 -1.992,0.139 -4.31,0.147 -5.396,2.155 -7.175,9.379 -10.473,21.027 -13.117,32.349 -1.053,2.849 -5.836,2.204 -5.926,-0.898 -0.561,-23.257 1.009,-28.048 -1.649,-29.573 -17.637,12.322 -31.071,10.94 -51.923,-0.122 -6.929,22.127 -8.12,33.403 -12.603,39.434 -1.11,-0.033 -2.22,-0.041 -3.314,-0.049 -3.209,-8.179 0.588,-24.978 -1.575,-36.365 -4.119,6.915 -9.983,40.026 -11.354,46.339 -1.175,-0.008 -2.343,-0.016 -3.502,-0.024 -0.918,-3.969 -4.349,-39.168 -2.326,-48.111 -13.404,-2.146 -9.794,-4.863 -17.174,-7.787 -2.171,0.457 -4.228,1.739 -6.514,1.347 -3.053,-0.449 -6.138,-1.739 -9.232,-0.849 -15.688,4.321 -14.772,39.024 -19.321,35.793 -0.759,-4.334 0.253,-8.767 -0.392,-13.085 -1.673,-5.02 -4.318,-9.64 -6.571,-14.407 -1.371,-2.579 0.392,-5.306 0.873,-7.885 3.074,-8.855 -0.645,-15.041 2.914,-20.113 -0.329,42.555 -6.373,13.694 4.155,39.001 0.49,-0.024 1.469,-0.073 1.959,-0.098 3.037,-13.469 11.161,-26.65 24.986,-21.647 2.873,1.355 5.045,-2.514 7.91,-1.494 4.383,1.298 7.102,5.567 11.517,6.84 3.379,1.281 7.012,0.457 10.514,0.702 1.551,0.082 2.31,2.032 1.486,3.29 -0.89,2.163 -4.473,2.22 -4.31,4.947 -0.359,3.022 0.228,19.513 1.755,24.961 2.024,-1.739 1.681,-4.669 2.367,-7.012 2,-8.171 3.608,-16.562 7.044,-24.268 0.931,-3.11 5.959,-3.779 6.685,-0.22 1.779,8.146 1.502,16.586 1.265,24.88 3.319,-0.766 0.833,-1.479 9.354,-28.806 1.151,-0.375 2.375,-1.282 3.592,-0.514 8.067,3.51 27.438,18.221 48.209,1.91 1.526,-1.167 3.265,-2.09 5.167,-2.481 4.765,1.053 4.132,4.525 5.036,18.57 1.714,-1.257 2.114,-3.453 3.004,-5.249 8.934,-19.95 14.307,-17.023 17.933,-17.191 7.557,7.044 1.256,16.378 -1.869,23.623 -0.482,8.269 0.555,16.57 0.449,24.855 7.373,-2.034 6.8,-22.932 6.832,-23.949 -2.19,-34.057 22.338,-15.766 41.589,-21.558 1.379,-1.143 2.89,-2.13 4.147,-3.412 5.19,-8.008 6.953,-17.811 6.374,-27.231 z"
       class="st0" /><path
       id="path3884"
       d="m 428.657,742.048 c 0.465,-0.041 1.379,-0.114 1.837,-0.155 -0.106,2.498 0.596,5.477 -1.494,7.371 0.073,-2.416 0.049,-4.832 -0.343,-7.216 z"
       class="st0" /><path
       id="path3886"
       d="m 1138.123,771.156 c -0.155,3.69 -3.616,5.714 -5.061,8.84 -12.254,25.064 -16.352,20.245 -22.317,21.003 -1.902,2.547 -2.857,5.649 -4.726,8.22 0.351,-3.73 -0.212,-8.122 2.759,-10.971 2.212,-2.302 5.91,0.49 8.057,-1.739 9.067,-7.809 11.603,-25.941 21.288,-25.353 z"
       class="st0" /><path
       id="path3888"
       d="m 1085.972,773.197 c 0.22,2.653 -1.951,4.285 -3.526,6.049 -7.488,7.783 -13.717,25.164 -29.818,30.863 -13.191,3.5 -16.451,-2.826 -40.454,4.073 -9.691,6.881 -2.032,21.393 -30.161,21.46 5.567,-1.992 11.746,-2.792 16.619,-6.367 9.496,-8.454 -1.903,-20.048 31.957,-22.692 8.204,-0.514 17.305,1.624 24.619,-3.2 14.494,-9.406 20.594,-29.087 30.764,-30.186 z"
       class="st0" /><path
       id="path3890"
       d="m 212.681,805.652 c 0.122,0.629 0.359,1.869 0.473,2.498 -17.353,30.66 -50.873,44.821 -70.011,40.642 2.726,-2.457 6.62,-2.081 9.852,-3.412 2.408,-0.971 4.906,-1.69 7.42,-2.326 32.914,-12.704 39.067,-35.894 52.266,-37.402 z"
       class="st0" /><path
       id="path3892"
       d="m 1247.241,808.892 c -1.257,3.281 -4.122,5.396 -6.481,7.836 -16.445,16.848 -40.428,16.794 -53.98,47.596 -0.18,-0.155 -0.531,-0.473 -0.71,-0.629 1.44,-18.13 17.567,-27.856 29.018,-35.01 24.704,-15.078 26.078,-19.136 32.153,-19.793 z"
       class="st0" /><path
       id="path3894"
       d="m 1147.069,824.744 c -1.918,6.399 -6.726,11.354 -11.73,15.55 -25.54,20.631 -46.17,-6.19 -48.739,24.578 -1.804,-2.155 -1.29,-5.175 -1.281,-7.755 0.553,-17.063 19.832,-10.528 29.296,-12.93 8.53,-0.996 15.811,-5.975 22.284,-11.281 0.196,-0.4 0.571,-1.2 0.767,-1.592 3.075,-2.049 4.496,-5.895 9.403,-6.57 z"
       class="st0" /><path
       id="path3896"
       d="m 1274.978,837.69 c 3.314,-2.245 7.804,-2.122 11.248,-0.18 -0.735,3.183 -4.996,2.163 -7.379,2.906 -1.861,1.706 -2.726,4.179 -4.163,6.204 -7.588,11.668 -19.058,8.134 -20.496,8.106 -1.665,0.106 -3.028,1.151 -4.473,1.845 -0.098,0.49 -0.302,1.469 -0.408,1.967 -4.399,4.726 -3.607,18.428 -5.322,24.414 -2.565,-14.674 -0.65,-29.333 5.551,-31.483 4.914,-2.245 10.758,0.359 15.542,-2.473 4.7,-2.36 6.586,-7.575 9.9,-11.306 z"
       class="st0" /><path
       id="path3898"
       d="m 257.608,869.059 c 2.555,-2.424 4.343,-5.624 7.346,-7.55 3.949,7.699 -2.911,17.842 -18.823,17.86 -19.916,1.633 -52.189,-6.042 -57.979,-2.449 -1.731,0.302 -3.477,0.555 -5.224,0.702 7.956,-13.271 49.546,-1.159 74.68,-8.563 z"
       class="st0" /><path
       id="path3900"
       d="m 783.3,902.183 c 4.049,2.302 6.848,6.391 6.897,11.142 8.295,4.91 38.145,2.242 31.728,47.662 -4.464,-4.464 -2.279,-12.949 -7.738,-24.717 -6.487,-15.336 -19.324,-10.203 -27.239,-15.623 -3.853,-1.935 -4.416,-6.628 -5.722,-10.269 -18.33,-4.652 -44.235,12.682 -54.494,8.228 -46.28,-19.047 -47.959,3.766 -64.24,3.608 -5.453,0.098 -9.64,-3.82 -14.481,-5.681 -10.936,-4.371 -28.675,-6.11 -40.324,0.898 -4.04,2.87 -2.621,15.463 -12.864,18.529 -12.137,4.73 -23.022,-2.839 -26.855,23.99 -0.424,2.22 0.498,5.004 -1.241,6.799 -1.526,-9.518 -0.612,-20.439 6.057,-27.933 8.533,-7.061 19.975,-3.606 24.121,-10.032 5.292,-6.258 -0.819,-15.409 17.362,-20.505 6.252,-2.062 24.95,-3.157 38.332,3.249 3.959,1.575 7.771,4.987 12.326,3.592 9.676,-3.48 23.29,-20.623 59.653,-5.722 2.824,0.939 5.698,2.849 8.783,1.788 5.069,-1.339 10.326,-2.359 14.954,-4.93 20.853,-4.605 19.906,-6.886 34.985,-4.073 z"
       class="st0" /><path
       id="path3902"
       d="m 1224.378,906.346 c 2.996,2.656 21.859,22.303 24.815,33.467 1.11,3.29 1.2,6.775 1.592,10.203 0.335,0.008 0.988,0.016 1.314,0.016 1.755,-8.522 2.359,-17.231 2.922,-25.892 0.375,-5.347 -0.588,-10.799 0.775,-16.04 1.543,1.379 1.665,3.51 2.073,5.42 0.563,0.327 1.143,0.669 1.739,1.029 0.522,3.69 0.457,7.42 0.122,11.126 -0.302,-0.465 -0.906,-1.388 -1.208,-1.853 -0.792,14.864 -3.404,29.581 -7.159,43.956 -0.678,1.004 -1.584,1.216 -2.735,0.653 -1.227,-23.963 3.47,-24.908 -12.236,-46.731 -3.787,-5.289 -8.317,-10.007 -12.014,-15.354 z"
       class="st0" /><path
       id="path3904"
       d="m 726.259,952.392 c 8.06,0.184 30.243,4.638 41.54,5.91 15.496,2.597 43.65,-1.45 56.265,4.677 -0.71,2.361 -2.203,2.669 -14.701,4.081 -0.039,1.001 5.894,101.968 -0.792,121.052 1.771,0.139 3.739,-0.31 5.412,0.457 8.372,13.403 3.895,21.144 3.388,30.275 -1.814,3.952 -4.101,17.961 -13.664,35.785 -1.853,0.833 -3.649,-1.004 -3.445,-2.816 -0.523,-17.442 0.769,-17.255 -11.256,-11.779 -2.726,0 -5.363,-0.661 -7.901,-1.584 -2.564,19.032 1.776,34.199 -5.085,37.385 -8.519,1.15 -9.294,-25.825 -11.028,-38.144 -3.852,2.033 -3.928,18.387 -8.685,28.447 -1.526,-0.588 -4.065,-0.694 -4.081,-2.841 -1.053,-9.028 2.032,-18.84 -2.318,-27.296 -7.55,-7.89 -18.811,3.614 -36.014,-6.13 -4.228,9.02 -4.098,19.28 -7.134,28.643 -1.216,-0.057 -2.416,-0.098 -3.608,-0.131 -1.438,-5.298 -0.109,-19.729 -0.947,-30.455 -4.069,2.149 -5.015,27.414 -9.51,28.333 -5.795,-0.456 -1.629,-14.573 -4.196,-26.414 -3.094,-0.163 -5.526,1.992 -8.252,3.085 -15.356,7.643 -27.504,-4.339 -30.504,-5.844 -6.25,14.242 -3.959,31.424 -8.579,34.087 -2.637,-1.02 -2.473,-4.424 -2.979,-6.726 -0.31,-7.15 -1.641,-14.195 -2.016,-21.329 -0.424,0.041 -1.282,0.122 -1.706,0.155 -2.85,26.278 -5.318,30.449 -8.13,36.422 -0.971,0.343 -1.886,0.922 -2.922,0.988 -2.202,-2.276 -1.708,-26.041 -1.706,-27.043 0.547,-4.506 1.747,-8.905 2.269,-13.411 -0.898,-0.416 -1.567,-1.053 -1.992,-1.918 -7.42,4.114 -16.146,5.689 -24.553,4.767 0.007,4.159 -3.991,27.074 -7.616,36.438 -1.069,2.53 -5.379,3.012 -6.212,0.065 -2.434,-8.807 0.036,-23.239 -1.771,-28.512 -1.918,-7.159 -10.285,-9.828 -12.636,-16.766 -3.273,-8.661 1.249,-17.525 4.138,-25.598 -4.636,-13.773 -3.251,-58.153 -2.808,-68.468 1.223,-23.854 -1.037,-56.837 -1.037,-56.837 11.46,9.68 10.412,105.468 6.073,123.387 6.114,-3.224 12.815,-6.049 19.884,-5.387 -1.219,-34.299 7.383,-56.692 4.824,-123.395 -8.428,3.418 -6.112,6.722 -27.761,2.939 -1.951,-0.375 -4.049,-0.384 -5.755,-1.486 7.893,-0.441 15.811,3.004 23.639,0.808 3.706,-0.939 6.449,-3.983 10.081,-5.004 3.526,1.42 1.926,5.967 3.102,8.832 1.837,4.351 2.547,9.028 3.657,13.591 1.371,0.677 1.004,-1.616 1.265,-2.294 0.535,-7.935 1.906,-21.569 7.485,-24.325 1.701,1.458 4.976,2.265 5.836,19.435 1.175,8.456 1.486,17.003 1.584,25.533 1.86,-0.471 1.493,1.146 8.538,-41.63 0.547,-0.196 1.641,-0.596 2.188,-0.792 -3.083,32.618 2.704,-5.02 -7.493,58.698 1.002,0.113 49.429,4.523 69.652,5.028 0.539,-6.742 0.8,-13.517 2.481,-20.105 -0.963,0.637 -1.91,1.29 -2.849,1.951 -0.408,-0.269 -1.224,-0.816 -1.633,-1.094 -0.609,-12.151 6.819,-40.375 -0.612,-44.617 -4.247,0.88 3.019,5.48 -17.289,4.914 -24.695,-0.607 -28.113,-7.146 -32.985,-3.706 -3.249,1.453 -4.726,5.11 -8.032,6.448 4.652,-18.732 15.346,-12.232 28.7,-11.338 7.616,1.175 15.427,-1.004 22.953,1.012 2.261,-0.351 4.44,-1.233 6.783,-1.175 -0.073,1.02 -0.131,2.057 -0.18,3.11 10.368,4.735 1.545,33.576 5.657,34.104 4.489,-9.991 4.547,-21.158 5.559,-31.875 0.269,-2.767 -0.449,-6.196 1.828,-8.285 4.751,-3.187 5.7,7.943 10.775,30.569 0.767,3.363 0.563,6.832 0.604,10.269 0.547,0.008 1.649,0.041 2.196,0.049 1.554,-5.162 1.714,-29.955 6.017,-45.179 m 1.861,1.796 c -3.832,59.619 -1.828,52.769 -10.783,72.713 15.687,-0.921 37.383,-4.338 55.318,-3.526 -0.04,-31.883 -4.045,-14.177 1.02,-55.931 -0.547,-0.971 -1.518,-1.6 -2.612,-1.633 -10.132,-1.549 -33.124,-8.587 -42.943,-11.623 m 47.834,12.382 c 0.184,49.171 16.502,113.331 7.24,119.958 -4.555,1.688 -9.823,-57.078 -9.738,-60.6 -8.603,3.031 -28.63,2.007 -49.67,5.926 -7.902,0.016 -15.803,0.473 -23.696,0.114 -0.112,10.278 -1.681,33.703 -1.837,58.714 10.512,-0.855 26.717,-8.441 43.303,-6.179 8.303,0.564 34.268,8.495 42.397,6.612 6.839,-1.602 16.109,-3.943 21.59,-3.241 -5.287,-26.406 -0.343,-90.013 0.996,-120.758 -10.179,0.279 -20.464,0.801 -30.585,-0.546 m -67.432,2.857 c -1.175,11.052 -2.212,22.472 -7.526,32.463 -1.388,1.992 0.751,4.057 0.408,6.195 -0.792,6.424 -1.216,12.889 -1.151,19.37 8.502,-0.024 11.016,0.423 10.922,-1.404 1.622,-29.708 5.168,-16.175 -0.784,-51.31 -0.498,-1.82 -0.392,-3.959 -1.869,-5.314 m -94.116,3.796 c -1.584,9.958 -2.424,20.023 -3.828,30.014 -0.751,6.098 -3.265,11.836 -3.616,17.999 3.779,0 7.567,-0.016 11.354,0.033 0.196,-16.04 -0.743,-32.055 -1.779,-48.045 -0.531,-0.001 -1.6,-0.001 -2.131,-0.001 m 103.642,26.055 c -0.033,2.237 -0.049,4.473 0.016,6.726 2.718,-0.849 1.575,-4.604 2.318,-6.783 -0.587,0.016 -1.755,0.041 -2.334,0.057 m -111.061,23.125 c 0.136,6.597 -1.354,40.603 -5.714,72.313 11.701,1.56 25.016,-13.578 37.532,-12.979 12.857,0.392 29.548,14.095 55.433,9.599 -1.903,-14.339 0.209,-45.545 1.739,-59.351 -46.952,-2.588 -53.661,-5.87 -69.979,-6.669 -0.8,3.485 -1.004,7.273 -3.159,10.277 -1.265,-0.122 -2.522,-0.212 -3.771,-0.286 -1.233,-3.681 -0.751,-7.575 -0.694,-11.362 -3.706,-1.093 -7.584,-1.101 -11.387,-1.542 m -6.163,75.031 c -0.849,1.673 -1.779,3.404 -3.559,4.253 -4.1,-6.624 4.2,-12.777 -21.835,-4.481 -11.177,30.904 2.482,28.199 8.799,39.099 3.69,5.836 2.057,13.02 2.588,19.525 0.473,0 1.412,0 1.878,0 0.442,-3.474 3.42,-16.687 6.75,-25.133 0.424,-0.18 1.265,-0.555 1.681,-0.743 0.049,0.579 0.147,1.747 0.196,2.326 1.245,0 14.711,-0.258 20.872,-3.42 2.604,-1.298 4.955,-3.322 7.991,-3.51 0.23,8.089 -5.224,21.793 -0.931,39.083 4.82,-4.017 5.227,-37.602 8.424,-41.752 5.662,-3.288 5.283,14.328 7.191,22.129 0.204,-0.286 0.612,-0.873 0.816,-1.159 1.021,-7.156 3.042,-22.069 9.885,-20.26 9.935,7.19 18.904,11.441 29.598,4.587 2.898,-1.494 6.359,-4.081 9.599,-1.902 2.628,3.477 1.967,8.195 3.036,12.236 4.217,-11.093 2.619,-24.405 11.158,-20.839 1.339,5.224 1.657,10.62 1.771,15.991 2.726,-2.22 2.228,-6.84 5.575,-8.473 3.469,-1.477 5.591,2.432 8.497,3.485 13.08,4.826 30.082,-9.18 35.597,11.085 0.392,0 1.167,0.016 1.559,0.016 2.425,-6.238 0.699,-7.689 7.404,-11.999 7.184,5.096 4.066,19.013 8.375,36.863 4.021,-1.379 -0.935,-20.325 4.604,-32.422 1.298,0.065 2.612,0.147 3.934,0.253 2.677,3.616 7.599,2.539 11.06,0.759 2.457,-1.331 5.33,-0.857 8.008,-0.865 1.437,2.179 2.408,4.612 3.004,7.167 0.343,0.065 1.037,0.212 1.379,0.286 0.315,-1.251 16.804,-34.583 7.436,-47.931 -10.226,-3.978 -27.625,9.052 -53.172,1.779 -37.649,-10.737 -42.324,2.288 -77.055,3.004 -23.2,0.324 -33.157,-12.884 -49.719,-10.334 -9.339,2.455 -22.1,13.719 -32.394,11.297 z"
       class="st0" /><path
       id="path3906"
       d="m 924.588,954.147 c 3.559,0.335 6.979,-0.963 10.53,-0.906 14.84,0.107 45.457,5.922 50.6,5.959 -2.67,12.231 -0.838,53.602 -3.502,62.069 -2.935,-6.98 -4.576,-41.819 -1.371,-57.204 -7.395,2.589 -23.875,-0.424 -27.818,-1.502 0,0 2.685,26.683 2.685,26.684 14.176,-0.686 17.086,0.13 19.435,1.73 -0.049,0.588 -0.155,1.755 -0.204,2.343 -3.216,0.09 -6.408,0.4 -9.559,1.004 -3.208,0.547 -6.408,-0.539 -9.607,-0.073 1.167,6.971 0.31,14.072 0.571,21.109 7.289,-0.955 14.758,-1.102 22.015,0.229 0.555,1.159 1.11,2.31 1.706,3.485 -5.711,7.452 -50.94,1.993 -53.972,2.188 -5.993,-16.217 -2.171,-62.991 -1.509,-67.115 m 3.191,2.865 c 1.633,11.158 2.686,22.382 2.824,33.663 6.579,-1.175 13.264,-1.469 19.941,-1.347 -0.09,-9.028 0.49,-18.023 0.873,-27.027 -7.892,-1.722 -15.753,-3.559 -23.638,-5.289 m 3.29,35.671 c 0.849,7.485 0.988,15.093 -0.245,22.553 -0.212,0.971 0.065,1.918 0.237,2.906 2.726,-0.245 5.436,-0.694 8.138,-1.208 4.294,-0.833 8.693,-0.58 13.036,-1.086 -1.061,-7.395 -0.939,-14.889 -1.608,-22.317 -6.547,0.139 -13.028,-0.913 -19.558,-0.848 z"
       class="st0" /><path
       id="path3908"
       d="m 416.658,976.676 c 16.895,-0.284 46.909,-1.237 57.326,0.971 0.132,1.286 -1.366,51.877 -1.396,52.584 0.098,6.742 -1.51,13.33 -1.943,20.047 2.033,0.212 4.171,0.686 4.865,2.914 -10.911,3.492 -64.549,0.325 -75.839,-1.192 4.356,-1.914 24,-1.999 25.002,-1.975 -0.958,-5.966 -3.751,-9.448 -1.445,-30.716 -9.493,0.049 -19.011,0.327 -28.471,-0.669 0.214,28.774 0.457,28.729 -1.73,31.606 -6.815,-11.957 -1.361,-67.008 -1.126,-72.109 8.195,-1.233 16.488,-1.11 24.757,-1.461 m -23.656,2.93 c 1.975,12.481 1.453,25.174 1.788,37.777 6.144,-1.348 27.283,-2.37 29.002,-2.424 l 0.416,-0.22 c 6.104,-27.32 4.352,-27.269 5.461,-34.022 0,-10e-4 -36.573,-1.128 -36.667,-1.111 m 69.53,1.894 c -10.285,-0.041 -20.57,-0.351 -30.847,-0.531 1.814,10.821 -2.184,28.635 -2.677,33.736 11.384,0.238 30.26,-3.088 37.385,0.163 0.555,0.571 1.102,1.167 1.657,1.771 0.779,-12.11 3.518,-36.267 3.518,-36.267 -3.077,-0.08 -5.983,1.079 -9.036,1.128 m -33.949,37.614 c -1.812,10.097 -0.792,20.415 -2.016,30.569 13.338,0.539 26.692,-0.531 40.013,0.139 -0.286,-10.922 0.547,-21.811 1.616,-32.667 -11.951,2.998 -10.46,1.471 -39.613,1.959 z"
       class="st0" /><path
       id="path3910"
       d="m 1067.736,999.695 c 2.557,-4.65 10.719,-8.843 18.007,-0.514 5.26,0.473 2.446,-5.399 16.546,-1.567 8.272,11.687 0.751,20.269 -10.163,30.414 -2.881,2.261 -5.338,5.134 -8.579,6.873 -8.204,-8.969 -21.408,-24.55 -15.811,-35.206 m 14.905,30.952 c 0.506,0.473 1.486,1.486 2.179,0.735 10.655,-9.048 27.102,-24.768 15.027,-32.006 -2.114,-1.535 -4.873,-0.816 -7.273,-0.988 -2.636,1.771 -4.522,4.343 -6.31,6.914 -1.584,-2.792 -2.547,-6.375 -5.6,-7.934 -6.945,-3.143 -23.943,3.299 1.977,33.279 z"
       class="st0" /><path
       id="path3912"
       d="m 1042.62,1058.784 c 0.269,-0.016 0.808,-0.057 1.078,-0.073 0.196,0.139 0.596,0.408 0.792,0.539 0.279,34.829 -7.434,71.283 -10.407,74.533 -3.597,-9.525 3.349,-31.384 6.049,-53.719 1.296,-7.036 1.067,-14.268 2.488,-21.28 z"
       class="st0" /><path
       id="path3914"
       d="m 955.475,1075.575 c 0.686,0.506 1.379,1.02 2.09,1.559 0.286,3.249 1.339,6.987 -1.004,9.779 -1.363,2.367 -4.489,1.012 -6.081,-0.384 -3.943,-0.629 -6.065,3.053 -8.938,4.93 -4.565,3.032 -9.388,-1.844 -10.922,-6.775 0.188,-0.114 0.579,-0.343 0.767,-0.457 2.424,1.559 4,4.677 6.906,5.314 3.29,-2.073 5.363,-5.844 9.183,-7.126 2.098,-0.547 4.302,-0.229 6.457,-0.253 0.326,-2.245 0.775,-4.465 1.542,-6.587 z"
       class="st0" /><path
       id="path3916"
       d="m 498.709,1096.308 c 0.645,2.334 -2.155,4.351 -4.098,3.037 -3.348,-2.388 3.136,-10.271 4.098,-3.037 z"
       class="st0" /><path
       id="path3918"
       d="m 947.174,1102.258 c 2.604,3.053 4.873,6.481 8.22,8.816 4.106,0.645 7.477,-1.763 10.881,-3.592 3.661,-2.176 5.485,5.751 12.726,5.967 0.114,-1.673 0.229,-3.339 0.4,-4.987 4.212,1.249 3.91,6.873 0.735,9.151 -1.894,-0.049 -3.779,-0.057 -5.657,-0.041 -2.506,-1.6 -4.661,-3.632 -6.889,-5.559 -3.069,-0.073 -5.583,2.735 -8.775,2.408 -6.793,0.971 -11.233,-6.228 -11.641,-12.163 z"
       class="st0" /><path
       id="path3920"
       d="m 927.567,1119.612 c 3.845,0.261 7.73,-0.196 11.558,0.327 3.428,0.971 6.555,2.792 9.942,3.926 3.518,1.216 7.689,-0.016 10.726,2.628 -1.837,1.037 -3.575,2.669 -5.82,2.571 -5.853,0.326 -10.513,-3.918 -16.015,-5.142 -3.567,-1.094 -7.918,-1.11 -10.391,-4.31 z"
       class="st0" /><path
       id="path3922"
       d="m 986.232,1132.321 c 5.19,2.405 4.154,3.818 2.514,7.722 -1.681,0.743 -3.314,1.575 -4.914,2.465 -4.061,9.795 -10.406,3.926 -13.828,1.91 -1.583,2.09 -2.4,5.485 -5.444,5.779 -4.775,0.931 -8.595,-2.555 -12.391,-4.8 -1.755,-0.857 -2.661,-2.588 -3.379,-4.285 5.298,1.69 9.738,7.044 15.713,5.599 1.739,-1.869 1.567,-4.661 2.71,-6.816 4.008,-1.641 6.506,3.861 10.375,3.787 3.435,-2.687 -1.399,-4.321 8.832,-6.848 -0.074,-1.509 -0.155,-3.035 -0.188,-4.513 z"
       class="st0" /><path
       id="path3924"
       d="m 916.637,1142.884 c 2.276,8.232 10.273,12.41 13.656,12.211 2.188,-0.514 3.6,-2.547 5.665,-3.339 2.473,0.631 6.396,13.747 19.501,13.166 2.465,-1.616 4.832,-3.371 7.33,-4.938 0.155,3.151 -1.78,6.073 -4.343,7.755 -9.997,3.108 -18.124,-2.573 -23.451,-10.832 -10.79,5.396 -21.658,-8.23 -18.358,-14.023 z"
       class="st0" /><path
       id="path3926"
       d="m 1002.018,1158.654 c 2.981,2.545 -0.473,13.293 -6.906,16.57 -1.975,1.175 -4.342,0.4 -6.481,0.776 -5.901,3.787 -13.22,12.49 -23.77,1.583 2.253,0.065 4.342,1.233 6.636,1.363 4.759,2.979 9.395,-1.763 13.028,-4.457 0.514,-1.224 0.473,-3.077 1.967,-3.567 2.204,0.082 4.4,0.441 6.62,0.612 2.767,-3.102 6.146,-6.391 6.457,-10.775 0.801,-0.717 1.617,-1.427 2.449,-2.105 z"
       class="st0" /><path
       id="path3928"
       d="m 900.034,1176.073 c 2.784,3.117 4.489,8.754 15.566,3.102 1.469,-0.424 1.935,1.249 2.62,2.171 2.945,5.593 10.479,5.801 15.974,2.938 2.351,-1.902 2.334,-5.673 5.322,-6.963 2.081,18.87 -21.02,14.062 -24.586,6.481 -8.699,1.721 -10.234,0.444 -15.003,-3.526 0.026,-1.411 0.058,-2.823 0.107,-4.203 z"
       class="st0" /><path
       id="path3930"
       d="m 1006.133,1181.526 c 4.028,-1.514 2.86,9.739 -3.33,10.709 -5.698,1.518 -12.448,-2.204 -17.403,2.041 -4.587,0.057 -9.681,0.531 -13.705,-2.041 12.772,0.623 10.525,0.754 14.317,-2.865 7.778,-2.603 14.551,0.251 18.195,-3.543 0.807,-1.363 1.224,-2.905 1.926,-4.301 z"
       class="st0" /><path
       id="path3932"
       d="m 946.741,1189.738 c 2.188,-0.49 4.449,-0.718 6.596,-1.461 0.873,0.596 1.812,1.143 2.571,1.951 0.049,2.326 -2.547,4.081 -4.604,2.759 -1.567,-0.801 -5.608,-0.752 -4.563,-3.249 z"
       class="st0" /><path
       id="path3934"
       d="m 1008.565,1196.806 c 1.665,-1.779 1.559,-5.355 4.457,-5.583 1.796,3.086 0.539,6.669 -1.412,9.33 -3.722,2.212 -8.105,2.563 -12.293,1.763 2.449,-2.922 7.379,-1.91 9.248,-5.51 z"
       class="st0" /><path
       id="path3936"
       d="m 902.467,1195.5 c 1.535,1.412 2.522,3.894 4.889,4.057 2.277,0.531 3.592,-2 5.616,-2.522 3.534,1.241 5.934,4.792 9.82,5.297 3.461,1.004 5.126,-4.196 8.669,-2.816 0,4.408 -5.11,8.163 -9.371,7.069 -3.502,-0.677 -5.869,-3.665 -9.101,-4.84 -2.041,0.384 -3.934,1.298 -5.967,1.673 -0.906,-0.735 -1.877,-1.38 -2.849,-1.959 -1.363,-1.714 -2.082,-3.779 -1.706,-5.959 z"
       class="st0" /><path
       id="path22242"
       d="m 320.78,1213.39 c 0,0 -15.29113,51.0836 -21.1745,113.1818 -1.66829,17.6085 -2.58014,36.1026 -2.17242,54.5688 6.34675,70.3054 72.26428,111.3864 72.26428,111.3864 29.64754,19.6823 38.80655,54.2036 38.91154,95.2824"
       style="fill:none;stroke:grey;stroke-width:5.8499999;stroke-linecap:butt;stroke-linejoin:miter;stroke-miterlimit:4;stroke-dasharray:none;stroke-opacity:1"
       class="st0" /><path
       id="path22242-9"
       d="m 535.926,1204.997 c 0,0 -15.29113,51.0836 -21.1745,113.1818 -1.66829,17.6085 -2.58014,36.1026 -2.17242,54.5688 6.34675,70.3054 72.26428,111.3864 72.26428,111.3864 29.64754,19.6823 38.80655,54.2036 38.91154,95.2824"
       style="fill:none;stroke:grey;stroke-width:5.8499999;stroke-linecap:butt;stroke-linejoin:miter;stroke-miterlimit:4;stroke-dasharray:none;stroke-opacity:1"
       class="st0" /></g></svg>