<?xml version="1.0" encoding="utf-8"?>

<!DOCTYPE svg PUBLIC "-//W3C//DTD SVG 1.1//EN" "http://www.w3.org/Graphics/SVG/1.1/DTD/svg11.dtd">
<svg version="1.1" id="Layer_1" xmlns="http://www.w3.org/2000/svg" xmlns:xlink="http://www.w3.org/1999/xlink" x="0px" y="0px"
	 viewBox="0 0 1402 1692.914" style="enable-background:new 0 0 1402 1692.914;" xml:space="preserve">
<style type="text/css">
	.st0{enable-background:new    ;}
</style>
<g>
	<path class="st0" d="M909.699,48.532c8.329-2.601,19.998-3.681,27.149,1.404c9.693,6.839,20.064,22.384,9.346,36.259
		c-1.224,1.51-2.318,3.134-3.012,4.955c5.363,0.065,10.914-1.249,16.154,0.359c4.514,2.457,9.232,5.159,12.097,9.575
		c18.243,24.835-9.228,43.842-16.856,50.6c-5.777,12.878,9.179,30.268,1.673,58.877c-7.241,9.14-5.191,6.9-16.244,10.987
		c-4.996,1.812-11.093,1.771-14.938,5.91c-3.089,6.071,9.883,18.138,3.591,34.61c-5.476,14.554-20.819,20.279-35.973,26.969
		c-1.2,0.784-3.298,1.38-3.208,3.126c2.786,2.977,15.987,8.854,20.823,20.162c5.287,9.982,3.639,20.578-7.714,26.888
		c-13.363,7.246-26.018,1.719-29.508,12.611c-2.841,7.861-2.432,16.791-6.914,24.096c-1.445,2.808-4.147,4.579-6.057,7.004
		c23.881,28.007,7.707,32.465,43.262,56.233c8.775,5.71,16.426,5.558,19.901,26.765c1.437,8.889,2.465,18.023,6.253,26.308
		c9.845,23.596,32.076,32.218,46.764,45.507c1.339,1.029,2.579,2.579,4.449,2.547c3.779,0.196,7.632,0.261,11.395-0.318
		c6.804-1.602,4.044-14.279,23.043-7.787c13.182,4.239,11.559,6.365,26.839,1.102c1.543,0.204,2.873,1.126,4.302,1.755
		c-0.498,1.298-0.939,2.743-2.188,3.534c-18.731,13.537-26.661-0.112-37.989-1.126c-3.388-0.375-4.392,3.624-6.653,5.314
		c-4.024,3.787-9.852,2.539-14.831,2.751c0,0,9.183,12.624,16.562,27.745c3.502,6.906,6.946,14.236,13.183,19.133
		c2.824,4.432,9.51,4.008,11.705,8.979c10.888,6.909,11.77,12.54,8.505,35.548c-0.726,2.922-1.616,5.828-1.535,8.881
		c0.024,1.633-1.902,2.514-1.845,4.212c-2.022,16.923-6.987,46.07-6.987,46.07c101.959,47.031,28.843,22.939,151.711,19.754
		c9.314-2.127,8.674,0.875,26.578-5.077c1.543-1.298,3.812-2.269,4.22-4.449c1.28-10.732-13.751-16.64-14.97-21.639
		c-8.009-26.071-20.785-15.084-24.047-26.749c1.208,1.175,2.139,2.759,3.73,3.485c4.769,1.412,17.807,2.241,23.402,17.721
		c2.912,8.315,14.538,10.185,18.121,22.243c8.948,25.114-52.702,21.264-68.983,23.982c-8.646,0.875-34.598,5.556-41.532,5.371
		c0,0.563,0.016,1.69,0.016,2.245c194.865,83.542,115.363,30.794,213.38,82.157c1.812,0.441,3.306,1.51,4.465,2.971
		c-1.347,0.718-3.135,1.331-3.151,3.159c-3.547,10.764-0.144,39.62-2.441,73.456c0,0,0.114,14.705-13.232,122.611
		c-0.876,7.896-3.216,34.098-2.979,41.817c5.534-1.412,8.106-6.963,12.211-10.383c13.821-11.729,47.122-9.995,52.78-9.069
		c-0.22,0.661-0.424,1.339-0.612,2.032c-4.523,0.823-25.237,1.45-31.949,3.502c-21.754,4.444-17.624,12.646-29.99,18.57
		c-10.154,39.295-22.826,25.764-32.251,36.365c-5.706,5.461-6.032,14.081-10.922,20.08c-9.328,11.336-16.435,8.481-21.794,12.62
		c-6.336,0.617-7.916,9.672-8.089,16.04c-0.473,0.147-1.42,0.441-1.894,0.588c-0.457,1.722-0.939,3.437-1.461,5.151
		c-0.514-1.633-0.963-3.281-1.396-4.906c-31.32,1.487-47.969-6.953-72.566-9.248c-10.141-0.81-21.663,8.327-38.879,3.657
		c-13.796-2.511-21.221-13.476-36.348-7.795c-23.728,5.513-29.217,2.503-43.156,2.392c-5.404-0.163-10.791-1.934-16.154-0.882
		c-4.473-0.939-10.285,0.237-12.285,4.849c4.391,2.988,8.097,8.195,6.432,13.738c5.534,2.604,10.726,7.836,10.889,14.268
		c0.22,2.073-1.486,3.453-2.579,4.971c3.041,3.938,23.919,12.23,10.114,28.806c-3.045,3.632-7.461,6.008-12.179,6.457
		c0,4.702-0.514,10.505-5.428,12.693c-4.849,0.139-7.436-4.53-11.705-5.795c-0.8,2-1.975,4.71-4.628,4.359
		c-3.094,0.751-5.151-1.665-7.248-3.437c-2.851,4.814-5.527,13.563-23.353-0.71c-0.986,1.416-7.233,15.163-14.44,0.474
		c-10.954,6.174-8.846,7.189-14.121,4.759c-3.675-1.871-2.141-8.405-5.755-6.726c-1.331,1.058-8.901,10.55-15.305,4.791
		c-2.245-1.992-2.906-5.036-3.853-7.738c-8.048,3.85-11.714,2.122-15.86-3.624c-8.123,3.349-20.837,1.775-21.305-9.142
		c-6.285,2.522-13.305,0.449-19.631,2.498c-0.277,3.551-1.641,6.873-2.432,10.326c-1.241,0.971-2.441-0.318-3.592-0.751
		c-47.956,2.355-21.105-39.626-109.927-11.616c-69.055,20.639-64.319-27.318-149.54,6.261
		c-16.876,6.554-23.204,13.011-46.103,13.885c2.881,4.669,7.624,7.95,12.342,10.579c20.488,4.524,24.982-14.628,60.461,29.263
		c18.471,22.43,70.046-5.781,137.19,53.139c4.481,3.975,8.848,8.383,14.538,10.603c25.263,10.748,67.669-7.912,121.975,21.664
		c45.444,25.995,49.467-0.726,133.835,35.965c37.063,16.607,79.896,8.619,142.7,26.937c21.036,1.768,25.147-1.033,42.65,2.555
		c-12.815,1.428-25.737,0.718-38.593,0.922c-6.408,0.335-12.538-1.861-18.684-3.306c-24.366-7.542-68.005-6.636-104.654-14.929
		c-40.33-9.293-49.985-23.963-83.839-28.398c-7.217-1.281-29.018-0.205-44.16-2.359c-20.124-2.902-35.711-20.057-65.554-26.602
		c-28.749-7.265-53.026-3.025-71.684-4.938c-31.991-2.832-34.695-29.279-73.864-42.919c-12.683-8.773-62.051-15.53-69.317-15.46
		c-7.567-1.396-16.178-2.114-21.99-7.697c-15.603-18.624-26.284-34.921-46.274-32.683c-8.179,1.631-16.41,3.25-27.394-10.375
		c-1.575-2.571-4.922-2.188-7.477-2.808c-11.852-1.575-22.635-7.183-34.283-9.558c-0.441,0.22-1.331,0.661-1.771,0.882
		c-0.139-0.424-0.408-1.273-0.539-1.698c-19.82-7.362-67.879-12.502-109.004,2.816c-47.78,15.064-63.083,25.106-127.795-14.766
		c-7.507-4.897-3.576-3.998-29.492-7.159c-11.715-0.084-113.602-1.883-125.656,9.02c-9.74,7.936-15.278,8.574-19.207,11.216
		c-1,0.127-30.761,7.451-48.217,3.118c6.742-4.286,32.111-2.835,42.421-7.493c13.407-3.523,17.537-9.613,26.831-15.174
		c30.283-6.39,51.506-7.534,51.506-7.534c-3.975-2.514-8.603-4.375-11.273-8.473c-5.443-7.167-4.088-23.75,4.408-30.438
		c1.894-1.657,4.318-2.465,6.604-3.404c-0.378-5.664-10.503-10.761,5.061-27.255c-10.021-1.93-17.211-7.09-15.631-17.199
		c2.872-10.721,17.081-12.83,12.138-14.089c-16.431-6.6-18.296-35.392,5.796-37.14c-7.914-19.013-0.373-27.16,9.216-26.912
		c-1.641-1.935-3.992-3.11-5.526-5.126c-5.822-8.169-3.377-19.038,7.975-21.484c2.539,0.653,5.567,0.465,7.436,2.637
		c-3.804,1.077-8.685,1.453-10.636,5.493c-1.469,5.229-0.539,9.559,10.13,13.052c-0.607-26.032,4.272-25.705,0.18-30.545
		c-1.135-5.632-1.551-12.644,3.143-16.831c13.093-9.602,26.859-7.323,31.255-2.359c1.207-9.007,5.935-12.362,15.036-13.909
		c-1.106-17.062,18.686-20.38,35.752-18.488c2.126-4.125,1.074-28.53,0.775-32.3c-0.842,0.306-14.732,10.893-15.354,11.485
		c-4.751,1.347-9.395,3.273-14.374,3.592c-41.883,1.555-33.489-2.276-38.013,1.828c-3.995,4.167-18.13,16.735-27.41,18.301
		c-13.454,0.518-6.464-18.71-5.608-25.402c-16.064,6.391-41.616,15.561-58.551,13.166c-14.492-7.216,4.753-26.884,7.322-32.626
		c-36.877-0.34,6.051-31.983,9.754-39.826c-3.918-0.498-8.285-0.049-11.656-2.465c-8.035-5.546,4.489-12.48,17.035-20.978
		c0.016-0.441,0.033-1.314,0.041-1.747c-6.077-1.327-45.335,0.343,3.159-29.965c0.049-0.563,0.147-1.69,0.196-2.253
		c-10.726,3.141-26.888,3.365-28.969-7.763c-3.579-15.856,20.477-40.563,36.659-40.324c-1.003,0.65-25.103,7.689-32.7,32.096
		c-0.351,3.502-1.11,8.016,1.992,10.554c5.681,4.729,19.36,2.26,23.394-0.033c3.404,0.098,6.824-2.914,10.04-0.931
		c1.926,0.759,0.947,3.11,1.159,4.702c-10.726,11.38-24.962,18.315-28.814,25.974c6.497,1.135,13.134,1.094,19.574,2.628
		c11.061,10.32-12.536,16.653-14.832,22.602c3.853,1.102,7.869,1.233,11.852,1.102c9.794,7.724-19.823,25.556-24.529,38.16
		c0.645,0.661,1.412,0.931,2.294,0.816c15.939-2.175,13.224-2.102,16.799,0.996c0.698,15.412-56.076,51.424,40.511,16.676
		c3.183-1.543,7.542,0.857,7.265,4.563c0.024,7.608-4.065,14.668-3.436,22.358c8.876-3.032,20.624-12.82,26.904-20.211
		c2.416-1.6,4.816,1.077,7.224,1.494c10.873,1.763,21.966,1.322,32.92,0.555c7.033,0.672,22.276-7.893,27.729-13.509
		c-1.518-25.948-11.113-62.793-6.816-98.507c-4.488,1.507-8.616,10.394-23.337,13.224c-11.161,1.129-12.829-5.687-21.656-10.089
		c-15.916-8.816-25.736,0.857-41.719-3.053c-21.11-10.399-21.601-19.076-20.594-33.304c1.461-5.673,3.094-11.428,6.065-16.521
		c6.382-13.245,3.068-15.282,10.293-23.549c2.212-1.126,4.555-2,7.069-2.106c0.824-3.33,0.082-6.75-0.024-10.105
		c-8.277-0.229-17.035,1.004-24.741-2.775c-8.218-4.339-1.416-12.966-0.22-15.183c-13.533,1.51-17.442,3.168-27.851-2.481
		c-1.2-2.318-2.89-4.612-2.661-7.355c-0.043-18.951,42.069-47.394,56.975-47.605c-1.012,1.331-2.686,1.763-4.098,2.506
		c-35.845,17.755-76.826,66.961-9.093,43.001c2.22-0.914,4.661-0.612,7.004-0.579c1.135,2.318,1.763,4.873,1.045,7.436
		c-6.758,4.919-15.322,8.74-17.55,14.309c6.906,2.661,14.342,3.42,21.647,4.277c0.941-22.103,15.128-25.465,34.781-33.41
		c2.068-9.679-2.672-23.23,10.783-38.797c5.934-6.677,14.644-9.518,22.358-13.517c3.355-1.461,3.265-5.502,3.412-8.579
		c-0.146-17.595,23.105-21.412,30.332-24.766c6.534-3.09,1.642-16.824,10.783-30.528c8.636-11.837,26.542-2.83,36.577-34.512
		c3.321-12.184,6.798-30.814,19.803-32.243c8.469-1.245,29.19-1.842,35.271-22.17c3.74-10.071,3.321-28.63,18.366-28.512
		c5.493-0.335,10.995-0.58,16.456-1.38c-0.669-2.849-2.065-6.628,0.694-8.832c5.926-5.175,13.542-9.281,16.685-16.913
		c2.277-5.657-3.281-10.791-2.049-16.44c1.143-3.69,4.873-5.232,7.763-7.273c14.995-3.93,22.722-6.288,24.863-12.244
		c1.506-11.389-5.926-21.796,15.166-38.928c3.861-3.355,8.416-5.853,12.122-9.395c-5.116-15.568-18.179-24.089-15.917-33.434
		c2.204-1.559,4.84-2.106,7.51-1.714c-1.094,1.012-2.237,1.992-3.388,2.939c7.996,14.065,13.879,10.249,17.476,28.422
		c4.638-1.528,21.265-10.66,29.941-11.999c2.139-1.2,4.612-1.388,7.004-1.698c-0.808-0.759-1.641-1.494-2.457-2.212
		c0.743-1.273,2.873-2.71,1.428-4.228c-6.774-10.743-24.207-27.012-14.489-37.679c2.073-2.4,6-3.298,6.759-6.726
		c-6.883-13.849-41.885-33.066-24.333-58.257c11.715-17.518,15.377-36.801-2.139-48.454c-6.987-4.334-15.24-5.436-23.157-6.889
		c-6.742,1.69-13.958,1.682-20.129,5.265c-4.429,10.661,10.183,19.331,16.627,32.659c5.177,10.251-6.302,11.345-11.591,16.309
		c-0.343,0.775-0.694,1.551-1.037,2.326c3.281,6.416,10.922,8.546,14.979,14.317c-0.286,1.845-0.612,3.689-1.045,5.518
		c-6.915,4.481-19.511,1.709-28.863,4.179c-10.399,3.023-21.5,9.761-18.293,13.73c6.324,7.305,19.597,4.763,15.534,13.06
		c-1.257,2.098-3.918,2.441-6,3.273c-31.254,9.845-27.678,18.781-27.973,27.353c-0.09,2.71-1.918,4.816-3.094,7.118
		c3.044,4.149,13.064,5.472,2.4,18.048c-12.966,10.77-0.693,13.017,3.037,19.174c2.85,7.071-10.041,13.622-21.247,21.125
		c0.705-5.405,5.658-8.687,14.815-16.929c0-0.498,0.008-1.477,0.016-1.975c-4.334-3.673-9.918-7.665-9.746-14.015
		c-0.367-6.449,5.24-10.432,8.889-14.872c-0.008-0.335-0.016-1.02-0.024-1.355c-2.792-1.877-5.812-3.461-8.073-6.016
		c-1.069-9.041,2.212-6.605,4.473-10.505c-0.039-23.392,13.812-25.845,21.182-30.732c2.179-0.661,4.791-0.784,6.4-2.604
		c-2.22-1.886-5.044-3.159-6.644-5.689c-3.126-3.983-2.237-10.073,1.241-13.558c13.841-14.344,40.102-12.811,43.368-13.011
		c0.008-0.4,0.033-1.2,0.049-1.592c-17.689-13.688-11.578-18.109-2.106-24.88c0.522-0.049,1.575-0.163,2.106-0.22
		c1.486-1.2,3.641-2.588,2.539-4.832c-3.771-10.163-12.979-17.435-15.909-27.998c-2.741-9.225,4.735-10.783,10.309-12.611
		c7.211-4.604,42.191-5.793,52.323,16.921c8.164,18.195-5.083,37.646-8.816,44.421c-13.933,25.372,49.706,45.579,21.566,63.228
		c-3.731,2.347-4.608,2.414-1.91,9.297c5.016,12.056,15.37,18.432,11.958,29.255c6.538,0.098,13.134-2.637,19.631-0.677
		c-5.322,1.796-10.881,2.228-16.44,2.473c-3.722,1.51-7.844,1.396-11.469,3.183c-21.861,6.762-38.336,18.205-41.042,21.721
		c-2.214,1.043-20.296,12.536-19.337,28.006c-0.345,13.848,5.362,18.861-18.554,26.431c-33.274,10.338,12.17,11.415-28.602,42.185
		c-0.847,4.11,8.034,10.892-13.974,12.154c-12.186,0.645-13.021-1.072-17.027,13.175c-3.124,14.174-6.623,32.55-34.43,37.467
		c-9.978,1.892-11.5-0.518-16.366,8.097c-8.807,19.165-4.099,39.525-32.438,51.719c-9.612,4.142-14.111,1.742-17.28,29.173
		c-0.7,11.175-16.014,12.113-25.998,17.386c-9.038,5.646-6.784,11.909-7.608,18.268c-3.63,10.769-18.578,9.681-28.022,21.035
		c-11.518,13.091-3.381,29.484-9.909,37.475c-9.1,9.231-31.015,5.183-32.512,28.088c-1.216,6.644,0.906,13.24,0.392,19.917
		c-2.645,3.094-6.783,3.151-10.489,3.641c-4.612,2.963-3.559,9.24-5.453,13.738c-3.224,7.355-7.983,14.244-9.11,22.366
		c-1.831,15.251,10.78,22.349,20.847,24.341c35.191-4.551,37.257,5.111,47.123,11.02c4.313,7.175,26.609-0.402,32.104-15.681
		c1.143-3.698-2.588-5.836-4.514-8.318c2.286,0.89,4.506,1.943,6.824,2.759c2.302-9.167,4.114-18.603,8.032-27.239
		c-0.22,2.073-0.514,4.138-0.62,6.236c1.982-3.199,3.193-16.049,6.889-22.055c19.531-31.757-5.476-8.261,17.468-56.012
		c5.739-11.29,8.681-5.112,12.122,5.771c7.089,19.583,12.188,19.078,13.852,60.657c0.735-0.424,1.755-0.669,1.796-1.706
		c2.335-7.542,5.004-15.019,6.391-22.806c1.945-16.783-1.093-50.817,1.143-65.481c1.191-10,12.087-38.683,20.578-43.156
		c12.847-3.671,12.33,33.172,15.085,59.212c0.416,0.082,1.257,0.245,1.673,0.327c2.522-11.036,8.228-21.109,10.097-32.324
		c2.694-13.281,1.102-26.929,3.045-40.283c2.956-23.645,9.999-22.301,16.08-25.027c1.739-0.792,1.812-2.857,2.024-4.473
		c1.9-20.658,41.845-42.64,59.024-57.734c13.38-9.599,12.827-13.489,17.076-17.378c5.983,5.668,3.343,19.379,6.457,43.303
		c1.445,5.42,2.906,10.905,3.518,16.521c2.694-0.882,2.963-4.024,4.179-6.195c0.702,2.645-0.327,5.183-1.371,7.567
		c-2.677,5.534-0.947,11.828-1.616,17.721c-1.322-0.49-2.906-1.184-2.588-2.89c-0.873-4.114,1.73-8.171,0.163-12.162
		c-1.29-7.183-3.053-14.26-4.792-21.354c-1.577-5.895-1.267-28.93-4.106-36.185l-0.686-0.008c-3.004,2.906-5.093,6.702-8.612,9.085
		c-25.853,22.11-63.364,41.926-63.424,62.24c-0.514,5.306-6.293,6.342-10.473,7.501c-13.973,14.979-2.109,44.378-14.636,76.713
		c-3.29,8.31-6.114,16.946-6.628,25.941c-0.196,1.943-0.163,4.808-2.432,5.534c-10.69,1.394-4.181-53.244-14.881-71.227
		c-6.264,2.94-17.952,31.158-18.627,46.119c-0.525,68.437,4.862,43.457-9.101,89.651c-0.865,3.494-2.498,6.767-5.004,9.379
		c-1.682-0.971-3.861-2.073-3.845-4.318c-1.432-47.932-3.638-44.308-16.08-77.864c-2.488,2.576-10.522,22.076-11.575,24.912
		c-1.649,3.755,1.322,7.453,0.971,11.297c-0.498,7.942-5.289,14.636-9.159,21.305c-5.636,10.521-6.378,27.396-14.105,42.16
		c-5.128,9.548-2.177,46.645-2.13,47.654c16.486,137.813,6.546,35.745,8.048,225.191c0.444,32.052,4.609,57.687,4.71,58.69
		c1.107,14.903-5.494,55.479-4.718,83.953c45.38,28.636,76.636,20.217,80.794,16.742c-1.69-5.347-0.906-11.036-1.543-16.529
		c-6.289-273.233-0.141-147.591,4.008-258.209l1.543,0.735c1.393,18.944-0.926,63.48-2.081,72.68
		c-2.717,41.699,1.837,45.856,3.714,84.394c0.083,109.176,0.438,109.823-2.155,116.734c25.126-6.948,71.901-30.009,139.312-10.644
		c-1.223-23.64,2.711-91.651,2.457-114.171c-11.419,3.788-22.731-8.154-32.324-3.877c-0.645,0.694-1.29,1.388-1.926,2.09
		c-0.041-0.776-0.106-2.326-0.147-3.102c9.613-10.624,22.111,5.193,34.259-1.273c1.697-10.977,0.117-106.554,2.09-131.884
		c-21.869,0.072-51.77-9.297-59.71-10.326c-4.481,5.093-5.129,16.002-31.23,15.207c-9.256-1.094-17.435-6.669-22.986-13.991
		c-0.131,0.555-0.376,1.665-0.498,2.22c-0.971,0.62-1.918,1.29-2.865,1.959c-7.681,0.531-15.321-1.077-22.529-3.657
		c-2.766-4.4,18.459-4.984,23.696-3.934c-1.58-5.116,2.492,0.018-16.448-13.55c0,0-38.471,3.873-51.433,4.22
		c-0.004,1.014,17.001,260.191,1.126,284.183c-5.522-16.194,0.368-161.741-2.743-201.063c0-1.001-2.974-63.867-0.4-82.949
		c-4.751-0.482-9.534,0.098-14.285-0.351c-44.914-9.377,10.359-31.786,14.987-35.728c25.46-6.735,28.068-26.686,47.058-24.521
		c14.753,1.533,28.09,14.508,33.312,15.199c13.782,1.3,36.481-6.111,62.224-3.004c6.857,0.865,13.387,3.812,20.39,3.543
		c18.268,0.468,39.09-20.405,55.963,6.579c-2.098-0.327-3.853-1.494-5.314-2.963c-2.383-2.367-5.567-3.583-8.301-5.445
		c-4.661-0.759-9.542-1.102-14.081,0.482c-28.065,9.113-22.891,9.044-45.433,5.069c-14.472-3.276-44.621,2.15-52.127,2.971
		c-24.007,2.968-19.9-3.386-37.614-11.24c-17.843-9.085-22.856,4.439-33.491,11.591c-8.256,6.871-28.477,11.354-45.776,26.023
		c0.58,0.767,1.167,1.543,1.763,2.334c6.685,0.253,13.297,2.49,20.023,1.412c1.69-1.633,0.816-4.408,1.396-6.506
		c0.612,1.959,1.061,3.967,1.437,5.991c57.889,0.531,41.569-11.435,69.832,8.318c3.126,2.057,3.951,5.934,5.91,8.906
		c9.523,15.887,35.145,14.727,40.985,3.322c6.633-13.208,17.686-7.928,24.48-11.55c3.404-1.575,3.902-5.853,6.098-8.473
		c2.751-1.379,5.404,1.592,8.122,2.081c13.857,2.827,24.996-7.522,35.165-4.196c6.489,8.158,35.534,13.98,47.458,5.534
		c3.077-5.289,2.498-11.705,1.453-17.476c-5.228-13.483-18.56-9.513-30.161-10.464c-0.22-0.269-0.653-0.808-0.865-1.078
		c10.405-0.677,27.54-4.348,33.042,8.922c2.457,4.424,1.755,9.64,1.853,14.497c1.058,14.631-22.265,13.921-23.59,14.195
		c-1.829,1.174-0.282-0.845-0.171,38.862c0,0-2.62,73.168-3.249,115.151c-0.121,37.995,2.258,47.218,2.261,47.327
		c0.021,1.004,0.708,57.883-2.465,70.305c-6.184,5.689-2.998-39.714-7.24-79.088c-1.336-82.143,7.752-165.198,8.065-191.643
		c-4.413-2.407-15.608-0.494-29.598-10.66c-4.38-1.109-17.615,5.753-28.316,5.657c-3.004,0.008-5.828-1.069-8.685-1.804
		c-2.13,3.371-4.628,6.946-8.652,8.146c-1.633,0.808-4.024,0.343-5.044,2.098c10.726,0.979,21.288,3.33,32.063,3.918
		c1.173,0.055,17.351,1.434,19.215,6.171c-1.029,1.771-3.02,3.322-2.473,5.616c3.509,32.252,6.194,177.531,2.294,208.989
		c-0.261,14.228-4.375,28.178-3.339,42.462c17.156,4.632,34.189,15.626,58.763,6.685c10.089-3.234,43.702-21.855,75.039-22.153
		c31.443-0.428,38.494,12.241,76.737,11.958c20.72-0.594,56.301-20.855,89.357-9.836c12.39,5.443,18.494,21.226,44.699,21.141
		c-0.098-1.265-0.18-2.514-0.245-3.747c-0.433,0.367-1.298,1.094-1.73,1.453c-0.31-3.657,2.057-6.702,2.196-10.252
		c1.024-30.835-2.601-21.563-5.698-82.484c-2.005-35.547-3.332-102.353-3.363-102.89c-11.252-178.598-14.211-219.515-9.289-254.079
		c-2.294,1.045-4.343,2.547-6.62,3.583c-6.779-0.324-5.678-4.415-22.978-29.345c-7.069-9.632-9.436-21.623-11.664-33.1
		c-9.105,6.91-26.939,78.331-27.786,79.872c-0.841,1.755-3.02,1.159-4.563,1.437c-5.318-7.747-6.173-42.936-3.804-52.282
		c12.864-56.191,17.595-44.036,11.003-57.22c-0.302-0.024-0.914-0.073-1.216-0.098c-2.547,9.003-2.898,18.505-5.208,27.582
		c-1.892,9.179-18.092,31.215-21.786,34.03c-8.963,2.912,2.299-29.281,3.665-57.441c3.139-55.278-37.767-23.271-36.961-77.766
		c1.812,7.738,1.665,16.007,5.355,23.239c7.851,14.728,24.738,13.286,31.01,28.684c9.037,23.323-2.047,59.316-2.522,76.745
		c3.477-3.053,15.685-21.673,16.938-26.561c4.376-16.514,2.959-34.387,10.22-33.557c3.903-0.674,7.305,10.243,8.146,12.391
		c-14.747,51.577-18.195,53.008-13.689,89.748c0.49-0.016,1.477-0.049,1.967-0.065c2.262-16.839,17.864-64.219,26.055-73.668
		c2.057-2.449,6.498-1.984,7.379,1.314c1.926,6.71,2.473,13.779,4.955,20.358c3.668,12.994,12.668,20.008,21.101,36.895
		c0.922,1.518,1.714,3.51,3.518,4.171c7.264-2.962,14.243-16.793,32.789-16.056c19.624-6.624,36.025-27.211,37.026-28.194
		c0.343-2.212,0.457-4.44,0.482-6.661c-1.077,0.286-2.139,0.596-3.192,0.906c-0.057,0.424-0.155,1.265-0.212,1.69
		c-1.739-0.033-3.445,0.286-5.118,0.669c1.167-1.175,2.392-2.294,3.681-3.33c-1.714-1.82-4.032-3.681-3.894-6.44
		c0.173-26.542-10.762-21.925-44.911-39.45c-2.152-3.089-9.081-9.548-9.183-20.219c-1.348-29.648-14.927-27.271-28.488-34.324
		c-31.209-17.155-20.883-61.137-41.719-72.452c-7.298-4.492-17.936-2.28-24.137-16.758c-25.518-52.195-35.626-33.97-48.78-48.331
		c-11.434-12.846-6.724-33.684-28.463-55.8c-13.715-13.298-32.881-15.408-40.038-29.418c-5.541-12.595,1.085-43.358-14.17-49.294
		c-5.534-5.798-29.064-3.567-31.573-25.508c3.314,2.767,4.032,7.338,6.759,10.571c5.676,8,20.217,7.023,28.545,12.807
		c12.529,7.984,11.522,28.82,12.57,40.821c1.906,18.085,19.047,19.351,33.32,29.051c31.461,20.541,27.668,53.392,38.977,63.171
		c6.98,6.098,20.346,3.115,35.41,24.284c15.319,22.629,13.831,29.203,21.247,32.561c7.646,3.248,17.459,2.423,25.859,18.195
		c11.727,22.07,9.453,38.458,19.803,50.404c12.937,18.118,40.934,4.871,42.593,50.021c0.601,15.534,14.452,19.19,26.553,24.325
		c35.133,14.743,19.554,32.274,25.386,40.103c3.552-1.535,11.023-10.77,17.86-9.983c8.318-0.22,16.701,0.612,24.978-0.139
		c3.992-2.449,6.13-6.922,9.567-10.016c12.867-13.233,29.037-10.909,33.426-12.897c6.843-3.2,44.015-28.979,51.784-29.484
		c1.069-10.775,3.526-21.949-0.139-32.504c-1.673-1.298-3.322-2.653-5.216-3.592c-2.392-1.02-3.592-3.6-5.959-4.645
		c-22.144-9.321-23.483-43.667-50.911-65.04c-12.432-9.603-30.632-18.503-41.344-41.279c-12.18-26.188-0.074-39.75-20.799-51.702
		c-37.813-22.826-23.413-34.475-44.535-62.028c-4.326,2.588-9.64,2.694-13.819,5.469c1.012-2.604,3.837-3.216,6.122-4.253
		c18.68-7.858,12.743-26.022,18.815-37.711c5.939-11.793,21.981-5.352,32.675-15.289c10.199-8.499-0.693-22.894-8.93-28.52
		c-33.086-21.073,12.199-19.809,25.459-39.85c8.645-12.264-3.127-24.716-2.849-34.871c4.209-27.78,46.693,7.314,29.402-60.249
		c-7.17-32.361,18.456-23.43,23.051-49.229c0.129-1.285-0.465-14.907-14.399-20.268c-8.333,1.422-24.325,2.586-22.831-5.706
		c-0.081-6.517,10.248-8.558,11.224-21.141c-2.343-7.004-6.359-14.35-13.738-16.954c-11.937-3.407-26.486,3.732-30.316,6.906
		c-13.021,5.476-43.195,36.097-48.976,32.283c-1.894-0.955-1.665-3.387-2.057-5.142c-0.19-9.351-15.902-12.745-28.7-7.861
		c-17.232,5.924-22.409,20.811-25.296,34.683c-4.247,16.209-2.316,24.577-5.624,24.904c-3.526-0.082-7.191-0.678-10.53,0.808
		c-51.293,23.609,7.063,52.007-1.094,63.138c-1.02,0.339-17.23,6.015-14.848,10.269c0.641,1.681,7.259,16.647,1.053,21.819
		c-7.412,1.363-15.174,2.106-21.9,5.82c-22.483,10.482-11.427,38.278-9.803,54.535c1.498,11.495-9.49,6.226-15.631,13.142
		c-8.588,7.169-3.024,22.672,4.824,26.953c4.437,3.656,8.122-0.685,17.06,1.82c1.078,3.706-1.543,8.856,2.228,11.485
		c17.38,12.357,26.22-1.564,21.762,32.234c4.905,1.525,19.485,9.718,33.459,11.615c0.898,0.677,1.796,1.363,2.702,2.057
		c1.984-0.547,4.596-0.016,5.91-1.918c3.278,0.367,17.018-1.72,28.341-7.338c3.134-1.779,6.832-1.339,10.277-1.053
		c0.082,1.543,0.172,3.094,0.253,4.653c-8.519,6.927-28.6,7.84-36.699,7.583c2.528,17.039,1.888,85.075-0.147,94.679
		c-0.465,2.22-0.849,4.465-0.98,6.742c0,0,31.19-18.666,35.14-20.774c-3.419-19.948,4.277-81.508,10.032-86.639
		c2.64,9.176-4.17,82.803-4.253,83.806c1.437-0.033,2.881-0.049,4.343-0.057c2.036,7.636-0.63,6.981-17.46,15.95
		c-21.552,11.17-32.128,16.501-49.286,7.004c-24.586-12.093-29.713-37.135-31.891-42.168c-0.531,1.265-1.045,2.547-1.543,3.828
		c-10.433-7.577-1.944-51.446,2.008-79.782c2.726,0.139,5.445,0.335,8.171,0.62c0.588-7.102,2.482-15.085-1.755-21.451
		c-7.787-1.828-15.868-3.779-22.031-9.207c-1.428-2.971-1.575-6.269-1.11-9.477c-8.868-1.123-13.307,4.757-23.182-7.852
		c-8.127-12.994-5.718-27.921,14.407-32.618c2.098-6.408-1.755-12.873-1.657-19.354c-11.023,4.953-45.85,14.552-48.911,14.799
		c-16.657,1.843-24.217-4.524-35.042-4.155c-6.351,0.093-19.764,11.896-35.214,10.563c-5.11-0.473-9.338-4.628-14.636-3.845
		c-9.991,1.322-17.876,8.122-26.365,12.93c1.411-3.455,16.942-17.086,27.28-18.121c13.081-1.688,6.446,11.912,40.715-6.644
		c12.668-6.729,24.024,3.329,41.793,1.273c3.89-0.376,41.05-10.907,49.425-9.795c-7.815-40.743,22.666-43.471,36.071-47.237
		c0.785-17.75-13.783-18.983,10.758-30.267c-1.025-5.256-15.447-16.775-19.084-30.585c-4.515-20.119,9.814-27.102,23.443-34.969
		c3.061-0.775,6.13-1.567,9.273-1.967c4.077-26.212,7.214-47.868,31.5-58.404c12.91-5.159,32.205-4.784,37.769,7.599
		c2.934,3.809-1.667,4.116,21.517-13.468C885.578,61.266,896.671,52.924,909.699,48.532 M754.878,384.385
		c0.975,16.112-2.983,63.12-2.841,66.673c18.525,34.785,22.38,33.823,45.458,46.854c-0.444-6.31,3.843-84.967,4.996-99.895
		c-1.38-0.139-2.751-0.269-4.114-0.375C788.279,408.692,763.541,390.241,754.878,384.385 M1015.169,658.805
		c-28.895,19.5-35.552,23.759-43.327,23.713c-22.606,1.018-25.579,12.602-34.193,18.978c-3.004,2.261-6.979,1.379-10.456,1.51
		c0.123,8.564-4.912,39.859-9.265,50.486c-0.694,2.743-5.102,2.816-5.689,0.016c-2.374-8.425,0.874-32.816-0.743-41.997
		c-6.706,10.006-9.922,55.419-10.669,68.166c-0.49,2.081,0.261,6.228-2.547,6.326c-2.525-6.168-4.934-62.259-4.922-66.191
		c-93.94,93.344-59.207-107.076-39.613,446.775c0.882,10.546,2.457,21.272,0.677,31.81c5.902-0.857,12.219-0.008,17.713-2.751
		c2.098-1.029,3.632-2.841,5.502-4.188c3.665-1.331,7.371-2.579,11.012-4c-3.587-3.697-10.138-7.248-4.53-12.317
		c4.612-3.828,10.84-4.391,16.138-6.824c-5.395-3.963-14.851-6.162-0.122-21.664c-2.237-0.898-4.318-2.13-6.008-3.845
		c-0.073-6.318,6.359-9.412,10.187-13.387c2.775-3.828,6.53-6.702,10.342-9.411c1.763-1.11,0.057-3.257-0.204-4.767
		c-1.543-3.828-0.229-7.926,1.526-11.42c-1.249-1.11-2.677-2.049-3.649-3.404c-1.094-4.906,1.477-10.84,6.726-11.901
		c6.016-0.947,9.975-6.375,12.122-11.664c-5.362-2.217-8.805-3.487-7.469-6.587c3.758-4.682,12.237-6.006,16.921-14.758
		c1.992-3.616,0.906-8.171,3.2-11.664c4.828-8.593,18.994-13.42,21.198,1.771c0.816,4.49-0.204,9.003-0.229,13.501
		c1.69,2.245,4.073,3.902,5.575,6.318c0.155,2.424-1.853,4.44-2.702,6.661c12.275,4.243,18.182,12.181,13.134,18.652
		c6.457,10.409,14.842,19.92,12.872,26.553c-1.739,2.53-4.163,5.265-2.596,8.579c2.685,5.959,6.897,11.24,11.762,15.591
		c5.579-7.198,8.081-5.624,17.223-6.155c-0.966-3.635-2.863-31.881,0.269-48.666c2.748-17.148,2.855-40.063,3.526-44.984
		c0.626-25.444,5.139-47.681,8.432-72.631c1.126-6.759,0.743-13.664,1.682-20.439l0.857-0.808l0.931,0.245
		c3.107,19.814-2.944,39.931-4.579,100.172c-2.461,64.139-3.102,18.339-6.375,75.962c-0.302,3.861-2.147,7.404-2.4,11.281
		c13.11-0.392,30.841,3.258,51.204-2.938c-1.112-6.332-2.88-36,7.077-67.391c-6.114-1.314-12.317-2.171-18.456-3.396
		c0.492,10.846,0.728,62.616-3.992,72.566c-5.189-7.126,1.169-57.88,0.833-73.537c-4.196-0.023-21.962-4.465-24.815-5.714
		c-0.751-1.29,1.306-0.857,2.008-1.102c13.91-0.932,27.467,3.577,85.741,7.036c4.849,0.931,10.048,0.784,14.325,3.608
		c5.068-35.57,6.018-96.691,6.016-97.699c-37.232-0.324-101.515-7.768-104.923-17.533c0,0,36.989,7.214,106.4,10.122
		c1.877,0.98,3.657,2.147,5.11,3.73c-0.245,0.563-0.726,1.698-0.971,2.261c-0.979,0.18-1.943,0.375-2.898,0.579
		c5.15,64.747,0.9,93.405-9.673,153.319c-1.265,6.938-2.204,14.203-6.122,20.26c14.836-1.294,7.694-6.696,35.899-2.188
		c20.798,4.32,37.154,8.131,58.069,9.567c-1.116-95.901,6.07-209.315,9.591-225.657c0.294-0.335,0.865-1.004,1.159-1.347
		c0,0.001-7.159,218.228-7.159,218.229c2.171-2.237,3.575-5.085,5.804-7.281c9.759-4.703,20.635-4.922,26.023-20.366
		c8.293-23.979,19.218-16.04,27.696-24.651c6.897-7.395,8.057-17.811,10.987-27.043c0.457-6.269-0.498-12.571-0.188-18.856
		c2.562-53.045,12.953-105.267,14.211-197.781c-0.474,0.204-1.412,0.604-1.877,0.808c-3.296,9.741-5.17,12.4-6.914,52.404
		c-0.196,2.971,0.441,6.293-1.747,8.726c-4.475-5.13-5.814-15.896-6.024-22.496c-0.596,0.327-1.184,0.669-1.747,1.02
		c-11.874,25.64-10.98,26.042-19.999,23.925c-0.817,18.25,3.531,26.957-0.906,43.564c-3.88,15.813-4.354,35.882-7.134,43.523
		c-1.126-0.065-2.228-0.131-3.322-0.18c-1.04-4.119-1.448-61.247-1.437-62.248c2.122,10.081,2.677,20.415,4.049,30.61
		c0.245-0.188,0.743-0.555,0.988-0.743c1.078-4.898,1.657-9.934,3.183-14.742c3.98-12.649-4.427-41.472,2.114-45.899
		c2.424-0.767,4.245,1.347,6.367,2.098c3.486-0.978,5.482-12.002,12.53-23.157c7.645-10.839,2.153-9.956,10.252-9.314
		c3.299-30.283,9.422-32.074,12.162-36.928c1.004-5.24,1.853-10.538,3.412-15.656c-3.575-0.424-6.922-1.755-10.285-2.889
		c-32.216-11.119-25.53-10.067-35.263-13.624c-9.273-3.208-18.823-5.559-28.431-7.518c-71.647-19.213-161.811-62.708-218.31-96.05
		c-3.57-0.187-5.667,0.972-4.669-16.676c0.629-9.616,4.604-18.529,6.71-27.826C1021.356,654.153,1018.491,656.904,1015.169,658.805
		 M895.986,706.312c-0.645,13.191,1.331,26.308,1.779,39.458c0.302,0.171,0.906,0.498,1.208,0.661
		c1.693-11.498,4.525-34.407,10.922-44.152C904.809,701.366,900.108,703.619,895.986,706.312 M916.58,710.304
		c0.302,7.583,0.392,15.199-0.204,22.774c0.555,0,1.673,0.008,2.228,0.008c0.223-1.999,4.577-24.715,6.473-30.047
		c-3.436-0.057-6.873-0.171-10.277-0.571C915.658,705.006,916.564,707.577,916.58,710.304 M916.172,739.746
		c1.91-1.061,1.526-3.445,1.804-5.273C915.233,734.702,916.555,737.959,916.172,739.746 M252.735,939.683
		c-3.551,0.147-6.832,1.706-9.967,3.257c-2.645,1.453-3.869,4.441-4.906,7.118c25.226,0,20.282,1.373,30.961,1.583
		c0.588-4.245,1.151-8.489,1.608-12.742C264.522,938.94,258.629,939.299,252.735,939.683 M227.978,958.832
		c-2.865,1.641-4.473,4.775-5.208,7.893c-0.482,1.779,0.914,3.322,1.518,4.914c5.444-1.543,10.693-4.016,16.448-4.236
		c9.036-0.131,18.137-0.743,27.125,0.563c0.22-3.192,0.384-6.375,0.375-9.567C252.981,960.318,234.406,954.687,227.978,958.832
		 M191.017,974.121c-0.931,3.061-1.363,6.245-1.028,9.452c2.672,0.233,22.774,0.979,26.61-1.739
		C220.624,965.507,202.833,964.393,191.017,974.121 M227.113,976.292c-0.482,0.033-1.445,0.098-1.926,0.131
		c0.188,3.657-1.616,6.857-3.379,9.918c-0.539,2.612,0.049,5.33-0.09,7.999c8.756-8.42,36.585-9.873,45.703-8.636
		c0-3.396-0.008-6.783,0-10.162C257.734,976.03,230.502,971.156,227.113,976.292 M189.173,987.891
		c-0.188,9.387-0.441,18.823,0.971,28.145c0.555,0.098,1.657,0.294,2.212,0.392c-0.008,0.963-0.008,1.935-0.016,2.93
		c-1.135,1.078-1.943,2.359-1.118,3.918c3.536,10.917,6.62,119.26,2.294,145.655c-1.902,2.906-3.085,6.228-5.208,9.003
		c-0.311-1.828-1.724-31.291-1.518-36.642c-12.952,7.895-32.197-1.482-34.34,18.668c-1.612,25.25,27.733,14.275,33.826,20.219
		c-0.841,0.824-1.682,1.682-2.481,2.571c11.395,0.253,22.798,0.041,34.193,0.114c-3.398-43.396,1.302-90.89,0.163-114.318
		c-3.634-41.219,2.168-67.023,1.861-80.761c-1.763,0.996-3.567,2.188-5.698,2.008C205.922,989.467,197.466,989.393,189.173,987.891
		 M251.054,993.679c-9.526-0.016-19.035,0.808-28.398,2.547c-1.428,4.076-0.123,5.686,0.041,24.268
		c21.417-6.801,17.958-2.831,30.373-4.775c4.84,0.629,9.82,0.514,14.334,2.669c0.024-8.489,0.024-16.978-0.008-25.467
		C262.008,993.981,256.498,993.271,251.054,993.679 M182.03,1022.436c-12.146,1.429-12.782,4.469-10.856,13.485
		c1.469,8.792,11.994,10.255,14.334,13.974c-1.657,3.779-6.661,2.441-9.852,1.91c-6.857-3.526-15.925,0.065-19.256,6.824
		c-2.514,6.089,0.678,13.436,6.326,16.497c11.326,5.067,13.784,1.266,24.276,5.559c-0.768-57.63,0.976-33.338-1.42-59.506
		c-0.571,0.016-1.714,0.057-2.294,0.082C182.977,1021.554,182.34,1022.142,182.03,1022.436 M222.517,1024.525
		c-0.188,7.893,0.759,15.738,0.922,23.615c2.033-0.4,4.081-0.8,6.024-1.543c7.204,0.081,32.798-2.493,38.495-0.506
		c-0.253-7.191-0.106-14.399-0.547-21.582C233.691,1023.992,270.937,1023.009,222.517,1024.525 M944.766,1044.859
		c-4.326,8.376,5.183,9.849-18.529,25.622c0.033,0.49,0.106,1.461,0.139,1.951c2.155,0.865,4.424,1.584,6.359,2.93
		c1.935,2.893-3.757,14.241-15.387,16.366c-1.975,2.286-2.612,5.208-2.285,8.171c8.966,2.65,0.766,5.216,1.437,12.024
		c0.18,2.612,1.91,4.759,2.441,7.273c-0.261,2.367-2.963,3.216-4.514,4.653c-4.906,3.208-7.673,8.702-12.579,11.893
		c-2.106,1.494-4.473,4.13-3.02,6.865c1.837,1.184,4.147,0.955,6.253,1.094c0.596,1.094,2.645,2.392,1.004,3.534
		c-1.006,0.673-11.889,6.752-10.065,13.534c2.87,4.256,9.02,3.513,7.24,9.616c-1.91,1.714-4.547,2.261-6.816,3.347
		c-4.09,0.71-7.934,2.473-11.175,5.061c4.253,5.13,9.891,7.66,5.836,11.428c-3.365,2.805-15.7,2.956-13.509,12.668
		c0.563,2.196,2.775,3.143,4.44,4.391c2.751,0.098,5.51,0.171,8.269,0.073c1.045-2.457,2.31-4.914,4.734-6.253
		c0.865,0.465,1.739,0.939,2.628,1.428c0.588,2.016,0.931,4.106,1.086,6.228c1.331,1.249,2.612,2.783,4.473,3.265
		c3.2-0.465,5.502-2.947,8.277-4.334c4.196-0.268,2.236,11.333,7.91,11.526c6.045-1.403,9.924-12.09,14.75-8.375
		c2.975,3.399,0.739,11.854,6.596,8.579c3.126-1.673,5.624-4.457,9.02-5.608c3.934,0.539,3.673,5.73,6.783,7.306
		c4.369-1.47,1.935-8.052,9.444-7.363c3.159,3.82,7.379,7.053,12.318,8.097c5.815,1.302,4.797-9.536,5.085-12.881
		c1.2-0.033,2.416-0.041,3.657-0.033c1.445,3.126,3.314,6.049,5.485,8.742c0.433,0.024,1.298,0.073,1.739,0.098
		c0.947-2.326,1.69-4.775,3.069-6.889c4.623-2.422,7.871,10.035,14.497,6.326c-0.033-3.787-0.269-7.64,0.735-11.322
		c0.784-0.408,1.583-0.808,2.392-1.2c1.673,0.775,3.714,1.559,5.502,0.612c20.642-13.644-3.102-21.401-7.942-29.753
		c0.71-2.139,1.828-4.228,4.294-4.571c-0.465-3.624-2.596-6.644-5.265-9.02c-2.547-0.759-4.971-2.024-7.673-2.049
		c-0.302-1.02-0.596-2.024-0.882-3.004c1.526-1.167,2.987-2.424,4.114-3.983c-1.396-2.514-2.89-5.02-5.102-6.889
		c-6.419-5.289-17.082-18.065-14.587-26.014c0.955-2.008,3.657-3.257,3.175-5.804c-2.13-8.897-9.224-15.403-12.856-23.606
		c-0.023-1.73,9.258-8.877-11.926-17.199c-0.073-2.963,2.498-4.759,3.543-7.273c-0.849-2.49-3.061-4.285-4.481-6.465
		c-0.563,1.29-1.11,2.604-1.649,3.918c0.091-1.068,5.738-29.423-7.771-26.782C950.928,1037.626,946.88,1040.761,944.766,1044.859
		 M224.166,1051.495c0.849,11.044,1.2,22.121,1.379,33.189c8.025-2.536,36.787-2.4,43.507-0.792c0,0-0.569-11.355-0.865-30.52
		C258.412,1054.062,226.56,1052.158,224.166,1051.495 M1082.192,1065.241c-0.276,11.907-4.371,20.194-4.236,48.241
		c-0.188,5.934-1.053,11.852-0.767,17.811c5.869-1.486,12.073-0.841,17.64,1.494c1.828-5.792,1.386-17.958,4.702-29.573
		c3.793-9.535,3.69-34.309,3.681-35.312C1096.191,1067.102,1089.188,1066.204,1082.192,1065.241 M1127.209,1068.677
		c0.693,20.75-4.809,31.633-6.506,48.494c-1.518,7.289-0.563,15.093-3.592,22.031c-8.405-12.029,8.047-55.196,7.436-70.746
		c-6.579,0.253-13.175,0.22-19.737-0.196c0.111,1,4.016,21.145,0.09,33.785c-2.118,6.361-5.113,28.071-4.775,33.206
		c8.032,3.934,16.962,6.228,25.949,5.077c2.079-12.179,3.463-29.215,3.502-33.459c0.882-13.721,4.71-26.986,6.359-40.593
		C1133.062,1067.208,1130.164,1068.073,1127.209,1068.677 M172.749,1086.79c-6.636,1.649-13.844,4.832-16.889,11.395
		c-1.159,2.432,0.865,4.424,2.4,6.049c11.339,4.814,22.303,2.707,28.733,4.245c-0.016-8.122-0.073-16.244,0.024-24.357
		C182.479,1086.08,177.59,1086.308,172.749,1086.79 M225.79,1088.235c0.302,7.624,0.204,15.264,0.098,22.896
		c6.176-2.051,31.084-4.386,38.944-1.518c0.8,0.775,1.6,1.518,2.416,2.31c-3.34,6.092-8.848,3.923-26.496,3.983
		c-4.971-0.073-9.918-1.502-14.881-0.727c0.31,8.677-0.775,17.313-0.824,25.99c4.117-0.349,52.081-1.848,42.968,7.012
		c-9.836,4.081-20.309,0-30.398-0.522c-4.049-1.714-8.612-0.751-12.644-2.375c0.465,11.175-1.869,22.203-1.739,33.361
		c1.91-0.408,3.836-0.759,5.787-0.71c30.177,0.164,34.813-1.149,41.556,4.392c2.257-59.272,3.682-56.696-1.241-92.605
		C262.201,1092.8,226.798,1088.373,225.79,1088.235 M181.492,1114.951c-14.684-1.118-24.27,17.139-14.546,19.664
		c4.285,1.069,8.301,3.208,12.775,3.526c2.392,0.465,4.816,0.955,6.922,2.277c-0.196-9.412,0.335-18.815-0.008-28.218
		C184.838,1112.951,183.124,1113.882,181.492,1114.951 M266.538,1185.362c-2.751,0.735-5.632,0.677-8.44,0.996
		c11.336,7.657,10.955,6.763,13.607,7.248c-0.196-3.33-0.457-6.653-0.784-9.958C269.33,1183.86,267.934,1184.636,266.538,1185.362z"
		/>
	<path class="st0" d="M1009.479,138.648c4.669-1.926,9.812-1.11,14.66-0.441c20.21,5.571,36.099,27.806,17.411,51.286
		c-6.92,8.101,0.99,14.677,6.44,21.786c7.704,9.366,21.004,23.256,7.958,41.05c-7.112,9.18,9.519,9.222,17.876,16.448
		c9.348,7.3,4.134,16.92-3.281,25.99c-3.638,3.604,9.299,6.68,17.052,15.656c3.534,3.902,6.146,8.652,7.33,13.803
		c0.767,2.906,0.849,6.236,3.061,8.53c5.175,5.81,23.653,22.255-0.433,28.602c1.229,12.521,31.236,38.982,27.843,51.686
		c-0.522,2.653-3.077,4-4.971,5.591c-2.177,11.918,1.746,36.75,6.497,47.719c1.599,4.505,5.259,2.291,17.925,12.219
		c6.759,11.388-5.139,15.978-2.294,24.308c3.599,8.332,33.504,26.502,16.236,40.201c-1.087,10.588,11.88,26.417-4.914,31.247
		c-4.993,17.415,23.264,11.661,26.316,41.254c0.051,4.055,20.836,16.305,28.888,27.231c1.934,2.457,1.526,5.722,1.347,8.644
		c-11.391,8.772-20.13,3.834-37.197,3.502c3.24-5.715,18.716,0.867,32.038-6.302c-1.13-7.334-23.159-18.611-30.079-27.598
		c-2.7-3.649-1.082-9.183-5.795-16.358c-8.71-11.608-27.793-10.827-22.847-34.879c1.086-1.094,2.196-2.163,3.339-3.208
		c1.673-0.318,5.02,0.155,4.783-2.432c-0.544-4.607-8.111-25.058-1.551-27.712c1.102-0.824,3.673-1.265,2.808-3.183
		c-2.432-6.375-7.134-11.656-12.187-16.129c-16.213-15.082-8.194-23.061-4.914-30.773c1.95-3.434-11.248-9.16-13.215-10.048
		c-9.559-4.53-12.669-34.731-13.321-45.213c-0.331-18.304,2.609-17.754,6.342-20.962c-6.051-17.573-37.844-45.268-25.206-54.265
		c3.028-1.42,6.375-2.171,9.199-4.065c-0.964-7.438-4.281-7.724-11.428-17.158c-3.943-4.813,0.957-12.254-12.383-23.688
		c-5.007-4.538-21.163-10.383-13.322-19.729c0.891-1.204,11.026-12.024,5.404-17.231c-8.408-7.098-27.51-9.366-21.721-21.019
		c2.269-4.555,6.563-8.326,6.791-13.73c2.283-15.015-15.617-25.767-20.554-38.462c-4.265-12.445,9.025-15.318,10.75-29.271
		c3.909-18.027-17.754-31.563-23.729-31.018c-10.993,1.463-27.715,1.369-29.892,8.155c-1.557,9.813,8.335,42.247-4.065,67.832
		c-14.519,28.095-26.433,36.114-2.751,37.45c1.102,1.151,2.808,2.163,2.498,4.032c0.618,17.259-11.306,11.587-13.215,16.284
		c-6.218,13.829,2.957,23.782-7.404,29.443c-2.628,0.335-5.91,0.278-7.583,2.71c-3.322,5.036-2.824,11.403-4.31,17.011
		c-6.061,9.91-35.668,18.334-42.478,29.353c-1.422,5.331,16.828,9.854,21.631,11.477c8.987,3.487,1.361,11.345,0.114,14.407
		c-2.887,5.4,8.868,14.081,10.66,15.778c2.816,2.775,2.171,8.114-1.412,9.934c-10.163,5.52-29.858,7.214-32.251,13.681
		c0.531,4.008,4.465,6.212,6.922,9.052c1.268,5.591-5.188,11.144-11.248,11.403c2.449-2.963,5.755-5.273,7.297-8.914
		c-2.922-2.653-6.587-4.898-7.967-8.791c-4.934-13.168,21.544-16.738,32.161-21.892c-8.36-6.929-17.613-15.244-9.754-27.59
		c-61.911-18.153,6.827-41.815,19.158-50.943c2.808-22.915,9.313-22.174,17.248-24.088c0.447-13.069-1.407-22.399,7.836-30.12
		c8.676-1.812,6.844-0.733,8.008-6.155c-32.577-3.278-4.528-30.777,4.465-51.074c1.668-3.979,5.029-20.136,2.979-41.556
		c-0.612-18.59-1.14-21.503,5.836-25.329C999.619,140.297,1004.892,140.803,1009.479,138.648z"/>
	<path class="st0" d="M354.907,251.44c2,5.404-0.008,11.011-0.947,16.382c-0.8,3.975,3.249,6.089,6.065,7.828
		c9.698,5.115,12.522,15.691,11.909,27.361c-0.114,3.698-2.098,6.93-3.461,10.277c13.005,2.98,9.469,7.416,17.158,11.828
		c7.975,10.707,6.213,19.716,3.045,23.892c4.494,8.774,6.641,12.85,4.881,28.178c-0.887,3.129,4.734,1.405,11.705,9.265
		c5.44,7.901,7.37,21.642,0.653,31.834c2.588,2.13,5.289,4.122,7.689,6.473c0.131,2.751,0.057,5.559,0.816,8.236
		c1.339,0.457,2.628,1.069,3.681,2.049c-2.122,0.155-4.245,0.171-6.367,0.229c-2.563-2.637-2.024-6.685-4.408-9.436
		c-3.143-1.739-6.228-3.575-9.216-5.559c-0.261-0.58-0.767-1.73-1.029-2.302c0.563-2.114,2.024-3.657,4.089-4.326
		c3.126-3.741,3.303-23.195-7.706-25.125c-0.215,6.046,0.764,4.81-5.461,13.15c-12.612,7.455-21.39,4.185-31.557,3.012
		c-24.281-1.661-49.166,15-39.932-7.73c3.428-3.453,5.363-8.252,9.542-10.946c-1.461,5.975-5.518,10.946-6.84,16.987
		c2.245-0.212,4.506-0.375,6.71-0.906c38.025-10.329,35.815-1.148,53.033-4.857c18.388-8.721,4.513-11.538,5.942-16.799
		c2.846-27.695-4.25-23.18-5.216-32.602c-0.455-3.751,9.948-9.08-2.563-19.868c-2.433-2.024-3.853-5.069-6.497-6.816
		c-3.298-0.694-6.742,0.22-10.024-0.547c-2.628-1.004-3.33-4.596-2.481-7.012c1.943-2.4,4.857-4.065,5.877-7.151
		c3.192-7.95,1.494-18.162-5.045-23.966c-3.951-2.628-8.767-4.938-10.456-9.746c-1.918-5.24,1.347-10.334,1.608-15.542
		c0.327-5.02-2.881-9.216-4.604-13.705c-11.624-21.527-17.72-28.444-32.308-21.827c-2.702,1.2-3.934,4.089-5.306,6.514
		c-5.573,11.147-19.685,33.654-21.558,37.295c-7.138,12.482-3.933,29.275-4.212,43.197c-0.264,18.853,1.216,19.474,6.767,20.921
		c10.875,3.052,28.229-1.22,34.659-10.595c0.629-1.061,1.714-1.616,2.914-1.845c2.071,11.743-16.214,21.75-34.52,21.207
		c-20.773-1.591-16.85-14.73-18.137-21.272c-44.896,20.006-17.813,13.506-41.932,54.461c5.22,8.853,20.697,10.18,22.88,16.236
		c-9.767,0.298-14.764,0.517-28.871-9.142c-7.63-13.236,2.808-10.005,9.297-33.557c1.845-5.959,2.832-12.603,7.346-17.264
		c7.532-8.227,26.569-11.606,31.475-13.738c-0.196-8.791,0.008-17.591-0.049-26.382c2.286-32.233,25.024-40.18,32.953-62.803
		C310.099,216.157,335.117,200.518,354.907,251.44z"/>
	<path class="st0" d="M434.705,279.348c0.147,2.041,0.106,4.114,0.449,6.147c2.659,4.602,27.239,1.436,29.5,12.587
		c0.743,1.861-0.775,3.404-1.992,4.579c-7.64-4.849-16.774-5.893-25.19-8.742C429.699,291.073,427.842,285.439,434.705,279.348z"/>
	<path class="st0" d="M1009.896,281.421c0.106,7.069-2.008,14.881,2.204,21.207c7.583,5.216,17.493,5.298,24.757,11.093
		c3.224,2.318,5.714,6.375,10.089,6.489c4.612,1.303,5.099-2.273,15.019-2.677c0.025,1.698,0.702,4-1.208,4.955
		c-18.773,13.63-25.218-0.816-30.945-4.106c-9.841-5.755-24.898-6.497-25.035-20.382
		C1004.777,291.406,1007.62,282.585,1009.896,281.421z"/>
	<path class="st0" d="M441.864,323.704c5.158,15.599-10.023,15.075,20.676,18.456c2.277,0.122,4.547,2.049,4.204,4.489
		c-6.192,3.588-23.912,2.999-29.043-3.404C433.876,337.419,440.318,324.91,441.864,323.704z"/>
	<path class="st0" d="M974.119,324.724c0.588,6.302-0.784,13.599,3.681,18.831c10.584,2.718,29.22-3.125,39.377,2.286
		c3.943,1.796,6.824,5.2,10.652,7.183c7.009,4.019,10.443,3.502,29.745,7.673c0.212,0.759,0.433,1.518,0.661,2.286
		c-7.87,3.693-26.837,3.197-36.748-4.359c-3.567-2.53-6.604-6.114-11.036-7.118c-10.914-3.102-22.48,0.604-33.467-1.992
		c-2.286-2.204-5.061-4.334-5.722-7.632C970.417,336.87,971.427,328.021,974.119,324.724z"/>
	<path class="st0" d="M454.875,359.954c3.543,3.363,6.228,7.738,7.689,12.391c-0.278,0.596-0.833,1.788-1.11,2.383
		C452.348,376.65,450.751,367.218,454.875,359.954z"/>
	<path class="st0" d="M1010.287,385.691c2.669,2.359,2.816,7.355,6.881,8.105c5.001,0.434,11.855-1.165,14.26,3.045
		c0.457,1.959-1.804,2.979-2.677,4.44c26.84,1.82,62.547,21.243,67.016,4.351c1.118-3.151-0.237-6.408-0.318-9.599
		c0.522,0.204,1.551,0.612,2.073,0.808c13.046,32.458-34.624,22.151-67.766,10.767c-2.196-0.678-4.024-2.408-4.359-4.734
		c1.143-0.49,2.4-0.963,3.192-2.008C1013.044,402.601,1005.197,401.468,1010.287,385.691z"/>
	<path class="st0" d="M248.074,395.274c-4.948,3.998-27.582,14.133-35.41,31.59c-10.049,21.279,11.107,40.799,29.72,35.108
		c14.454-4.216,19.414-14.855,26.912-19.778c-21.33-5.073-12.484-35.396-7.746-40.626c0.835,6.396-7.486,28.759,7.926,33.851
		c9.844,3.624,20.896,4.808,29.369,11.509c2.881,2.114,4.889,5.861,8.718,6.375c13.892,1.677,30.359-8.649,38.177-9.885
		c1.633-0.555,2.179,1.061,2.881,2.155c-13.759,11.578-40.666,23.423-51.539,10.489c-6.546-7.689-16.84-10.016-26.047-12.93
		c-5.982,16.976-17.56,21.375-21.753,26.063c-3.494,1.657-7.526,1.951-10.75,4.253c-16.625,7.508-48.469,41.93-46.829,56.012
		c16.145,1.035,31.675,9.09,20.782,20.513c-2.49,3.453-6.514,5.861-7.934,9.999c1.933,3.598,10.507,6.07,14.374,6.783
		c6.773,3.675,14.586,0.392,16.325,9.265c4.555-0.784,9.224,0,13.738-1.077c1.975-0.433,3.902,0.571,5.812,0.963
		c-2.55,2.635-18.408,7.423-25.394,5.959c-1.804-1.069-1.592-3.461-1.747-5.265c-9.501-1.918-19.427-3.192-27.778-8.522
		c-10.617-13.946,5.579-18.855,8.081-26.284c-5.738-3.339-12.35-4.326-18.774-5.526c-4.253-2.016-6.089-7.085-4.718-11.493
		c8.06-28.221,47.28-50.911,48.992-53.506C191.687,465.736,189.987,409.371,248.074,395.274z"/>
	<path class="st0" d="M990.044,401.78c2-0.8,3.983,0.457,5.918,0.914c0,0.596,0,1.78,0,2.375c-4.261,3.061-9.118,5.485-14.317,6.359
		c-2.947,0.571-5.077-1.812-6.84-3.755c-2.677-1.314-6.253-0.988-8.318-3.265C977.404,399.833,973.413,405.572,990.044,401.78z"/>
	<path class="st0" d="M537.228,414.187c0.604-1.388,1.869-2.22,3.249-2.743c-0.035,7.113-24.314,51.016-28.643,56.706
		c-13.816,36.857-4.44,68.555-18.472,81.512c0.98-3.853,2.726-7.461,3.567-11.346c1.788-8.963,1.42-18.129,2.237-27.19
		C498.664,469.048,517.171,453.483,537.228,414.187z"/>
	<path class="st0" d="M541.596,411.779c0.335,0.237,1.012,0.702,1.347,0.931c8.858,48.897,53.15,40.724,58.91,44.201
		c-1.347,2.669-4.416,3.902-7.159,4.62c-6.927,26.662-5.882,1.662-6.473,39.752c-1.682,11.452-0.041,23.076-1.567,34.553
		c0.947-0.433,2.13-0.759,2.237-1.992c17.785-55.784,16.892-57.141,20.529-56.208c1.2,0.677,1.445,2.139,1.943,3.322
		c3.113,9.863,16.438,26.15,21.46,36.152c3.977,8.103-8.466,43.444-3.379,53.082c0.865-3.241,1.592-6.53,3.306-9.452
		c5.492-14.93,7.387-27.783,15.044-24.349c3.129,7,2.765,14.198-4.775,64.779c0.882-0.424,1.902-0.8,2.147-1.877
		c11.434-26.332,8.893-13.731,14.978-50.045c1.624-0.416,3.926-0.58,4.498,1.477c15.842,37.419,10.778,41.328,35.344,51.604
		c-5.926-0.457-11.681-1.967-16.88-4.889c-2.908-4.487-10.667-12.584-17.729-34.014c-0.326-1.388-1.518-2.163-2.604-2.898
		c-7.029,33.506-10.193,27.819-14.766,44.413c-1.208,3.788-1.91,7.975-4.579,11.069c-0.563,0.188-1.682,0.547-2.245,0.735
		c-3.697-13.722,2.079-49.647,3.755-71.121c-0.457-0.049-1.363-0.139-1.82-0.18c-3.273,6.865-4.187,14.628-7.95,21.256
		c-1.371,6.097-2.024,12.562-5.469,17.958c-1.869,0.18-4.204-0.131-4.506-2.367c-4.971-80.697,22.151-34.839-16.595-96.091
		c0,0-19.262,56.603-19.264,56.608c-1.143,2.375-1.551,6.693-5.126,6.098c-1.866-8.065,1.75-40.257,1.551-55.106
		c1.837-27.493,2.976-17.759,8.065-31.483c-4.857-0.073-9.787,0.596-14.546-0.62C555.422,457.208,538.392,437.625,541.596,411.779z"
		/>
	<path class="st0" d="M1017.854,428.945c7.395,2.286,12.734,8.628,20.023,11.207c6.955,2.008,14.44,0.571,21.223,3.388
		c0.629,0.767,1.249,1.535,1.902,2.318c-6.215,4.326-20.779,5.013-28.333-0.424C1028.682,442.497,1019.708,433.324,1017.854,428.945
		z"/>
	<path class="st0" d="M941.827,442.577c-0.503,3.925-7.491,23.032,0.694,27.378c9.854,1.971,12.116-5.068,16.391-6.938
		c2.613-0.883,9.846,0.179,6.661,9.64c0.286,0.751,0.579,1.502,0.882,2.269c12.517,2.478,18.723-0.514,25.867,1.984
		c7.632,2.041,14.881,5.567,22.831,6.351c6.367,1.828,13.085,0.049,19.517,1.371c1.053,0.188,1.126,1.453,1.641,2.228
		c-21.482,6.203-23.331,4.747-45.319-2.065c-6.533-2.186-36.624,2.403-33.704-11.273c-4.514,1.322-9.134,4.587-13.958,2.841
		C929.95,473.959,933.493,451.796,941.827,442.577z"/>
	<path class="st0" d="M1117.618,494.54c-1.559,4.816-5.787,7.714-8.791,11.509c-13.108,9.484-24.63,15.127-30.234,0.196
		c-6.293-0.327-11.371,4.816-17.705,4.114c-7.148,1.003-9.235-8.723-7.224-15.844c2.155,3.502,2.196,8.089,5.387,10.971
		c3.755-0.163,7.281-1.828,10.26-4.049c3.877-0.939,7.861-3.706,11.917-1.926c3.641,0.996,4.106,5.191,6.089,7.828
		C1095.131,509.317,1110.018,491.519,1117.618,494.54z"/>
	<path class="st0" d="M255.494,498.058c1.208-0.114,2.416-0.22,3.624-0.318c-9.328,10.593-10.17,12.061-4.514,20.35
		c5.142,3.869,11.877,7.493,18.407,5.028c3.347-1.404,3.6-5.395,4.449-8.424c0.571-2.873,4.008-4.465,6.644-3.322
		c3.779,1.477,6.995,4.261,10.987,5.24c12.931,2.713,21.112-3.928,32.128-6.253c0.253,0.571,0.767,1.73,1.02,2.31
		c-3.371,2.547-5.991,6.269-10.138,7.632c-12.966,5.493-17.368,7.637-33.9,0.522c-7.728,14.737-22.609,10.316-30.602,4.073
		C237.072,510.068,254.394,499.601,255.494,498.058z"/>
	<path class="st0" d="M1122.85,533.092c0.767,0,2.302,0,3.077,0c-0.416,7.159-5.551,14.399-12.701,16.203
		c-8.099,2.442-44.284,14.755-55.49,4.367c22.462-2.187,10.359,2.441,51.229-11.713
		C1120.641,537.922,1115.479,537.944,1122.85,533.092z"/>
	<path class="st0" d="M194.111,570.934c-4.841,3.679-13.18,5.293-28.757,12.872c0.09,0.424,0.261,1.273,0.351,1.698
		c5.926,1.6,12.979,2.775,16.733,8.163c2.669,4.294,0.596,9.534-2.367,13.077c3.281,7.42,7.044,14.611,10.807,21.802
		c2.478,4.062,0.333,3.824,17.737,8.775c4.302,0.604,8.677,0.098,13.011,0.294c-0.531,0.996-1.045,2.008-1.608,2.996
		c-9.987,4.628-7.842,4.042-29.255-0.833c-5.416-0.714-12.461-17.343-17.37-28.414c-4.009-10.634,2.136-7.602,2.89-12.97
		c1.682-5.959-21.924-4.881-22.455-12.946c1.004-2.824,4-3.975,6.163-5.746C159.991,579.701,182.501,573.312,194.111,570.934z"/>
	<path class="st0" d="M1090.232,573.596c-0.098,2.22,0.465,4.685-0.767,6.701c-9.125,16.898-61.176,24.423-59.375,9.191
		c2.547,1.02,4.914,2.914,7.787,2.898C1066.516,591.957,1086.214,574.792,1090.232,573.596z"/>
	<path class="st0" d="M1129.691,592.215c1.029-0.506,2.065-1.029,3.118-1.535c0.857,0.628,1.91,1.086,2.596,1.975
		c-0.903,3.766-0.521,17.429-18.26,17.729c-13.175-0.039-15.889-2.373-22.888-7.983c-0.269-1.077-0.539-2.155-0.775-3.216
		c1.002,0.287,18.991,8.533,29.369,1.682C1126.246,599.055,1128.05,595.52,1129.691,592.215z"/>
	<path class="st0" d="M1140.939,624.832c1.42,2.759,0.057,5.632-1.943,7.64c-12.121,15.068-31.222,10.054-48.299,6.889
		c-6.403,21.594-42.354,14.454-44.821,6.457c7.755,2.204,16.04,4.481,24.055,2.171c5.844-0.792,12.293-4.098,13.844-10.252
		c0.637-2.326,1.094-5.453,3.975-5.942c8.489,0.18,16.766,3.036,25.312,2.62C1126.95,635.614,1133.022,629.576,1140.939,624.832z"/>
	<path class="st0" d="M444.664,631.803c8.062-1.344,28.982,2.058,36.691,2.498c3.583,0.163,7.028,1.51,9.811,3.763
		c11.951-1.017,17.454,1.148,67.62,2.432c2.473,0.131,4.922-0.727,7.395-0.351c5.624,1.29,11.444,0.498,17.158,0.694
		c2.579,0.326,4.522-1.592,6.84-2.31c1.001-0.264,37.284-5.782,46.911-1.877c2.253,2.139-0.816,4.334-0.808,6.661
		c-3.056,38.359,5.946,59.643,1.559,82.01c-0.865,0.677-1.796,1.38-1.992,2.539c1.192,1.077,3.232,1.633,3.379,3.518
		c0.286,1.616-0.351,3.657-2.041,4.236c-4.342,2.35-36.115,1.705-42.854,0.914c-2.806-0.092-21.889,5.813-34.708,4.979
		c-12.783,0.8-25.533-0.743-38.283-1.257c-1.002-0.075-27.333-2.791-31.443-1.877c-13.452,2.109-39.833-4.033-41.964-4.816
		c-0.514,1.233-1.029,2.473-1.551,3.714c-0.62-0.041-1.869-0.131-2.498-0.171c-0.082-0.653-0.237-1.951-0.318-2.596
		c-4.318,0.857-10.195,0.008-12.619,4.596c-0.082,0.694-0.237,2.082-0.31,2.767c-2.558-2.006-0.737-7.992,12.44-7.934
		c-4.486-25.993-7.463-73.761,1.143-98.254c-0.449-0.718-0.89-1.437-1.314-2.139C443.488,632.954,444.076,632.375,444.664,631.803
		 M446.37,636.742c0.114,3.551-0.359,7.069-0.767,10.595c-1.566,26.002,4.318,54.441,2.824,84.035
		c9.663-2.169,12.275-0.899,31.239-0.678c3.885-0.024,7.591,1.233,11.411,1.739c0.906,0.996,1.804,2.008,2.677,3.053
		c1.004,0.033,2.008,0.049,3.028,0.057c18.757-2.731,86.658-0.807,93.014-4.171c-2.762-9.615-3.461-31.204-3.428-38.381
		c-12.161,5.832-30.202,4.358-39.907,4.253c2.299,42.863-9.353,35.092-7.861,31.908c1.624-6.775-0.4-13.664-0.204-20.496
		c-0.082-3.73,0.31-7.501-0.367-11.183c-1.337-1.803-4.426-0.417-13.493-1.788c-9.852-1.747-19.843-3.134-29.222-6.775
		c1.216,11.681,0.531,23.459,0.694,35.181c0.155,2.743-0.547,5.542-2.31,7.697c-8.885,3.713-6.975-79.654-5.877-89.226
		C474.184,642.744,459.938,638.513,446.37,636.742 M491.901,641.648c0.767,13.101,2.481,26.137,2.579,39.279
		c-0.147,1.763,0.898,3.159,1.967,4.44c9.066,0.671,16.208,3.481,41.034,4.147c0.294-6.718,0.065-13.436-0.637-20.113
		c-0.114-32.719,2.192-19.163-24.455-25.068C505.443,644.382,498.807,642.048,491.901,641.648 M590.025,645.574
		c9.635,75.341,3.915,82.766,3.273,87.349c30.379-4.428,24.578-2.94,41.099-5.175c-5.943-15.849-7.535-66.683-1.241-85.292
		c-1.812,0.033-3.632,0.122-5.396,0.547c-6.242,1.442-28.315-0.874-33.908-0.514C592.824,643.811,591.502,644.815,590.025,645.574
		 M540.894,647.386c2.579,16.832,4.073,38.367,5.216,42.389c3.947-0.515,36.059-2.361,40.307,0.327
		c-0.31-27.3,1.069-43.466,1.069-43.466C572.206,650.537,556.394,648.047,540.894,647.386z"/>
	<path class="st0" d="M1165.215,660.022c-0.095,10.064-3.521,10.701-6.718,15.827c-3.445,1.543-6.579,3.869-10.367,4.538
		c-15.229,4.214-34.245-3.968-39.189-15.64c5.762,1.914,21.045,14.371,37.916,7.591
		C1158.474,668.16,1159.006,659.461,1165.215,660.022z"/>
	<path class="st0" d="M1036.938,684.795c12.397,8.814,8.841,6.07,23.941,3.453c20.595-2.43,21.891,9.241,31.761,8.685
		c4.734,0.531,10.154-1.502,14.334,1.502c2.62,1.832-2.896,7.305-20.129,5.934c-6.089-0.718-9.444-6.538-14.946-8.465
		c-7.723-3.509-17.489,1.389-23.231,0.261C1042.832,695.407,1037.983,690.526,1036.938,684.795z"/>
	<path class="st0" d="M1027.249,704.549c-5.295,4.852-9.752,2.228-19.076,19.95c-4.489,8.587-8.628,17.525-15.036,24.921
		c-17.832,21.945-32.461,18.107-71.309,42.503c-11.069,7.469-22.145,15.289-30.634,25.729c-3.788,31.454,3.89,24.982,11.991,48.715
		c3.73,14.179,2.114,28.961,2.702,43.433c1.637-2.374,11.217-79.952,22.602-83.847c11.249,4.393,10.349,22.587,18.643,34.961
		c11.188,10.723,18.179,2.257,28.871-0.008c2.735,4.186-0.052,8.971,0.784,21.86c3.061-0.816,2-4.947,4.057-6.832
		c1.306-2.179,4.375-2.237,6.334-0.922c6.763,9.631,7.505,38.853,10.383,41.336c0,0,11.289-46.86,11.289-46.862
		c18.349-6.579,23.159,57.563,86.924,31.565c14.736-5.795,22.955-13.126,32.749-9.583c10.489,4.47,8.982,21.59,9.191,24.815
		c2.62-1.2,2.792-4.465,4.041-6.734c9.35-19.228,20.355-19.975,26.365-14.374c15.91,14.599,5.12,53.741,4.743,58.322
		c-1.956,14.463,1.41,41.241,2.465,52.225c0.465-0.049,1.396-0.147,1.861-0.196c4.981-45.432,2.535-34.584,4.791-56.029
		c2.147-13.966,7.836-27.027,10.791-40.805c0.392-3.29,0.71-6.604,1.665-9.787c0.539-0.204,1.6-0.604,2.13-0.808
		c4.628,1.233,9.534,0.245,14.154,1.673c7.395,1.102,14.791,3.657,22.333,2.261c1.837-0.726,3.796-0.979,5.763-0.531
		c-1.523,1.153-7.761,3.725-14.219,3.363c-0.237,0.171-0.694,0.506-0.922,0.677c-3.722-2.612-8.407-1.224-12.456-2.718
		c-3.477-1.216-7.224-0.531-10.799-1.069c-1.273,0.016-3.534-0.702-3.641,1.224c-1.234,20.892-12.734,31.31-11.852,65.375
		c-0.429,9.948-1.828,45.349-8.089,49.466c-1.053-0.571-2.065-1.11-3.094-1.641c-4.397-8.37-8.801-54.225-4.628-70.917
		c3.078-12.324,4.651-29.188-0.857-41.27c-1.437-1.616-2.416-3.6-3.983-5.061c-15.659-7.685-22.172,28.882-29.965,40.193
		c-1.575-0.31-3.951-0.604-3.755-2.767c0.473-7.91,2.465-15.729,2.106-23.696c0.824-43.565-37.983,12.657-82.467-3.959
		c-20.331-7.948-28.228-28.513-37.059-34.716c-1.037,0.514-0.979,1.747-1.241,2.718c-2.914,14.521-8.53,28.471-9.828,43.303
		c-0.356,15.833-0.615,20.667-4.13,20.023c-3.87,0.191-2.79-14.678-12.44-59.955c-0.522,0.033-1.559,0.098-2.073,0.13
		c-6.526,18.072-5.632,46.634-11.33,43.744c-3.564-2.863,1.67-49.618,1.396-58.159c-3.641,0.702-6.938,2.481-10.522,3.347
		c-26.533,4.429-21.751-25.542-33.059-38.822c-0.547-0.024-1.633-0.073-2.18-0.098c-7.549,14.887-14.838,56.323-19.484,77.66
		c-0.767,1.257-1.6,2.498-2.13,3.885c-0.196,2.196-0.204,4.481-1.445,6.424c-0.735-1.167-1.445-2.4-1.396-3.804
		c-0.299-6.464,0.807-26.035-3.469-46.658c-1.86-9.119-8.586-26.891-9.583-24.79c-2.94,44.115,2.293,216.399,8.661,285.938
		c-0.857-0.596-1.714-1.2-2.555-1.763c-21.378-58.463-10.161-300.866-10.244-301.937c0.424,0.016,1.273,0.057,1.698,0.082
		c-0.016-0.98-0.016-1.943-0.008-2.898c-0.547-0.106-1.649-0.327-2.196-0.433c0.196-3.73,2.449-6.832,4.138-10.007
		c16.988-31.384,73.15-48.46,76.027-49.931C1003.323,745.792,1002.133,704.687,1027.249,704.549z"/>
	<path class="st0" d="M156.857,711.022c-1.404,1.249-2.849,2.481-4.032,3.959c-4.249,0.879-19.855,10.693-24.251,19.566
		c4.387,1.696,15.829,1.07,19.084,0.384c13.069-1.774,11.331-0.315,13.885,1.388c-4.257,3.696-22.141,9.461-34.308,6.644
		c-2.277-1.322-4.212-3.118-5.983-5.044C119.458,721.778,150.564,710.601,156.857,711.022z"/>
	<path class="st0" d="M1068.74,735.534c2.156,29.072-72.486,42.014-78.623,40.111
		C1000.282,763.233,1052.376,770.383,1068.74,735.534z"/>
	<path class="st0" d="M657.881,737.232c4.88,5.461,1.405,27.371-8.146,33.108c-7.225,5.01-20.322,2.372-28.839,1.355
		c-3.143,0.726-7.412,0.408-8.995,3.861c-2.93,4.081-1.012,9.346-2.155,13.926c-9.269,34.084-3.82,48.188-10.897,49.906
		c-4.385-0.992-3.807-7.132-5.567-49.131c-0.713-6.02,5.668-8.525,5.551-19.623c-1.992,0.139-4.31,0.147-5.396,2.155
		c-7.175,9.379-10.473,21.027-13.117,32.349c-1.053,2.849-5.836,2.204-5.926-0.898c-0.561-23.257,1.009-28.048-1.649-29.573
		c-17.637,12.322-31.071,10.94-51.923-0.122c-6.929,22.127-8.12,33.403-12.603,39.434c-1.11-0.033-2.22-0.041-3.314-0.049
		c-3.209-8.179,0.588-24.978-1.575-36.365c-4.119,6.915-9.983,40.026-11.354,46.339c-1.175-0.008-2.343-0.016-3.502-0.024
		c-0.918-3.969-4.349-39.168-2.326-48.111c-13.404-2.146-9.794-4.863-17.174-7.787c-2.171,0.457-4.228,1.739-6.514,1.347
		c-3.053-0.449-6.138-1.739-9.232-0.849c-15.688,4.321-14.772,39.024-19.321,35.793c-0.759-4.334,0.253-8.767-0.392-13.085
		c-1.673-5.02-4.318-9.64-6.571-14.407c-1.371-2.579,0.392-5.306,0.873-7.885c3.074-8.855-0.645-15.041,2.914-20.113
		c-0.329,42.555-6.373,13.694,4.155,39.001c0.49-0.024,1.469-0.073,1.959-0.098c3.037-13.469,11.161-26.65,24.986-21.647
		c2.873,1.355,5.045-2.514,7.91-1.494c4.383,1.298,7.102,5.567,11.517,6.84c3.379,1.281,7.012,0.457,10.514,0.702
		c1.551,0.082,2.31,2.032,1.486,3.29c-0.89,2.163-4.473,2.22-4.31,4.947c-0.359,3.022,0.228,19.513,1.755,24.961
		c2.024-1.739,1.681-4.669,2.367-7.012c2-8.171,3.608-16.562,7.044-24.268c0.931-3.11,5.959-3.779,6.685-0.22
		c1.779,8.146,1.502,16.586,1.265,24.88c3.319-0.766,0.833-1.479,9.354-28.806c1.151-0.375,2.375-1.282,3.592-0.514
		c8.067,3.51,27.438,18.221,48.209,1.91c1.526-1.167,3.265-2.09,5.167-2.481c4.765,1.053,4.132,4.525,5.036,18.57
		c1.714-1.257,2.114-3.453,3.004-5.249c8.934-19.95,14.307-17.023,17.933-17.191c7.557,7.044,1.256,16.378-1.869,23.623
		c-0.482,8.269,0.555,16.57,0.449,24.855c7.373-2.034,6.8-22.932,6.832-23.949c-2.19-34.057,22.338-15.766,41.589-21.558
		c1.379-1.143,2.89-2.13,4.147-3.412C656.697,756.455,658.46,746.652,657.881,737.232z"/>
	<path class="st0" d="M428.657,742.048c0.465-0.041,1.379-0.114,1.837-0.155c-0.106,2.498,0.596,5.477-1.494,7.371
		C429.073,746.848,429.049,744.432,428.657,742.048z"/>
	<path class="st0" d="M1138.123,771.156c-0.155,3.69-3.616,5.714-5.061,8.84c-12.254,25.064-16.352,20.245-22.317,21.003
		c-1.902,2.547-2.857,5.649-4.726,8.22c0.351-3.73-0.212-8.122,2.759-10.971c2.212-2.302,5.91,0.49,8.057-1.739
		C1125.902,788.7,1128.438,770.568,1138.123,771.156z"/>
	<path class="st0" d="M1085.972,773.197c0.22,2.653-1.951,4.285-3.526,6.049c-7.488,7.783-13.717,25.164-29.818,30.863
		c-13.191,3.5-16.451-2.826-40.454,4.073c-9.691,6.881-2.032,21.393-30.161,21.46c5.567-1.992,11.746-2.792,16.619-6.367
		c9.496-8.454-1.903-20.048,31.957-22.692c8.204-0.514,17.305,1.624,24.619-3.2C1069.702,793.977,1075.802,774.296,1085.972,773.197
		z"/>
	<path class="st0" d="M212.681,805.652c0.122,0.629,0.359,1.869,0.473,2.498c-17.353,30.66-50.873,44.821-70.011,40.642
		c2.726-2.457,6.62-2.081,9.852-3.412c2.408-0.971,4.906-1.69,7.42-2.326C193.329,830.35,199.482,807.16,212.681,805.652z"/>
	<path class="st0" d="M1247.241,808.892c-1.257,3.281-4.122,5.396-6.481,7.836c-16.445,16.848-40.428,16.794-53.98,47.596
		c-0.18-0.155-0.531-0.473-0.71-0.629c1.44-18.13,17.567-27.856,29.018-35.01C1239.792,813.607,1241.166,809.549,1247.241,808.892z"
		/>
	<path class="st0" d="M1147.069,824.744c-1.918,6.399-6.726,11.354-11.73,15.55c-25.54,20.631-46.17-6.19-48.739,24.578
		c-1.804-2.155-1.29-5.175-1.281-7.755c0.553-17.063,19.832-10.528,29.296-12.93c8.53-0.996,15.811-5.975,22.284-11.281
		c0.196-0.4,0.571-1.2,0.767-1.592C1140.741,829.265,1142.162,825.419,1147.069,824.744z"/>
	<path class="st0" d="M1274.978,837.69c3.314-2.245,7.804-2.122,11.248-0.18c-0.735,3.183-4.996,2.163-7.379,2.906
		c-1.861,1.706-2.726,4.179-4.163,6.204c-7.588,11.668-19.058,8.134-20.496,8.106c-1.665,0.106-3.028,1.151-4.473,1.845
		c-0.098,0.49-0.302,1.469-0.408,1.967c-4.399,4.726-3.607,18.428-5.322,24.414c-2.565-14.674-0.65-29.333,5.551-31.483
		c4.914-2.245,10.758,0.359,15.542-2.473C1269.778,846.636,1271.664,841.421,1274.978,837.69z"/>
	<path class="st0" d="M257.608,869.059c2.555-2.424,4.343-5.624,7.346-7.55c3.949,7.699-2.911,17.842-18.823,17.86
		c-19.916,1.633-52.189-6.042-57.979-2.449c-1.731,0.302-3.477,0.555-5.224,0.702C190.884,864.351,232.474,876.463,257.608,869.059z
		"/>
	<path class="st0" d="M783.3,902.183c4.049,2.302,6.848,6.391,6.897,11.142c8.295,4.91,38.145,2.242,31.728,47.662
		c-4.464-4.464-2.279-12.949-7.738-24.717c-6.487-15.336-19.324-10.203-27.239-15.623c-3.853-1.935-4.416-6.628-5.722-10.269
		c-18.33-4.652-44.235,12.682-54.494,8.228c-46.28-19.047-47.959,3.766-64.24,3.608c-5.453,0.098-9.64-3.82-14.481-5.681
		c-10.936-4.371-28.675-6.11-40.324,0.898c-4.04,2.87-2.621,15.463-12.864,18.529c-12.137,4.73-23.022-2.839-26.855,23.99
		c-0.424,2.22,0.498,5.004-1.241,6.799c-1.526-9.518-0.612-20.439,6.057-27.933c8.533-7.061,19.975-3.606,24.121-10.032
		c5.292-6.258-0.819-15.409,17.362-20.505c6.252-2.062,24.95-3.157,38.332,3.249c3.959,1.575,7.771,4.987,12.326,3.592
		c9.676-3.48,23.29-20.623,59.653-5.722c2.824,0.939,5.698,2.849,8.783,1.788c5.069-1.339,10.326-2.359,14.954-4.93
		C769.168,901.651,768.221,899.37,783.3,902.183z"/>
	<path class="st0" d="M1224.378,906.346c2.996,2.656,21.859,22.303,24.815,33.467c1.11,3.29,1.2,6.775,1.592,10.203
		c0.335,0.008,0.988,0.016,1.314,0.016c1.755-8.522,2.359-17.231,2.922-25.892c0.375-5.347-0.588-10.799,0.775-16.04
		c1.543,1.379,1.665,3.51,2.073,5.42c0.563,0.327,1.143,0.669,1.739,1.029c0.522,3.69,0.457,7.42,0.122,11.126
		c-0.302-0.465-0.906-1.388-1.208-1.853c-0.792,14.864-3.404,29.581-7.159,43.956c-0.678,1.004-1.584,1.216-2.735,0.653
		c-1.227-23.963,3.47-24.908-12.236-46.731C1232.605,916.411,1228.075,911.693,1224.378,906.346z"/>
	<path class="st0" d="M726.259,952.392c8.06,0.184,30.243,4.638,41.54,5.91c15.496,2.597,43.65-1.45,56.265,4.677
		c-0.71,2.361-2.203,2.669-14.701,4.081c-0.039,1.001,5.894,101.968-0.792,121.052c1.771,0.139,3.739-0.31,5.412,0.457
		c8.372,13.403,3.895,21.144,3.388,30.275c-1.814,3.952-4.101,17.961-13.664,35.785c-1.853,0.833-3.649-1.004-3.445-2.816
		c-0.523-17.442,0.769-17.255-11.256-11.779c-2.726,0-5.363-0.661-7.901-1.584c-2.564,19.032,1.776,34.199-5.085,37.385
		c-8.519,1.15-9.294-25.825-11.028-38.144c-3.852,2.033-3.928,18.387-8.685,28.447c-1.526-0.588-4.065-0.694-4.081-2.841
		c-1.053-9.028,2.032-18.84-2.318-27.296c-7.55-7.89-18.811,3.614-36.014-6.13c-4.228,9.02-4.098,19.28-7.134,28.643
		c-1.216-0.057-2.416-0.098-3.608-0.131c-1.438-5.298-0.109-19.729-0.947-30.455c-4.069,2.149-5.015,27.414-9.51,28.333
		c-5.795-0.456-1.629-14.573-4.196-26.414c-3.094-0.163-5.526,1.992-8.252,3.085c-15.356,7.643-27.504-4.339-30.504-5.844
		c-6.25,14.242-3.959,31.424-8.579,34.087c-2.637-1.02-2.473-4.424-2.979-6.726c-0.31-7.15-1.641-14.195-2.016-21.329
		c-0.424,0.041-1.282,0.122-1.706,0.155c-2.85,26.278-5.318,30.449-8.13,36.422c-0.971,0.343-1.886,0.922-2.922,0.988
		c-2.202-2.276-1.708-26.041-1.706-27.043c0.547-4.506,1.747-8.905,2.269-13.411c-0.898-0.416-1.567-1.053-1.992-1.918
		c-7.42,4.114-16.146,5.689-24.553,4.767c0.007,4.159-3.991,27.074-7.616,36.438c-1.069,2.53-5.379,3.012-6.212,0.065
		c-2.434-8.807,0.036-23.239-1.771-28.512c-1.918-7.159-10.285-9.828-12.636-16.766c-3.273-8.661,1.249-17.525,4.138-25.598
		c-4.636-13.773-3.251-58.153-2.808-68.468c1.223-23.854-1.037-56.837-1.037-56.837c11.46,9.68,10.412,105.468,6.073,123.387
		c6.114-3.224,12.815-6.049,19.884-5.387c-1.219-34.299,7.383-56.692,4.824-123.395c-8.428,3.418-6.112,6.722-27.761,2.939
		c-1.951-0.375-4.049-0.384-5.755-1.486c7.893-0.441,15.811,3.004,23.639,0.808c3.706-0.939,6.449-3.983,10.081-5.004
		c3.526,1.42,1.926,5.967,3.102,8.832c1.837,4.351,2.547,9.028,3.657,13.591c1.371,0.677,1.004-1.616,1.265-2.294
		c0.535-7.935,1.906-21.569,7.485-24.325c1.701,1.458,4.976,2.265,5.836,19.435c1.175,8.456,1.486,17.003,1.584,25.533
		c1.86-0.471,1.493,1.146,8.538-41.63c0.547-0.196,1.641-0.596,2.188-0.792c-3.083,32.618,2.704-5.02-7.493,58.698
		c1.002,0.113,49.429,4.523,69.652,5.028c0.539-6.742,0.8-13.517,2.481-20.105c-0.963,0.637-1.91,1.29-2.849,1.951
		c-0.408-0.269-1.224-0.816-1.633-1.094c-0.609-12.151,6.819-40.375-0.612-44.617c-4.247,0.88,3.019,5.48-17.289,4.914
		c-24.695-0.607-28.113-7.146-32.985-3.706c-3.249,1.453-4.726,5.11-8.032,6.448c4.652-18.732,15.346-12.232,28.7-11.338
		c7.616,1.175,15.427-1.004,22.953,1.012c2.261-0.351,4.44-1.233,6.783-1.175c-0.073,1.02-0.131,2.057-0.18,3.11
		c10.368,4.735,1.545,33.576,5.657,34.104c4.489-9.991,4.547-21.158,5.559-31.875c0.269-2.767-0.449-6.196,1.828-8.285
		c4.751-3.187,5.7,7.943,10.775,30.569c0.767,3.363,0.563,6.832,0.604,10.269c0.547,0.008,1.649,0.041,2.196,0.049
		C721.796,992.409,721.956,967.616,726.259,952.392 M728.12,954.188c-3.832,59.619-1.828,52.769-10.783,72.713
		c15.687-0.921,37.383-4.338,55.318-3.526c-0.04-31.883-4.045-14.177,1.02-55.931c-0.547-0.971-1.518-1.6-2.612-1.633
		C760.931,964.262,737.939,957.224,728.12,954.188 M775.954,966.57c0.184,49.171,16.502,113.331,7.24,119.958
		c-4.555,1.688-9.823-57.078-9.738-60.6c-8.603,3.031-28.63,2.007-49.67,5.926c-7.902,0.016-15.803,0.473-23.696,0.114
		c-0.112,10.278-1.681,33.703-1.837,58.714c10.512-0.855,26.717-8.441,43.303-6.179c8.303,0.564,34.268,8.495,42.397,6.612
		c6.839-1.602,16.109-3.943,21.59-3.241c-5.287-26.406-0.343-90.013,0.996-120.758C796.36,967.395,786.075,967.917,775.954,966.57
		 M708.522,969.427c-1.175,11.052-2.212,22.472-7.526,32.463c-1.388,1.992,0.751,4.057,0.408,6.195
		c-0.792,6.424-1.216,12.889-1.151,19.37c8.502-0.024,11.016,0.423,10.922-1.404c1.622-29.708,5.168-16.175-0.784-51.31
		C709.893,972.921,709.999,970.782,708.522,969.427 M614.406,973.223c-1.584,9.958-2.424,20.023-3.828,30.014
		c-0.751,6.098-3.265,11.836-3.616,17.999c3.779,0,7.567-0.016,11.354,0.033c0.196-16.04-0.743-32.055-1.779-48.045
		C616.006,973.223,614.937,973.223,614.406,973.223 M718.048,999.278c-0.033,2.237-0.049,4.473,0.016,6.726
		c2.718-0.849,1.575-4.604,2.318-6.783C719.795,999.237,718.627,999.262,718.048,999.278 M606.987,1022.403
		c0.136,6.597-1.354,40.603-5.714,72.313c11.701,1.56,25.016-13.578,37.532-12.979c12.857,0.392,29.548,14.095,55.433,9.599
		c-1.903-14.339,0.209-45.545,1.739-59.351c-46.952-2.588-53.661-5.87-69.979-6.669c-0.8,3.485-1.004,7.273-3.159,10.277
		c-1.265-0.122-2.522-0.212-3.771-0.286c-1.233-3.681-0.751-7.575-0.694-11.362C614.668,1022.852,610.79,1022.844,606.987,1022.403
		 M600.824,1097.434c-0.849,1.673-1.779,3.404-3.559,4.253c-4.1-6.624,4.2-12.777-21.835-4.481
		c-11.177,30.904,2.482,28.199,8.799,39.099c3.69,5.836,2.057,13.02,2.588,19.525c0.473,0,1.412,0,1.878,0
		c0.442-3.474,3.42-16.687,6.75-25.133c0.424-0.18,1.265-0.555,1.681-0.743c0.049,0.579,0.147,1.747,0.196,2.326
		c1.245-0.005,14.711-0.258,20.872-3.42c2.604-1.298,4.955-3.322,7.991-3.51c0.23,8.089-5.224,21.793-0.931,39.083
		c4.82-4.017,5.227-37.602,8.424-41.752c5.662-3.288,5.283,14.328,7.191,22.129c0.204-0.286,0.612-0.873,0.816-1.159
		c1.021-7.156,3.042-22.069,9.885-20.26c9.935,7.19,18.904,11.441,29.598,4.587c2.898-1.494,6.359-4.081,9.599-1.902
		c2.628,3.477,1.967,8.195,3.036,12.236c4.217-11.093,2.619-24.405,11.158-20.839c1.339,5.224,1.657,10.62,1.771,15.991
		c2.726-2.22,2.228-6.84,5.575-8.473c3.469-1.477,5.591,2.432,8.497,3.485c13.08,4.826,30.082-9.18,35.597,11.085
		c0.392,0,1.167,0.016,1.559,0.016c2.425-6.238,0.699-7.689,7.404-11.999c7.184,5.096,4.066,19.013,8.375,36.863
		c4.021-1.379-0.935-20.325,4.604-32.422c1.298,0.065,2.612,0.147,3.934,0.253c2.677,3.616,7.599,2.539,11.06,0.759
		c2.457-1.331,5.33-0.857,8.008-0.865c1.437,2.179,2.408,4.612,3.004,7.167c0.343,0.065,1.037,0.212,1.379,0.286
		c0.315-1.251,16.804-34.583,7.436-47.931c-10.226-3.978-27.625,9.052-53.172,1.779c-37.649-10.737-42.324,2.288-77.055,3.004
		c-23.2,0.324-33.157-12.884-49.719-10.334C623.879,1088.592,611.118,1099.856,600.824,1097.434z"/>
	<path class="st0" d="M924.588,954.147c3.559,0.335,6.979-0.963,10.53-0.906c14.84,0.107,45.457,5.922,50.6,5.959
		c-2.67,12.231-0.838,53.602-3.502,62.069c-2.935-6.98-4.576-41.819-1.371-57.204c-7.395,2.589-23.875-0.424-27.818-1.502
		c0,0,2.685,26.683,2.685,26.684c14.176-0.686,17.086,0.13,19.435,1.73c-0.049,0.588-0.155,1.755-0.204,2.343
		c-3.216,0.09-6.408,0.4-9.559,1.004c-3.208,0.547-6.408-0.539-9.607-0.073c1.167,6.971,0.31,14.072,0.571,21.109
		c7.289-0.955,14.758-1.102,22.015,0.229c0.555,1.159,1.11,2.31,1.706,3.485c-5.711,7.452-50.94,1.993-53.972,2.188
		C920.104,1005.045,923.926,958.271,924.588,954.147 M927.779,957.012c1.633,11.158,2.686,22.382,2.824,33.663
		c6.579-1.175,13.264-1.469,19.941-1.347c-0.09-9.028,0.49-18.023,0.873-27.027C943.525,960.579,935.664,958.742,927.779,957.012
		 M931.069,992.683c0.849,7.485,0.988,15.093-0.245,22.553c-0.212,0.971,0.065,1.918,0.237,2.906
		c2.726-0.245,5.436-0.694,8.138-1.208c4.294-0.833,8.693-0.58,13.036-1.086c-1.061-7.395-0.939-14.889-1.608-22.317
		C944.08,993.67,937.599,992.618,931.069,992.683z"/>
	<path class="st0" d="M416.658,976.676c16.895-0.284,46.909-1.237,57.326,0.971c0.132,1.286-1.366,51.877-1.396,52.584
		c0.098,6.742-1.51,13.33-1.943,20.047c2.033,0.212,4.171,0.686,4.865,2.914c-10.911,3.492-64.549,0.325-75.839-1.192
		c4.356-1.914,24-1.999,25.002-1.975c-0.958-5.966-3.751-9.448-1.445-30.716c-9.493,0.049-19.011,0.327-28.471-0.669
		c0.214,28.774,0.457,28.729-1.73,31.606c-6.815-11.957-1.361-67.008-1.126-72.109C400.096,976.904,408.389,977.027,416.658,976.676
		 M393.002,979.606c1.975,12.481,1.453,25.174,1.788,37.777c6.144-1.348,27.283-2.37,29.002-2.424l0.416-0.22
		c6.104-27.32,4.352-27.269,5.461-34.022C429.669,980.716,393.096,979.589,393.002,979.606 M462.532,981.5
		c-10.285-0.041-20.57-0.351-30.847-0.531c1.814,10.821-2.184,28.635-2.677,33.736c11.384,0.238,30.26-3.088,37.385,0.163
		c0.555,0.571,1.102,1.167,1.657,1.771c0.779-12.11,3.518-36.267,3.518-36.267C468.491,980.292,465.585,981.451,462.532,981.5
		 M428.583,1019.114c-1.812,10.097-0.792,20.415-2.016,30.569c13.338,0.539,26.692-0.531,40.013,0.139
		c-0.286-10.922,0.547-21.811,1.616-32.667C456.245,1020.153,457.736,1018.626,428.583,1019.114z"/>
	<path class="st0" d="M1067.736,999.695c2.557-4.65,10.719-8.843,18.007-0.514c5.26,0.473,2.446-5.399,16.546-1.567
		c8.272,11.687,0.751,20.269-10.163,30.414c-2.881,2.261-5.338,5.134-8.579,6.873
		C1075.343,1025.932,1062.139,1010.351,1067.736,999.695 M1082.641,1030.647c0.506,0.473,1.486,1.486,2.179,0.735
		c10.655-9.048,27.102-24.768,15.027-32.006c-2.114-1.535-4.873-0.816-7.273-0.988c-2.636,1.771-4.522,4.343-6.31,6.914
		c-1.584-2.792-2.547-6.375-5.6-7.934C1073.719,994.225,1056.721,1000.667,1082.641,1030.647z"/>
	<path class="st0" d="M1042.62,1058.784c0.269-0.016,0.808-0.057,1.078-0.073c0.196,0.139,0.596,0.408,0.792,0.539
		c0.279,34.829-7.434,71.283-10.407,74.533c-3.597-9.525,3.349-31.384,6.049-53.719
		C1041.428,1073.028,1041.199,1065.796,1042.62,1058.784z"/>
	<path class="st0" d="M955.475,1075.575c0.686,0.506,1.379,1.02,2.09,1.559c0.286,3.249,1.339,6.987-1.004,9.779
		c-1.363,2.367-4.489,1.012-6.081-0.384c-3.943-0.629-6.065,3.053-8.938,4.93c-4.565,3.032-9.388-1.844-10.922-6.775
		c0.188-0.114,0.579-0.343,0.767-0.457c2.424,1.559,4,4.677,6.906,5.314c3.29-2.073,5.363-5.844,9.183-7.126
		c2.098-0.547,4.302-0.229,6.457-0.253C954.259,1079.917,954.708,1077.697,955.475,1075.575z"/>
	<path class="st0" d="M498.709,1096.308c0.645,2.334-2.155,4.351-4.098,3.037C491.263,1096.957,497.747,1089.074,498.709,1096.308z"
		/>
	<path class="st0" d="M947.174,1102.258c2.604,3.053,4.873,6.481,8.22,8.816c4.106,0.645,7.477-1.763,10.881-3.592
		c3.661-2.176,5.485,5.751,12.726,5.967c0.114-1.673,0.229-3.339,0.4-4.987c4.212,1.249,3.91,6.873,0.735,9.151
		c-1.894-0.049-3.779-0.057-5.657-0.041c-2.506-1.6-4.661-3.632-6.889-5.559c-3.069-0.073-5.583,2.735-8.775,2.408
		C952.022,1115.392,947.582,1108.193,947.174,1102.258z"/>
	<path class="st0" d="M927.567,1119.612c3.845,0.261,7.73-0.196,11.558,0.327c3.428,0.971,6.555,2.792,9.942,3.926
		c3.518,1.216,7.689-0.016,10.726,2.628c-1.837,1.037-3.575,2.669-5.82,2.571c-5.853,0.326-10.513-3.918-16.015-5.142
		C934.391,1122.828,930.04,1122.812,927.567,1119.612z"/>
	<path class="st0" d="M986.232,1132.321c5.19,2.405,4.154,3.818,2.514,7.722c-1.681,0.743-3.314,1.575-4.914,2.465
		c-4.061,9.795-10.406,3.926-13.828,1.91c-1.583,2.09-2.4,5.485-5.444,5.779c-4.775,0.931-8.595-2.555-12.391-4.8
		c-1.755-0.857-2.661-2.588-3.379-4.285c5.298,1.69,9.738,7.044,15.713,5.599c1.739-1.869,1.567-4.661,2.71-6.816
		c4.008-1.641,6.506,3.861,10.375,3.787c3.435-2.687-1.399-4.321,8.832-6.848C986.346,1135.325,986.265,1133.799,986.232,1132.321z"
		/>
	<path class="st0" d="M916.637,1142.884c2.276,8.232,10.273,12.41,13.656,12.211c2.188-0.514,3.6-2.547,5.665-3.339
		c2.473,0.631,6.396,13.747,19.501,13.166c2.465-1.616,4.832-3.371,7.33-4.938c0.155,3.151-1.78,6.073-4.343,7.755
		c-9.997,3.108-18.124-2.573-23.451-10.832C924.205,1162.303,913.337,1148.677,916.637,1142.884z"/>
	<path class="st0" d="M1002.018,1158.654c2.981,2.545-0.473,13.293-6.906,16.57c-1.975,1.175-4.342,0.4-6.481,0.776
		c-5.901,3.787-13.22,12.49-23.77,1.583c2.253,0.065,4.342,1.233,6.636,1.363c4.759,2.979,9.395-1.763,13.028-4.457
		c0.514-1.224,0.473-3.077,1.967-3.567c2.204,0.082,4.4,0.441,6.62,0.612c2.767-3.102,6.146-6.391,6.457-10.775
		C1000.37,1160.042,1001.186,1159.332,1002.018,1158.654z"/>
	<path class="st0" d="M900.034,1176.073c2.784,3.117,4.489,8.754,15.566,3.102c1.469-0.424,1.935,1.249,2.62,2.171
		c2.945,5.593,10.479,5.801,15.974,2.938c2.351-1.902,2.334-5.673,5.322-6.963c2.081,18.87-21.02,14.062-24.586,6.481
		c-8.699,1.721-10.234,0.444-15.003-3.526C899.953,1178.865,899.985,1177.453,900.034,1176.073z"/>
	<path class="st0" d="M1006.133,1181.526c4.028-1.514,2.86,9.739-3.33,10.709c-5.698,1.518-12.448-2.204-17.403,2.041
		c-4.587,0.057-9.681,0.531-13.705-2.041c12.772,0.623,10.525,0.754,14.317-2.865c7.778-2.603,14.551,0.251,18.195-3.543
		C1005.014,1184.464,1005.431,1182.922,1006.133,1181.526z"/>
	<path class="st0" d="M946.741,1189.738c2.188-0.49,4.449-0.718,6.596-1.461c0.873,0.596,1.812,1.143,2.571,1.951
		c0.049,2.326-2.547,4.081-4.604,2.759C949.737,1192.186,945.696,1192.235,946.741,1189.738z"/>
	<path class="st0" d="M1008.565,1196.806c1.665-1.779,1.559-5.355,4.457-5.583c1.796,3.086,0.539,6.669-1.412,9.33
		c-3.722,2.212-8.105,2.563-12.293,1.763C1001.766,1199.394,1006.696,1200.406,1008.565,1196.806z"/>
	<path class="st0" d="M902.467,1195.5c1.535,1.412,2.522,3.894,4.889,4.057c2.277,0.531,3.592-2,5.616-2.522
		c3.534,1.241,5.934,4.792,9.82,5.297c3.461,1.004,5.126-4.196,8.669-2.816c0,4.408-5.11,8.163-9.371,7.069
		c-3.502-0.677-5.869-3.665-9.101-4.84c-2.041,0.384-3.934,1.298-5.967,1.673c-0.906-0.735-1.877-1.38-2.849-1.959
		C902.81,1199.745,902.091,1197.68,902.467,1195.5z"/>



	<path class="st0" d="M345.308,1250.141c0.408-0.563,0.833-1.094,1.265-1.608c2.187,6.068,20.344,5.114,22.839,5.175
		c3.885-0.163,7.665,0.857,11.534,1.02c7.577,0.022,15.035,15.181,16.529,17.574c14.324,28.205,32.521,41.525,67.424,47.523
		c74.014,4.352,9.266,65.647,128.17,67.073c27.035-0.025,23.931,23.852,65.326,35.679c52.917,9.958,67.754-3.662,101.772,19.264
		c82.591,55.578,85.523,24.409,163.612,49.025c3.918,1.11,7.722,2.694,11.82,3.126c1,0.923,61.277,25.667,112.228,25.908
		c10.719,2.08,33.342-1.917,64.183,10.456c-3.249,0.261-6.636,0.155-9.665-1.151c-8.008-0.245-15.534-3.526-23.541-3.771
		c-22.731-1.75-20.482,3.9-100.899-12.032c-0.45-0.221-34.612-11.411-35.091-11.558c-67.231-24.016-65.085-12.678-108.008-19.696
		c-45.906-8.423-60.389-26.943-83.855-40.667c-29.407-16.875-49.693-6.681-74.55-11.281c-44.716-5.411-51.143-21.61-64.82-32.349
		c-16.122-13.279-61.658-1.851-91.275-25.214c-15.755-13.35-12.504-31.024-25.835-40.568c-16.245-15.211-55.919,1.198-90.312-43.401
		c-6.793-8.924-12.463-24.885-18.105-28.537C382.109,1252.396,356.326,1260.409,345.308,1250.141z"/>












</g>
</svg>
