<?xml version="1.0" encoding="utf-8"?>
<!-- Generator: Adobe Illustrator 15.1.0, SVG Export Plug-In . SVG Version: 6.00 Build 0)  -->
<!DOCTYPE svg PUBLIC "-//W3C//DTD SVG 1.1//EN" "http://www.w3.org/Graphics/SVG/1.1/DTD/svg11.dtd">
<svg version="1.1" id="Map_1_" xmlns="http://www.w3.org/2000/svg" xmlns:xlink="http://www.w3.org/1999/xlink" x="0px" y="0px"
	 width="2000px" height="1200px" viewBox="140 100 2000 1200" enable-background="new 0 0 2000 1200" xml:space="preserve">
<g id="Achtergrond">
	<rect fill="none" width="2000" height="1200"/>
</g>
<g id="Stadcentrum">
	<path fill="#EFEFEF" d="M616.969,361.549l146.993-64.497l70.497,4.5l10.5,62.997l17.999-3l12-77.996l113.994-34.498l58.498-9.056
		l1.5,72.052l109.494-3l16.499,94.495l41.998,127.494l28.499-6l11.999,35.998l22.499,20.999l56.997-6
		c0,0,8.999,118.495,13.499,131.994s-1.5,68.997-17.999,83.996s-65.997,95.995-65.997,95.995s-73.497-37.498-79.496-40.498
		s-52.497-25.498-73.496-14.999s-103.494,39.998-103.494,39.998L912.455,960c0,0-116.995-118.475-130.494-137.974
		s-35.998-25.499-20.999-76.496s46.497-112.494,31.498-131.993s-83.996,1.5-83.996,1.5l-35.998-3l-137.993-44.998l53.997-79.496
		l62.997-32.998l14.999-10.5l3-22.499L616.969,361.549z"/>
</g>

<g id="Water_1_">
	<path fill="none" stroke="#7BA4D9" stroke-opacity="0.4" stroke-width="7" stroke-miterlimit="10" d="M1127.36,115.945c0,0-18,29-7,65s30,66,35,142
		s44,142,42,148s11,35,12,43s14,29,11,71s3,53,3,62s2,19,22,25s52,15,63,39s22,36-14,88s-58,130-73,158s-17,60-37,77s-52,24-68,27
		s-36,14-39,19"/>
	<path fill="none" stroke="#7BA4D9" stroke-opacity="0.4" stroke-width="7" stroke-miterlimit="10" d="M1221.36,591.945c0,0,68,0,77,0s25,2,27,16
		s4,46,4,46s-1,2-5,2s-55,6-64,19"/>
	<polygon fill="#7BA4D9" fill-opacity="0.2" stroke="#7BA4D9" stroke-opacity="0.4" stroke-width="7" stroke-miterlimit="10" points="1828.36,1008.945 1324.36,893.945 
		1326.36,876.945 1361.36,884.945 1362.36,894.945 	"/>
	<path fill="#7BA4D9" fill-opacity="0.2" stroke="#7BA4D9" stroke-opacity="0.4" stroke-width="7" stroke-miterlimit="10" d="M1269.36,670.945"/>
	<path fill="#7BA4D9" fill-opacity="0.2" d="M1130.36,140.612c0,0,3.001-10,7.334-9s7.999,6,7.666,10.667s-3.667,16-6,19s0.333,7,3,9s3,5,1.667,7.667
		s-1.667,6.667-1.667,7.667s-2.334,11.667-7,5s-4.333-17-2.333-19.667s0.667-4.333-1.333-7.667S1130.36,140.612,1130.36,140.612z"/>
	<path fill="#7BA4D9" fill-opacity="0.2" d="M1186.027,258.612c0,0-4.001-22,5.333-23.333s13.667,19,13.667,23.333s-0.334,17.667-6.667,17.667
		S1186.027,258.612,1186.027,258.612z"/>
	<polygon fill="#7BA4D9" fill-opacity="0.2" points="1249.694,153.945 1268.694,154.279 1268.36,164.945 1300.694,166.945 1300.694,180.612 
		1249.694,181.945 	"/>
	<polygon fill="#7BA4D9" fill-opacity="0.2" points="1176.028,563.612 1196.361,550.279 1203.028,558.945 1197.361,574.279 1179.361,574.612 	"/>
	<polygon fill="#7BA4D9" fill-opacity="0.2" points="1394.361,556.612 1400.361,556.945 1400.361,567.612 1393.361,567.279 	"/>
	<path fill="#7BA4D9" fill-opacity="0.2" d="M1398.694,527.279c-1-1.667,5.333,3,2,6.333s-7.333,7-6.333,9.333s6.332,3,8.666-1.333
		s5.334-6.667,6.667-8.333s1.333-6.667-1-8.667s-6.667-4.334-8.667-3.667s-3.999,3.667-1.666,5"/>
	<path fill="#7BA4D9" fill-opacity="0.2" d="M1466.361,526.612c0,0-3.334-7.333,3.666-9.333s9.667,10,9.667,10s2.333,5.333,9.333,8.667
		s11.001,8.333,9.334,9.333s-7,2-9-1.667s0-7.667-6-8.667s-10.666,0.333-12-0.667S1466.361,528.946,1466.361,526.612z"/>
</g>
<g id="Gebouw">
	<polygon fill="#D2CBBE" points="823.36,621.945 901.36,609.945 925.36,708.945 884.36,739.945 841.36,778.945 819.36,762.945 
		806.36,744.945 825.36,678.945 	"/>
	<polygon fill="#D2CBBE" points="915.026,622.278 918.36,652.278 927.693,684.945 929.36,689.278 935.026,696.278 975.693,655.945 
		958.693,643.278 951.693,638.612 945.36,643.945 956.36,654.278 944.693,667.945 944.693,671.612 946.36,674.612 936.693,684.612 
		933.693,683.612 940.36,675.278 933.36,649.945 945.693,648.278 943.693,644.612 947.026,639.612 928.026,620.612 	"/>
	<path fill="#D2CBBE" d="M906.693,602.612c0,0,1.666,0.333,4.333-2.667s5.667,1.666,5.667,3.333s2,8.667-4.333,8.667
		s-5-3.334-6-4.667S904.693,603.612,906.693,602.612z"/>
	<path fill="#D2CBBE" d="M948.693,605.278l15.667-3.333l-0.333-2.333l16-2.667l15.667,14.667l4,23l-11,11.666
		c0,0-38.333-28.333-39.333-29.333s-5.667-5.667-5-8.667S948.693,605.278,948.693,605.278z"/>
	<path fill="#D2CBBE" d="M1004.027,597.612c0,0-1.667-7.333,3-8s16.333-4.333,16.333-4.333s4,1,5,1s15.667-7,15.667-7
		s0.333,1.667,3.333,1.667s7-1.667,7-1.667l-0.666-4.667c0,0,55.333-12.667,59.333-12.667s3,4,2,5s-4.333,3-7.333,4.667
		s-2.666,5-4,4.667s-4.667-0.667-4.667-0.667s-9,2.333-11,2.333s-3.667,2-5.667,1s-2.332,2.333-4.666,2.333s-4,3.333-4,3.333
		l-6,1.333l-3,1v3l4.333-0.667c0.333,2,4,1.667,4,1.667l31.667-12l6.333,3.333l3.667,5l-100,39l-3.667-7l-2.333-2.666l0.333-2.667
		l1.667-2h-3l-1.334-6.667L1004.027,597.612z"/>
	<polygon fill="#D2CBBE" points="1113.694,572.279 1111.36,573.945 1113.694,580.945 1116.36,583.279 1122.694,579.279 
		1120.027,573.279 1115.027,573.945 	"/>
	<polygon fill="#D2CBBE" points="1140.36,554.945 1157.693,551.612 1164.693,571.279 1163.027,576.612 1146.693,583.945 	"/>
	<polygon fill="#D2CBBE" points="1266.36,533.279 1273.36,533.279 1277.36,545.279 1287.694,545.612 1289.694,554.279 
		1290.694,567.279 1281.694,567.945 1281.36,565.945 1279.027,565.945 1280.36,561.945 1283.36,560.612 1282.36,557.612 
		1278.36,556.945 1272.027,557.279 	"/>
	<polygon fill="#D2CBBE" points="1298.027,543.612 1306.36,542.279 1307.027,547.945 1309.36,549.279 1310.36,553.279 
		1312.36,553.279 1308.694,536.279 1316.36,536.279 1318.027,549.279 1316.027,549.279 1317.36,551.945 1319.36,553.945 
		1320.694,562.612 1310.36,563.279 1306.36,562.612 1307.36,564.612 1304.027,565.279 1300.36,551.945 1298.36,551.945 	"/>
	<polygon fill="#D2CBBE" points="1323.027,540.612 1331.36,538.945 1331.694,534.612 1335.36,534.612 1335.027,542.612 
		1331.027,542.612 1331.027,546.945 1329.36,550.945 1325.36,551.279 	"/>
	<polygon fill="#D2CBBE" points="1339.36,509.945 1339.36,513.279 1347.027,513.945 1348.027,517.612 1353.694,518.279 
		1354.36,513.612 1358.694,511.612 1359.694,506.279 1355.36,506.279 1354.027,508.945 1349.36,510.279 1348.36,508.612 	"/>
	<polygon fill="#D2CBBE" points="1338.694,539.945 1341.694,539.612 1342.694,536.279 1348.36,536.612 1347.694,548.945 
		1338.694,548.279 	"/>
	<polygon fill="#D2CBBE" points="1287.027,611.612 1290.694,608.612 1297.027,613.612 1300.361,615.279 1301.694,620.612 
		1300.027,622.612 1303.361,626.945 1301.694,629.945 1291.694,622.612 1281.361,613.279 1283.694,610.279 	"/>
	<polygon fill="#D2CBBE" points="1181.028,591.279 1156.695,592.612 1158.028,610.612 1165.028,610.612 1164.361,600.945 
		1180.028,597.279 	"/>
	<path fill="#D2CBBE" d="M1180.695,601.945l16.333-0.667l1,5l4.333,1l1,28.667h-5.333l-1,4l-34.333,2.333l0.333-5.333
		c0,0-4.333,0-4.333-1s-1-20.667-1-20.667l5.333,0.334l2,16.333l1.667,0.333v3l24.333-2.666l6.333-2.667v-2.667l-1.333-14.666
		l-1.667-3l-14-1L1180.695,601.945z"/>
	<polygon fill="#D2CBBE" points="1290.694,608.612 1287.027,611.612 1284.028,609.278 1281.361,613.279 1301.694,629.945 
		1304.695,628.945 1301.028,623.278 1301.694,620.612 1300.361,615.279 	"/>
	<polygon fill="#D2CBBE" points="1165.695,650.612 1198.695,648.945 1199.695,652.612 1203.028,653.278 1203.695,659.945 
		1205.361,681.278 1197.695,681.945 1197.695,676.612 1197.028,658.612 1195.028,657.945 1195.028,655.278 1168.695,656.612 
		1169.028,660.278 1167.028,661.278 1167.361,669.945 1161.361,670.278 1161.028,656.278 1164.028,655.278 	"/>
	<path fill="#D2CBBE" d="M1162.695,674.612c2.666,0,9.333-0.334,9.333-0.334l0.333,4h3.667l0.333,3.334h-4.666l-0.667,5.666
		l-2-0.333l-0.667,1.333l-4,0.334L1162.695,674.612z"/>
	<polygon fill="#D2CBBE" points="1211.028,683.945 1225.361,687.278 1223.028,691.945 1227.361,693.945 1218.361,746.945 
		1212.695,746.612 1218.695,701.945 1217.028,699.278 1217.695,691.945 1213.028,692.278 1211.361,693.612 1207.695,693.278 	"/>
	<polygon fill="#D2CBBE" points="1198.361,764.612 1205.361,763.945 1212.361,765.945 1212.361,773.945 1201.695,773.612 
		1198.361,772.612 	"/>
	<polygon fill="#D2CBBE" points="1186.361,762.278 1175.028,763.612 1171.695,765.945 1169.361,765.612 1170.028,775.612 
		1189.361,775.612 1189.028,770.278 1186.028,767.945 	"/>
	<path fill="#D2CBBE" d="M1165.028,692.612l10.333-0.334l0.667,2.667h8c0,0,1.667,24.667,2.667,25s15.333,0.333,15.333,0.333
		l3-9.333l1.667,1.333l-3.334,10.334l-3.333,4l-11.667,3h-11.333l0.667,4.333l2.333,0.667l-1.333,4l-2.334,1l0.667,3.666l5,1
		l1.667,1.667l-1.667,1l-5-0.333v1.666l2.667,1.334l0.333,2.333l-2.333,0.333l-2.667,4l3.333,1l-2.666,3.667l-3.667-3l-3.667-2
		L1165.028,692.612z"/>
	<polygon fill="#D2CBBE" points="1175.028,763.612 1186.361,762.278 1186.028,767.945 1189.028,770.278 1189.361,775.612 
		1171.028,776.945 1169.361,765.612 	"/>
	<polygon fill="#D2CBBE" points="1198.361,764.612 1206.695,763.612 1212.361,765.945 1212.361,773.945 1201.695,773.612 
		1198.361,772.612 	"/>
	<path fill="#D2CBBE" d="M1238.695,688.945l20,3.333l-0.334,4.667l4,1l-5,27l-5.333,1.333l-9-1l-0.667-15.333l3-9.333l2.667,0.333
		l-2,21l2.667,1.333l6-21l-1-2.666v-2l-12-1c0,0-3,3.666-3,4.666s-3,26.667-3,26.667l-5,33.667l-1,5l26.333,3.666l2.667-2
		l3.333,0.334l-1,8.333l-3,1.333l-2-1.666l-30.667-4.667l0.667-5.333l-3.667-1.667l11.334-70.667l3.666-0.333L1238.695,688.945z"/>
	<polygon fill="#D2CBBE" points="1256.695,728.612 1295.028,734.612 1296.361,740.278 1300.695,741.945 1298.028,762.278 
		1291.361,761.612 1293.028,746.278 1292.028,742.945 1291.695,740.612 1259.361,735.945 1258.028,737.945 1255.028,736.945 	"/>
	<polygon fill="#D2CBBE" points="1287.028,762.278 1292.361,763.278 1289.028,783.945 1283.695,783.278 1283.695,787.945 
		1262.028,783.278 1263.695,774.945 1279.361,779.945 1281.028,777.945 1283.361,778.278 	"/>
	<line fill="none" x1="1262.028" y1="768.612" x2="1258.695" y2="768.278"/>
	<polygon fill="#D2CBBE" points="1321.028,685.945 1327.028,685.945 1330.361,700.279 1325.361,700.945 	"/>
	<polygon fill="#D2CBBE" points="1336.361,700.612 1329.361,701.945 1330.361,706.945 1335.361,706.945 	"/>
	<path fill="#D2CBBE" d="M1328.361,712.279c1.334,0,9.334-2,9.334-2l3.333,7.666l-12.333,1.667L1328.361,712.279z"/>
	<polygon fill="#D2CBBE" points="1339.028,732.612 1344.028,731.612 1345.361,740.279 1338.361,740.279 1338.028,736.612 
		1335.695,736.612 1335.695,734.945 	"/>
	<polygon fill="#D2CBBE" points="1336.695,741.945 1340.028,742.612 1340.028,743.945 1342.695,744.279 1345.361,744.279 
		1344.695,750.945 1342.695,753.279 1337.028,751.945 1332.028,751.945 1332.361,748.945 1336.028,747.279 	"/>
	<polygon fill="#D2CBBE" points="1306.695,792.945 1303.695,796.279 1308.361,801.612 1312.028,798.612 	"/>
	<polygon fill="#D2CBBE" points="1315.695,780.612 1310.028,787.279 1318.028,795.612 1323.695,788.612 1320.028,787.279 
		1322.695,783.945 1326.695,785.279 1329.028,782.945 1328.695,780.612 1321.361,775.945 1319.695,777.279 1320.361,779.945 
		1317.695,781.945 	"/>
	<polygon fill="#D2CBBE" points="1326.695,766.945 1337.361,772.945 1333.028,776.279 1325.361,775.279 1327.028,771.945 
		1325.028,770.945 	"/>
	<path fill="#D2CBBE" d="M1330.361,766.279c1,0,7.334,3.333,7.334,3.333l5-15l-5.667-2.667l-1.333,2l-5-1l-3,5.334l3.333,2.333
		L1330.361,766.279z"/>
	<polygon fill="#D2CBBE" points="1206.695,784.612 1211.361,781.612 1213.695,784.946 1221.361,784.612 1224.028,783.279 
		1227.028,784.612 1245.028,786.612 1245.028,792.612 1246.361,794.279 1246.028,796.612 1242.361,796.946 1237.695,837.612 
		1222.695,835.946 1219.028,840.612 1221.695,841.612 1218.028,852.612 1242.361,865.946 1255.361,846.279 1264.028,848.612 
		1249.361,873.612 1242.028,868.946 1239.361,872.946 1204.695,852.279 1211.695,836.612 1216.361,837.612 1217.028,835.279 
		1206.695,833.946 1205.028,840.279 1203.695,843.946 1200.361,846.279 1196.361,847.946 1185.361,841.612 1186.028,839.279 
		1167.361,830.946 1170.695,823.279 1170.695,819.612 1176.028,817.279 1179.028,819.279 1180.361,822.612 1192.028,828.946 
		1194.028,826.946 1199.695,830.279 1203.361,829.946 1206.028,831.279 1208.361,830.279 1209.361,828.279 1202.695,826.946 
		1203.695,819.612 1234.028,823.279 1236.695,804.946 1233.361,802.279 1234.695,793.946 1207.028,790.612 	"/>
	<polygon fill="#D2CBBE" points="1024.028,632.613 1079.028,608.946 1084.695,619.279 1072.695,622.613 1072.695,626.946 
		1074.361,627.279 1075.028,623.279 1084.028,622.946 1084.695,651.613 1075.028,651.946 1074.361,631.613 1072.695,630.613 
		1073.028,636.279 1069.361,629.279 1063.695,631.279 1067.695,634.946 1063.028,639.279 1059.695,636.279 1056.361,640.279 
		1061.028,648.279 1056.695,648.946 1049.361,639.279 1048.361,641.613 1056.028,652.279 1060.361,650.946 1062.361,653.946 
		1068.361,648.946 1081.361,662.613 1083.361,663.279 1080.361,669.946 1059.695,680.946 1027.028,643.946 1027.361,638.946 
		1022.695,634.946 	"/>
	<polygon fill="#D2CBBE" points="1015.028,638.279 1021.695,639.613 1035.361,662.279 1022.028,671.613 1018.028,664.613 
		1006.361,647.946 	"/>
	<polygon fill="#D2CBBE" points="1047.028,705.279 1055.361,698.946 1058.028,699.613 1061.695,697.279 1060.361,694.946 
		1075.028,689.613 1080.361,698.946 1048.028,716.279 1045.361,710.946 1049.028,707.613 	"/>
	<polygon fill="#D2CBBE" points="1104.028,688.946 1111.028,701.613 1113.695,704.279 1124.695,727.279 1090.695,748.279 
		1107.361,779.279 1141.028,761.279 1155.361,760.279 1156.695,767.946 1153.695,769.613 1153.695,771.613 1157.361,771.946 
		1158.028,774.613 1148.695,776.613 1148.695,771.279 1143.028,771.279 1127.695,780.279 1133.028,790.613 1137.028,790.613 
		1142.695,801.279 1137.028,805.613 1133.361,803.946 1125.695,809.279 1128.028,813.279 1110.361,820.279 1078.361,759.613 
		1080.028,757.613 1078.695,755.613 1075.028,756.613 1052.361,716.613 	"/>
	<polygon fill="#D2CBBE" points="1104.695,745.279 1132.028,729.279 1143.695,750.279 1117.361,765.946 	"/>
	<path fill="#D2CBBE" d="M1113.695,628.279c1.333,0,19.333-2.666,19.333-2.666l-0.333,67.333l-22.667-4.333L1113.695,628.279z"/>
	<path fill="#D2CBBE" d="M1090.361,605.613l12-4l22.334-10.333l16.333,0.333c0,0,7,7,7,10s9,131,9,131l-9-1v-4.667l1.667-1
		l-0.334-2.333l-4.333-1l-1-4l4.667-0.334v-2.333l-3.667-1l-0.333-3.333h3.333l-0.333-6.667l-0.334-5l-3.666-1l-0.334-3.333
		l2.667-2.667v-2.333l-0.667-6.334l-1-1.333l2.667-6.667l-7,0.667l-2-10l3.667,1.333l3.333,0.667l-0.333-3l-0.667-11.667l-4.667-1
		l1.334-3.333l3-1.333v-2.667l-1-1.667l0.666-3.666l-0.333-4.334h-4l0.667-5.666l3.333,1l-0.667-3.334l-3-3l-1.666-1l-1.667-17.333
		l3.667-2l-1.667-4.667l-5.667-0.667l-0.333,4l-5.333,0.666v-3l-6,2l-3.334,2.334l3,8.333l-0.666,5l-3.667,1.667l-7.333,1l-1.667-5
		v-4.667l-7,3l-1,7l5.333-1v3.333l-3.333,2.334l0.667,2.333l-5.334,1l-1-2.333h-3.666l1-9.667L1090.361,605.613z"/>
	<polygon fill="#D2CBBE" points="1091.695,648.946 1099.028,649.613 1098.361,654.613 1092.028,654.613 	"/>
	<path fill="#D2CBBE" d="M1094.695,665.946c2.333,0,10,0,10,0l-1.667,4.333l-2.333,1l-0.334,2.667l-3-0.333v-1.667l-4.666-0.333
		L1094.695,665.946z"/>
	<polygon fill="#D2CBBE" points="1090.028,677.613 1092.028,675.613 1105.361,682.279 1102.361,686.279 1096.695,683.946 
		1093.361,684.946 	"/>
	<polygon fill="none" points="975.526,672.778 984.693,664.278 1001.527,678.945 1006.36,680.278 1009.527,680.612 
		1022.527,706.778 1003.193,718.612 999.693,717.778 997.526,720.112 997.526,722.778 985.86,725.945 981.026,712.112 
		988.526,697.278 994.526,690.612 988.36,685.612 985.026,687.778 987.193,690.278 973.026,691.612 963.193,683.278 	"/>
	<path fill="#D2CBBE" d="M960.693,684.778l12,13.834c0,0,10.167,32.833,11.167,33.333s13.833,8,13.833,8l6.333-2l4.166,6
		l7.667,4.333l13.167-1.333l12.666-6l7.167,12.5l23.334,42.833l-5.667,3.833l-4.167-0.333l-7.166,12.667l10.5,24.833l-40.834,15.667
		l-1.833-2.5l1-2.667l-2.333-6l-3.834-3.5l-7.166,2.167l-1.334,9.666l-6.833,2.334l-14.667-25.5l4.333-2.5l-4.333-14l-11.833,3.333
		l-11.833-21.5l-3-2.333l-4.667-12.334l13.667-6.666l-0.5-4.333l-14.5,5.166l-19.333-50.833l2-1.833l0.333-3.667l-2.833-0.5
		l-4.5-0.667l1.167-3.666l6.333-1.667L960.693,684.778z"/>
	<path fill="#D2CBBE" d="M963.193,683.278l21.5-19.666l15,15l3.667-2.167l3.167,3.167l16,27.166l-20,12.5c0,0-3-3.334-4.667-0.5
		s-7,4.834-7,4.834l-5.167,1.5l-5.833-22l9.167-6.167l5.333-7.167l-5.167-5.166l-4.167,3.166l1.333,1.834l0.667,1.5
		c0,0-11.667,1.166-12.833,1.166S963.193,683.278,963.193,683.278z"/>
	<polygon fill="#D2CBBE" points="1016.694,715.112 1024.86,709.778 1039.194,736.278 1030.36,741.445 1026.36,742.445 
		1026.027,739.945 1026.527,737.778 1024.027,736.945 1023.027,735.278 1023.86,732.945 1023.027,723.445 1017.027,726.612 
		1014.527,721.778 1019.194,719.945 	"/>
	<polygon fill="#D2CBBE" points="1003.194,722.445 1007.527,719.945 1012.194,728.445 1006.527,731.778 	"/>
	<polygon fill="#D2CBBE" points="1014.36,740.612 1019.027,738.112 1022.027,742.778 1021.527,744.112 1018.86,744.112 
		1018.194,742.778 1015.86,743.945 	"/>
	<path fill="#D2CBBE" d="M1068.527,814.945c0.5,0,0.333-5.499,5.5-5.333s5.5,2.666,5.5,2.666l2.833,5.5l-8,3.667l-1.833-1.5
		l-2.833-0.167C1069.694,819.778,1068.36,814.945,1068.527,814.945z"/>
	<path fill="#D2CBBE" d="M1003.36,867.611c0,0-27-42.5-29.333-46.833s-24.833-36.167-24.833-36.167l-15.167,9.334l-2-1.334
		l-13.5,10.667c0,0,18,29.834,32,46.667s32.5,36,32.5,36l3.833,0.166l16.5-16.5V867.611z"/>
	<path fill="#D2CBBE" d="M931.193,786.945l-16.333,12.5l-25.5-47.333l-0.167-4l16.333-12.667c0,0,9.333,11.834,10.333,13.667
		S931.193,786.945,931.193,786.945z"/>
	<path fill="#D2CBBE" d="M884.36,755.445c0,0,16.833,38.499,35,63.333s51,64.5,51,64.5l-62.333,56.667l-19.167-25.5l-18.5-23
		l-2.333-8.333l-22.167-25.167l-3.5-2l-1.167-1.333l8-7.834l2.167-3.666l16.167-12.334l13,15.334l25.667-21.834l-5.5-7.833
		l-15.833,13.833l-8.833-10.833v-2.833l-1.5-1.5l-3.5,3.333l-6.833-7.667l8-7.167l-6.667-6.666l-17.333,15.333l-8.333-9
		l-2.667,2.333l3,3.5l-1.667,2.667l7.333,5l-4.167,5.667l5.667,3.333l1.5-2.333l4.833,2.666l-2.333,3.834l-4-2.667l-2.167,1.167
		l3,3.333l-10.333,9.833l-1.833-2.166l1-1.5l-17.167-14l-0.5,2.666l16.167,17.834l-4,4.833l-16-14.833l-0.167-5.5l-2-3l-0.667,3.5
		l0.167,4.833l-3.667,2.167l-35.5-30.834l0.167-2.833l-7.167-12.333c0,0,3.667-18.834,4.167-18.834s14,3.834,14,3.834l-1.833,9.5
		h3.333l-1.667,5.166c0,0,11-14,12.167-13.333s11.333,9.833,11.333,9.833s-1.667,2.833-1.167,3.5s5.333,4.5,5.333,4.5l1.5-1l4.167,2
		l1.667-2l-6.167-3l-0.5-3.5l-8.333-7.666l3.667-4.334l-2.667-1l-3.667,4.334l-5.5-5.667l12.167-12.333l26.333,23.5l8.667,2.833
		l26.167-26L884.36,755.445z"/>
	<path fill="#D2CBBE" d="M793.86,770.445l9.833-11.333c0,0-22.5-17.833-23.5-19s-4.5,1.333-4.5,1.333l-3,15.5L793.86,770.445z"/>
	<polygon fill="#D2CBBE" points="797.86,664.695 801.11,662.945 808.11,663.195 808.11,667.195 810.11,670.445 810.86,668.445 
		813.61,668.445 815.61,671.445 813.86,679.945 819.61,681.195 802.36,745.445 778.86,732.195 797.61,675.445 800.11,675.195 	"/>
	<path fill="#D2CBBE" d="M808.11,634.945c0,0-5.25,21.25,1,22.75s11.75-7.75,11.75-12.25s-3-22.25-4-24s-5-5.5-6.5,1.25
		S808.11,634.945,808.11,634.945z"/>
	<path fill="#D2CBBE" d="M703.11,629.445l20.5-5.25l4.25,25.75l44.75-11.25c0,0,11-3.5,12.75,9.75l-7.25,27l-14.25-4.5l4.25-10.75
		l-3.25,0.25l-0.25-3.75l-40,11.5l3.5,15.75l5,1l2.25,6.75l-1.75,3.25c0,0-14.25-24.75-14.75-28.5s-4.75-20.5-4.75-20.5l-5.5,0.5
		L703.11,629.445z"/>
	<polygon fill="#D2CBBE" points="759.61,683.695 772.61,689.695 755.61,747.695 741.11,744.445 738.11,740.945 738.36,738.195 
		742.11,737.695 745.36,725.695 743.86,722.195 744.61,720.445 747.11,720.195 	"/>
	<path fill="#D2CBBE" d="M743.86,617.945"/>
	<polygon fill="#D2CBBE" points="741.36,759.195 746.61,759.695 745.86,762.445 742.36,762.695 	"/>
	<path fill="#D2CBBE" d="M728.36,764.445l12,2.75l1-3.5l5,0.75l0.5,5.5l1.75,1.25c0,0-0.75,10.25-3.75,11.5s-6,1.25-6,1.25
		l-11.25-4.5L728.36,764.445z"/>
	<path fill="#D2CBBE" d="M699.36,544.445c1.5,0,14.5-0.75,14.5-0.75l2.25,6.5l34-3.25l6-0.25l2.75,0.5l1.5-2.75l0.25-3.75h7.25
		l20.25,51l-3,2.25l-15.5,0.5l-3.75-0.75l-2,0.75l0.5,1.75l-10-0.75l-0.5-2l-6,0.25l1,2.75l-32.5,3.5v-3.25l-5.25,0.5l-1,3.25
		l-10.5,0.5l-2.75-44.75l4.75-0.5L699.36,544.445z"/>
	<path fill="#D2CBBE" d="M789.86,535.695l34-5l4,16c0,0-10,9.75-3.5,21.5s14.75,11.5,14.75,11.5l0.75,11.75c0,0-27.25,6-27.25,5
		S789.86,535.695,789.86,535.695z"/>
	<polygon fill="#D2CBBE" points="846.36,535.695 881.86,531.695 888.86,583.445 849.61,588.945 	"/>
	<path fill="#D2CBBE" d="M818.11,497.695l14.25-2.75l1.25-5.25l8-7c0,0,0.25,7.75,0.25,8.5s16.25-4.5,16.25-4.5v-4l3-0.75l-18-56.25
		l-41.75,12L818.11,497.695z"/>
	<path fill="#D2CBBE" d="M761.11,448.695c1.25,0,34-11.75,34-11.75l19.25,61.75l-33.25,10L761.11,448.695z"/>
	<path fill="#D2CBBE" d="M724.36,477.695c1.25-0.25,9-1.75,9-1.75l4.25,19l2.75,0.75l2.75,6.75l-10.25,1.75l-2.75-3.5
		L724.36,477.695z"/>
	<polygon fill="#D2CBBE" points="895.36,386.445 902.61,382.945 912.86,387.695 897.36,394.945 	"/>
	<path fill="#D2CBBE" d="M917.86,446.445l7-0.75l-0.5-4l21.75-2.75l-0.75-2.75l13.25-3l2,3.5l9.75-1.25l-0.25-2.5l20.5-4.5
		l2.25,9.25l21.75,86.25c0,0,5.75-1.75,7.75-1.5s3,4.5,3,4.5l-9.5,2.5l-0.25,3l-31.75,3.5l-0.5-5.25l-3-1l1-5.25l1.5-1.75l-1.25-5
		l-3.75,0.75v-4l-3-0.75l0.5-3.25l4.75-0.25l-0.5-6l-12.5-53.75l-9.75,1l-3-3.5l-21.5,5.5l-12.25,0.25l-3.5-4.75L917.86,446.445z"/>
	<path fill="#D2CBBE" d="M907.86,526.195c3,0,37.75-7.5,37.75-7.5l2.75,26.5l-30.25,4.75L907.86,526.195z"/>
	<polygon fill="#D2CBBE" points="955.11,557.195 964.86,549.195 969.61,549.695 970.36,555.945 959.61,564.945 953.61,565.195 	"/>
	<path fill="#D2CBBE" d="M1027.11,534.945c1.25-0.25,13.75-3,13.75-3l4.75,22.75l-14.25,2.5L1027.11,534.945z"/>
	<polygon fill="#D2CBBE" points="1032.36,519.945 1060.36,515.945 1060.36,519.195 1095.61,513.195 1098.36,523.195 
		1083.86,526.195 1082.11,529.695 1076.11,530.445 1076.11,540.195 1087.61,539.445 1088.36,536.695 1099.61,534.695 
		1100.36,536.445 1117.36,532.445 1120.36,538.195 1064.86,552.445 1061.86,551.195 1053.61,553.945 1048.86,534.445 
		1047.86,525.695 1032.11,526.695 	"/>
	<polygon fill="#D2CBBE" points="1072.11,496.195 1107.11,492.195 1107.11,501.195 1072.61,503.695 	"/>
	<path fill="#D2CBBE" d="M1112.36,492.445c1.25,0,9.75-2,9.75-2l0.25,9h-8.5L1112.36,492.445z"/>
	<polygon fill="#D2CBBE" points="1128.11,504.945 1181.36,491.945 1188.11,522.195 1136.36,536.195 	"/>
	<polygon fill="#D2CBBE" points="1249.36,486.945 1273.86,482.445 1273.61,474.445 1292.86,471.195 1290.61,457.695 
		1427.61,427.695 1427.61,431.695 1461.61,423.695 1462.61,427.695 1455.86,429.945 1458.11,441.195 1291.36,477.695 
		1292.11,479.195 1311.11,475.695 1315.11,498.695 1254.61,512.945 	"/>
	<path fill="#D2CBBE" d="M1251.86,472.445c2.25,0,9.5-1.75,9.5-1.75l0.5,8l-7,1.5L1251.86,472.445z"/>
	<path fill="#D2CBBE" d="M1463.61,423.445c0.75-0.5,5.5-0.25,5.5-0.25l-0.75,2.75l-2.5,1.5l-2.25-0.75V423.445z"/>
	<polygon fill="#D2CBBE" points="1471.36,421.195 1478.86,420.445 1480.36,424.945 1471.86,426.945 	"/>
	<polygon fill="#D2CBBE" points="1489.36,418.195 1535.36,407.945 1535.36,411.195 1647.36,385.695 1651.86,397.945 
		1538.61,423.945 1537.61,421.195 1491.61,431.445 	"/>
	<polygon fill="#D2CBBE" points="1535.11,403.445 1579.11,393.945 1580.61,397.195 1538.61,407.945 	"/>
	<path fill="#D2CBBE" d="M966.36,366.112l10.833-2.5c0,0,3.167,21.166,9.667,24.333c0,0-4.667,0.167-5.167-0.167s5,16.833,5,18.5
		s-2.167,3.667-2.167,3.667l-3.5,2l-0.5-1.833l-1.667,2.333l-0.667,2l-2.167-0.167l-6.5-25.833l1.833-1.5L966.36,366.112z"/>
	<polygon fill="#D2CBBE" points="988.027,357.779 1000.86,355.279 1007.86,390.112 998.527,395.779 	"/>
	<polygon fill="#D2CBBE" points="997.693,411.112 988.86,418.779 995.36,422.779 1000.027,415.445 	"/>
	<polygon fill="#D2CBBE" points="1000.694,405.945 1031.694,380.779 1037.027,405.445 1032.86,408.779 1036.027,424.112 
		1022.194,424.445 1016.527,426.279 1016.194,428.445 1004.86,431.612 	"/>
	<polygon fill="#D2CBBE" points="1040.36,374.112 1069.193,350.112 1084.527,415.445 1051.527,422.945 	"/>
	<path fill="#D2CBBE" d="M1087.527,353.112c0.833,0,28.5-6.167,28.5-6.167l-1.167,10.167l-7.833,2.5l2.833,20.5l-7,17l-4,2.667
		L1087.527,353.112z"/>
	<polygon fill="#D2CBBE" points="1111.527,385.445 1111.86,387.945 1127.36,384.445 1129.36,387.279 1128.527,396.779 
		1107.027,401.945 1109.86,390.112 	"/>
	<path fill="#D2CBBE" d="M1101.194,427.445c0.666,0,19.833-3.833,19.833-3.833l1.167,6.333l-23,5.667L1101.194,427.445z"/>
	<polygon fill="#D2CBBE" points="1131.86,451.779 1152.694,446.945 1154.194,452.445 1131.527,458.279 	"/>
	<path fill="#D2CBBE" d="M1082.36,259.445c0,0-0.5-21.5,13-21s14.333,22.667,14.333,22.667s-1.332,18-13.666,17.833
		S1082.36,259.445,1082.36,259.445z"/>
	<polygon fill="#D2CBBE" points="963.193,263.779 977.36,258.612 978.027,264.779 989.693,261.279 993.693,274.945 982.193,278.445 
		983.86,280.945 953.86,287.945 952.527,286.612 950.027,286.945 950.693,288.779 939.86,292.279 938.693,289.612 925.193,292.779 
		922.36,278.279 939.193,274.279 941.527,275.779 963.693,269.945 	"/>
	<polygon fill="#D2CBBE" points="971.527,285.612 990.36,281.612 993.527,293.279 972.027,298.945 970.693,294.612 969.027,291.279 
		971.193,290.279 	"/>
	<polygon fill="#D2CBBE" points="951.86,291.612 940.026,293.779 942.526,303.612 929.36,306.279 928.526,309.612 951.193,303.445 
		950.36,301.945 953.36,300.945 	"/>
	<path fill="#D2CBBE" d="M929.193,311.279c0.833,0,22.5-5.167,22.5-5.167l1.333,4.167l19.5-4.5l-0.167-5.5l10-1.667l0.667,3.667
		l7.667-1l2.833,10.5c0,0-43.833,11.167-43.833,10.667s-1.167-4.833-1.167-4.833s-15.667,3.667-16.333,4
		S929.193,311.279,929.193,311.279z"/>
	<path fill="#D2CBBE" d="M699.86,334.945c1.25,0,11.75,0.25,11.75,0.25l-4.5-6l11.5-4l2,3.25l3.25-0.75l5,8l1.75-3.75l-1.25-9.25
		l2.75-1l-2.25-3l24.75-7.75l5.25,10.5l-1.75,2.25l1.75,1.75l1.75,0.5l0.5,3.25l-1.25,1.75l2.25,3.5l3,3.5l2.5,11.75l9.5-2.5l-4-11
		l39.25-13.25l3.25,3.75l-3.75,3.25l3.75,5.5l-18.75,6.5l4.25,19l-26.75,9l-5.5-15.75l-6.75,4.5l-4.75-9.75c0,0-3-6-3-6.75
		s1.5-3.25,1.5-3.25l-1-2l-3.5,1l-0.5,4.25l-14,3.25l-4.5-3l-2.5,0.75l0.5,9l-10.25,4.75l-3.75-14h-14.25L699.86,334.945z"/>
	<polygon fill="#D2CBBE" points="692.86,337.695 667.86,348.445 669.36,355.695 668.36,358.945 673.36,371.195 676.61,371.695 
		677.36,373.945 672.61,374.445 678.61,390.445 688.36,386.695 692.36,380.195 694.86,380.945 699.86,382.695 708.61,364.945 
		690.36,357.445 684.11,368.945 678.36,371.945 678.86,368.445 681.61,367.195 678.11,355.195 697.36,347.195 	"/>
	<polygon fill="#D2CBBE" points="707.86,353.195 716.61,349.445 717.86,354.695 708.86,359.195 	"/>
	<polygon fill="#D2CBBE" points="721.36,360.445 728.86,356.945 737.11,375.695 730.86,379.445 727.61,378.945 	"/>
	<path fill="#D2CBBE" d="M746.61,371.945c0,0,15-8,15.75-8s7,8.75,7,8.75l-12,5.25l-0.25,4.25l-13,3.25l-1-2l-2.75,0.5v-4l5-3
		L746.61,371.945z"/>
	<polygon fill="#D2CBBE" points="722.61,389.945 716.86,388.195 711.86,390.445 676.11,401.195 663.36,370.445 650.86,372.195 
		653.11,381.445 656.61,382.195 657.11,388.695 657.36,392.445 659.36,393.445 665.11,407.695 671.61,408.195 674.61,412.195 
		688.61,407.195 690.86,411.695 704.36,407.445 703.86,403.695 710.86,402.945 713.11,404.945 723.36,400.445 725.36,396.695 
		724.36,394.945 725.86,393.695 725.36,391.445 721.36,391.945 	"/>
	<polygon fill="#D2CBBE" points="651.61,368.445 659.86,364.945 658.36,359.445 648.36,362.445 	"/>
</g>
<g id="Grote_weg_1_">
	<path fill="none" stroke="lightgrey" stroke-opacity="0.4" stroke-width="7" stroke-miterlimit="10" d="M643.36,1082.945l-135-144c-43-41-35-69-35-69
		c-1-23,21-66,21-71s-10-117-10-117c-5-63,12-78,15-84s103-131,103-131c14-20,37-25,37-25s107-45,246-84s169-40,169-40
		c10-1,46-4,79-6s63-5,63-5s103-14,305-35s343-71,343-71"/>
	<path fill="none" stroke="lightgrey" stroke-opacity="0.4" stroke-width="7" stroke-miterlimit="10" d="M1854.36,226.945c0,0-74,14-93,20s-98,14-106,15
		l-468,57c0,0-41,6-62,6s-63,7-63,7l-243,58l-202,77c0,0-23,10-32,20s-43,70-63,94c0,0-44,40-37,108"/>
	<path fill="none" stroke="lightgrey" stroke-opacity="0.4" stroke-width="7" stroke-miterlimit="10" d="M1067.36,109.945c0,0-25,82-26,135l8,88"/>
	<path fill="none" stroke="lightgrey" stroke-opacity="0.4" stroke-width="7" stroke-miterlimit="10" d="M1026.36,340.945c0,0-10-73-11-106s23-122,23-122"
		/>
	<path fill="none" stroke="lightgrey" stroke-opacity="0.4" stroke-width="7" stroke-miterlimit="10" d="M871.36,113.945c0,0-18,181-14,218
		c0,0,10,99,22,148s22,100,52,109s83-12,83-12l815-177"/>
	<path fill="none" stroke="lightgrey" stroke-opacity="0.4" stroke-width="7" stroke-miterlimit="10" d="M855.36,113.945c0,0-20,196-19,221c0,0,0,24,19,80
		s36,115,36,115"/>
	<path fill="none" stroke="lightgrey" stroke-opacity="0.4" stroke-width="7" stroke-miterlimit="10" d="M466.36,118.945c6,8,204,310,204,310l-4,19"/>
	<path fill="none" stroke="lightgrey" stroke-opacity="0.4" stroke-width="7" stroke-miterlimit="10" d="M653.36,452.945c0,0-21-63-109-215"/>
	<path fill="none" stroke="lightgrey" stroke-opacity="0.4" stroke-width="7" stroke-miterlimit="10" d="M739.36,401.945c0,0-6,16-6,21s61,159,61,159
		s9,16-16,18l-78,10c0,0-14,6-50-3s-103-30-103-30l-31-15c0,0-154-110-168-124s-126-118-130-121s-17-6-17-6s-22,0-25-4"/>
	<path fill="none" stroke="lightgrey" stroke-opacity="0.4" stroke-width="7" stroke-miterlimit="10" d="M999.36,1082.945c0,0-85-139-152-200
		s-109-65-88-128s29-77,35-99c0,0,13-46-2-80"/>
	<path fill="none" stroke="lightgrey" stroke-opacity="0.4" stroke-width="7" stroke-miterlimit="10" d="M170.36,780.945l41-19c0,0,16-12,47-1
		c0,0,34,15,79,17s370,48,370,48s55,10,58-11"/>
	<path fill="none" stroke="lightgrey" stroke-opacity="0.4" stroke-width="7" stroke-miterlimit="10" d="M171.36,479.945c0,0,60-11,137,71s115,127,115,164
		l5,73"/>
	<path fill="none" stroke="lightgrey" stroke-opacity="0.4" stroke-width="7" stroke-miterlimit="10" d="M1280.36,1077.945c0,0,8-42-34-81s-67-44-97-94
		s-117-197-120-204s-19-30-28-35l-30-22c0,0-39-23-48-57"/>
	<path fill="none" stroke="lightgrey" stroke-opacity="0.4" stroke-width="7" stroke-miterlimit="10" d="M1825.36,1021.945l-266-61.945c0,0-9,0-16,0
		s-271-65.055-271-65.055s-107-58-113-61s-31-15-49,4"/>
	<path fill="none" stroke="lightgrey" stroke-opacity="0.4" stroke-width="7" stroke-miterlimit="10" d="M1827.36,625.945l-339,289c0,0-5,8-7,24
		s-3,14.109-11,21.055s-161,122.945-161,122.945"/>
	<path fill="none" stroke="lightgrey" stroke-opacity="0.4" stroke-width="7" stroke-miterlimit="10" d="M798.36,626.945c0,0,6-12-14-16s-70,7-70,7
		s-24,6-39,5s-147-37-153-42s-25-17-25-17s-52-43-65-51s-77-54-85-59s-92-87-104-96s-62-33-71-34"/>
	<path fill="none" stroke="lightgrey" stroke-opacity="0.4" stroke-width="7" stroke-miterlimit="10" d="M172.36,353.945c0,0,82-79,95-90s19-29,27-34
		s68-13,83-14s38-12,69,12s33,43,60,22s32-24,32-24"/>
</g>
<g id="Kleine_weg">
	<path fill="none" stroke="lightgrey" stroke-opacity="0.4" stroke-width="4" stroke-miterlimit="10" d="M1167.36,1080.945l-5-12l31-27l38-60l35-92
		c0,0,27-59,51-81s46-42,34-98c0,0-22-83-12-135c0,0-24,1-34,2c0,0-32,8-42-11s-18-41-18-41"/>
	<path fill="none" stroke="lightgrey" stroke-opacity="0.4" stroke-width="4" stroke-miterlimit="10" d="M1826.36,514.945c0,0-48,35-59,38s-38,5-65,3
		s-49-2-117,8s-59,14-76,14s-170-2-170-2"/>
	<path fill="none" stroke="lightgrey" stroke-opacity="0.4" stroke-width="4" stroke-miterlimit="10" d="M659.36,1081.945c0,0,26-26,33-32s7-9,30-12
		s60-18,60-18l80-29c0,0,8-6,20-14s28-25,28-25"/>
	<path fill="none" stroke="lightgrey" stroke-opacity="0.4" stroke-width="4" stroke-miterlimit="10" d="M1265.86,572.945l-17.5,10l-97.5,5l12.5,188.5l8,27
		l-13,7c0,0-9,10.5-4.5,17.5"/>
	
		<line fill="none" stroke="lightgrey" stroke-opacity="0.4" stroke-width="4" stroke-miterlimit="10" x1="1825.36" y1="997.445" x2="1487.86" y2="920.945"/>
	<path fill="none" stroke="lightgrey" stroke-opacity="0.4" stroke-width="4" stroke-miterlimit="10" d="M1737.86,975.445l21.5-89c0,0,2.5-12,0-17
		s-91.5-109-91.5-109"/>
</g>
</svg>
