<?xml version="1.0" standalone="no"?>
<!DOCTYPE svg PUBLIC "-//W3C//DTD SVG 20010904//EN"
 "http://www.w3.org/TR/2001/REC-SVG-20010904/DTD/svg10.dtd">
<svg version="1.0" xmlns="http://www.w3.org/2000/svg"
 width="393.000000pt" height="77.000000pt" viewBox="0 0 393.000000 77.000000"
 preserveAspectRatio="xMidYMid meet">
<metadata>
Created by potrace 1.15, written by Peter Selinger 2001-2017
</metadata>
<g transform="translate(0.000000,77.000000) scale(0.100000,-0.100000)"
fill="#2196f3" stroke="none">
<path d="M2600 460 c0 -273 0 -280 20 -280 19 0 20 7 20 130 0 150 11 188 62
220 38 24 98 22 128 -5 27 -24 40 -100 40 -230 0 -96 3 -115 15 -115 13 0 15
23 15 144 0 150 -7 185 -42 223 -42 45 -136 42 -191 -6 l-32 -29 3 114 c3 109
2 114 -17 114 -21 0 -21 -4 -21 -280z"/>
<path d="M164 570 c-34 -13 -64 -59 -64 -97 0 -45 42 -88 101 -102 81 -20 114
-42 117 -79 5 -46 -20 -80 -64 -88 -50 -9 -112 11 -126 42 -11 23 -28 31 -41
18 -3 -4 1 -20 9 -36 40 -77 208 -77 248 1 40 76 3 137 -100 166 -85 24 -104
39 -104 80 0 18 7 41 16 49 37 37 123 32 150 -9 16 -25 44 -34 44 -14 0 57
-112 99 -186 69z"/>
<path d="M515 566 c-63 -28 -95 -93 -95 -194 0 -121 54 -192 152 -199 61 -5
110 16 142 60 18 24 18 29 6 37 -11 7 -20 1 -33 -20 -35 -55 -141 -65 -184
-17 -29 31 -41 57 -45 97 l-3 35 143 3 142 3 0 42 c0 60 -36 128 -80 149 -41
21 -103 23 -145 4z m125 -31 c32 -17 53 -51 65 -102 l7 -33 -130 0 -130 0 10
43 c20 89 102 131 178 92z"/>
<path d="M915 566 c-63 -28 -95 -93 -95 -194 0 -121 54 -192 152 -199 61 -5
110 16 142 60 18 24 18 29 6 37 -11 7 -20 1 -33 -20 -35 -55 -141 -65 -184
-17 -29 31 -41 57 -45 97 l-3 35 143 3 142 3 0 42 c0 60 -36 128 -80 149 -41
21 -103 23 -145 4z m125 -31 c32 -17 53 -51 65 -102 l7 -33 -130 0 -130 0 10
43 c20 89 102 131 178 92z"/>
<path d="M1345 569 c-11 -6 -32 -25 -47 -42 l-28 -31 0 37 c0 26 -4 37 -15 37
-13 0 -15 -28 -15 -195 0 -188 1 -195 20 -195 19 0 20 7 20 136 0 81 5 144 11
157 32 62 87 89 138 67 46 -19 55 -51 59 -212 3 -119 7 -148 18 -148 11 0 14
25 14 130 0 176 22 225 107 237 32 4 45 0 69 -20 l29 -25 3 -161 c3 -154 4
-161 24 -161 20 0 20 4 16 158 -3 122 -7 164 -21 188 -39 74 -165 69 -216 -9
l-18 -28 -13 31 c-21 52 -102 77 -155 49z"/>
<path d="M2310 562 c-55 -27 -80 -87 -80 -190 0 -123 35 -183 116 -198 75 -14
164 32 164 85 0 31 -22 26 -42 -9 -31 -55 -116 -65 -163 -20 -58 55 -58 235 0
290 28 27 91 35 125 18 14 -8 31 -26 38 -41 14 -29 42 -37 42 -12 0 77 -113
121 -200 77z"/>
<path d="M3083 565 c-35 -15 -68 -58 -58 -75 10 -17 25 -11 37 15 12 26 54 45
100 45 45 0 88 -48 88 -98 l0 -39 -75 -6 c-129 -11 -175 -44 -175 -125 0 -52
21 -87 62 -101 65 -23 127 -6 166 44 26 33 32 32 32 -10 0 -24 5 -35 15 -35
22 0 22 284 0 336 -24 58 -117 82 -192 49z m167 -225 c0 -113 -119 -182 -191
-111 -34 35 -37 68 -8 105 24 31 64 44 142 45 l57 1 0 -40z"/>
<path d="M3674 561 c-18 -11 -39 -30 -48 -42 -16 -23 -16 -23 -16 -2 0 33 -10
53 -27 53 -11 0 -14 -6 -9 -22 3 -13 6 -101 6 -195 0 -147 2 -173 15 -173 12
0 15 20 15 118 0 64 5 133 10 153 21 74 96 115 161 88 49 -20 59 -58 59 -219
0 -118 2 -140 15 -140 23 0 22 298 -1 341 -28 56 -121 76 -180 40z"/>
<path d="M1849 523 c10 -26 44 -111 75 -188 31 -76 56 -148 56 -158 0 -47 -69
-117 -115 -117 -8 0 -15 -7 -15 -16 0 -14 8 -16 41 -11 49 6 74 27 104 87 17
34 115 269 182 438 3 7 -3 12 -15 12 -16 0 -31 -31 -88 -176 -50 -129 -70
-171 -76 -157 -4 10 -34 88 -67 173 -48 126 -63 156 -80 158 l-21 3 19 -48z"/>
<path d="M3410 375 c0 -188 1 -195 20 -195 19 0 20 7 20 195 0 188 -1 195 -20
195 -19 0 -20 -7 -20 -195z"/>
</g>
</svg>
