<svg xmlns="http://www.w3.org/2000/svg" viewBox="0 0 143.032 143.032">
  <title>Fichier 5</title>
  <g id="Calque_2" data-name="Calque 2">
    <g id="board">
      <g>
        <g>
          <circle cx="71.516" cy="71.516" r="70.516" style="fill: #969dae"/>
          <path d="M120.369,122.341a16.829,16.829,0,0,0-4.918-4.335h0l-.01,0c-3.775-2.215-8.631-3.266-14.515-3.469q-.653-.037-1.314-.037H97.462l-6.806-6.659.037-3.714H85.539c5.095-1.882,9.04-5.046,11.087-9.84h1.958a2.538,2.538,0,0,0,2.537-2.539v-10.5a2.679,2.679,0,0,0,1.743-2.51V55.6c0-18.985-14.1-34.053-31.426-34.053S40.014,36.615,40.014,55.6V78.731a2.682,2.682,0,0,0,1.8,2.531v10.48a2.538,2.538,0,0,0,2.538,2.539h1.912c2.048,4.794,5.992,7.958,11.087,9.84h-6.2v3.949l-6.565,6.424H43.073c-.273,0-.544.006-.813.016-.168.007-.335.013-.5.021A35.448,35.448,0,0,0,30.166,116.6l-.015,0-.01,0q-.942.368-1.814.809h0c-.08.04-.159.078-.237.119h0c-.289.151-.575.307-.854.47a18.078,18.078,0,0,0-4.48,4.421,70.444,70.444,0,0,0,97.616-.085Z" style="fill: #4f566e"/>
        </g>
      </g>
    </g>
  </g>
</svg>
